<?xml version="1.0" encoding="utf-8"?>
<!-- Generator: Adobe Illustrator 24.3.0, SVG Export Plug-In . SVG Version: 6.00 Build 0)  -->
<svg version="1.1" id="Capa_1" xmlns="http://www.w3.org/2000/svg" xmlns:xlink="http://www.w3.org/1999/xlink" x="0px" y="0px"
	 viewBox="0 0 1046.1 507" style="enable-background:new 0 0 1046.1 507;" xml:space="preserve">
<style type="text/css">
	.st0{fill:#573C8F;}
	.st1{fill:none;}
	.st2{fill:#FFFFFF;}
	.st3{fill:#45AA35;}
	.st4{fill:#55398D;}
</style>
<rect y="-1217.8" class="st0" width="1920" height="1080"/>
<g>
	<g>
		<path class="st1" d="M1131.1-841.2c8.5-8.5,18.2-15.8,28.7-21.5c-9.9,6.6-18.8,14.6-26.4,23.6c-7.6,9-14.1,18.9-19.5,29.3
			c-1.3,2.5-2.5,5-3.7,7.5c0.5,0.6,1,1.1,1.6,1.7c3.6,3.6,12.1,7.6,22.3,7.6c10.2,0,22.2-4.1,32.4-16.8
			c18.7-23.3,20.9-63.6,44.4-83.5c0,0-3.7-0.3-9.6-0.3c-17.3,0-54.1,2.5-78.5,21.7c-17.2,13.5-32.7,40.1-17.1,63.7
			c0.9-1.6,1.9-3.2,2.9-4.7C1115-823.1,1122.5-832.8,1131.1-841.2z"/>
		<g>
			<path class="st1" d="M1131.1-841.2c8.5-8.5,18.2-15.8,28.7-21.5c-9.9,6.6-18.8,14.6-26.4,23.6c-7.6,9-14.1,18.9-19.5,29.3
				c-1.3,2.5-2.5,5-3.7,7.5c0.5,0.6,1,1.1,1.6,1.7c3.6,3.6,12.1,7.6,22.3,7.6c10.2,0,22.2-4.1,32.4-16.8
				c18.7-23.3,20.9-63.6,44.4-83.5c0,0-3.7-0.3-9.6-0.3c-17.3,0-54.1,2.5-78.5,21.7c-17.2,13.5-32.7,40.1-17.1,63.7
				c0.9-1.6,1.9-3.2,2.9-4.7C1115-823.1,1122.5-832.8,1131.1-841.2z"/>
			<g>
				<path class="st1" d="M1167.4-820.1c1.2,1.2,2.4,2.5,3.5,3.8c14.7-23.7,18.4-58.9,39.9-77c0,0-3.7-0.3-9.6-0.3
					c-17.3,0-54.1,2.5-78.5,21.7c-6.3,5-12.3,11.6-16.7,19.3c8.4,1.5,16.6,3.8,24.4,7.1C1144.3-839.5,1157-831,1167.4-820.1z"/>
				<path class="st2" d="M1086.4-854.4c-15.1,0.1-30.2,3.1-44,8.9c-13.8,5.9-26.6,14.5-37,25.3c-10.5,10.8-18.6,23.6-24,37.5
					c-5.2,13.9-7.8,28.8-7.1,43.5c1.1-29.4,13.9-57.6,34.6-77.6c20.6-20,49-31.6,77.6-31.4c3.4,0,6.9,0.1,10.3,0.5
					c0.8-2,1.7-4,2.7-5.9C1095.1-854.1,1090.7-854.4,1086.4-854.4z"/>
				<path class="st2" d="M1198.5-739.1c0.7-14.7-1.9-29.6-7.1-43.5c-3.9-10.3-9.5-19.9-16.3-28.7c-0.9,1.3-1.8,2.6-2.7,3.8
					C1188.1-788.5,1197.5-764.3,1198.5-739.1z"/>
			</g>
		</g>
	</g>
	<path class="st3" d="M1211.3-899.6c-0.2,0-4-0.3-10.1-0.3c-19.8,0-56.9,3-82.3,23.1c-7,5.5-14.3,13.6-19.4,23.2
		c-1,1.9-1.9,3.9-2.7,5.9c-2,5-3.4,10.3-3.7,15.9c-0.6,10.6,2.5,20.7,9.2,29.6c1.1-2,2.3-4,3.4-6c-8.5-12.9-7.7-26.6-2.5-38.7
		c0.8-2,1.8-3.9,2.9-5.7c4.4-7.7,10.4-14.3,16.7-19.3c24.4-19.2,61.2-21.7,78.5-21.7c6,0,9.6,0.3,9.6,0.3
		c-21.4,18.1-25.2,53.3-39.9,77c-0.9,1.4-1.8,2.7-2.7,4c-0.6,0.8-1.2,1.6-1.8,2.4c-10.2,12.7-22.1,16.8-32.4,16.8
		c-8.7,0-16.1-2.9-20.4-6c0.7-1.6,1.4-3.3,2.2-4.9c2.6-5.3,5.4-10.6,8.6-15.6c1.5-2.6,3.3-5,4.9-7.4c1.8-2.4,3.5-4.8,5.4-7.1
		c7.4-9.3,16.2-17.5,26-24.5c-10.1,6.4-19.5,14.2-27.5,23.2c-2.1,2.2-3.9,4.6-5.9,6.9c-1.8,2.4-3.7,4.8-5.4,7.3
		c-3.5,4.9-6.7,10.1-9.6,15.4c-0.7,1.2-1.3,2.5-1.9,3.7c-0.1-0.1-2.1,3.8-3,5.9c0,0,0,0,0,0c-3.7,7.7-6.9,15.6-9.6,23.7
		c-1.9,5.8-3.6,11.6-5.1,17.5c-1.5,5.9-2.7,11.8-3.6,18.1l-0.5,3.9l8,0.7l0.3-3.9c1-11.4,3.4-23.2,6.5-34.6
		c2.1-7.6,4.7-15.2,7.7-22.5c5.4,3.5,13.5,6.4,22.9,6.4c10,0,24.5-3.3,37.3-19.1c0.4-0.5,0.7-1,1.1-1.5c0.9-1.2,1.8-2.5,2.7-3.8
		c6.7-10.1,11.2-22.2,15.5-34c6.3-17.1,12.3-33.3,24.2-43.3l11.6-9.8L1211.3-899.6z"/>
	<path class="st2" d="M729.3-727c-18.6-2.9-37.8-2.2-57.2-3.1c0,43.2,0,84.7,0,126.4c16.8,0,33.2,1.1,49.5-0.3
		c21.5-1.9,35.3-14.1,40.4-35.6c4.3-18.2,4.3-36.2-0.3-54.3C757.2-711.4,746.9-724.3,729.3-727z M737.8-640
		c-3.6,12-12.3,17.9-24.8,18.2c-4.9,0.1-9.9-0.1-14.8,0.1c-3.5,0.2-4.6-1.1-4.5-4.6c0.1-13.4,0.1-26.8,0.1-40.2
		c0-9.8,0.1-19.6,0-29.3c0-3.3,0-6.5-0.1-9.8c-0.1-3.9,0.8-5.9,5.2-5.5c4.6,0.4,9.2,0,13.7,0.1c12.8,0.3,21.6,6.1,25.3,18.4
		C743-675.2,743-657.4,737.8-640z"/>
	<path class="st2" d="M950.7-653.9c-1.3-2.2-1.4-3.7,1.4-4.9c12.9-5.5,19.2-16,20.8-29.4c2-17-6.7-33.9-23.8-38.9
		c-6.3-1.9-13.1-2.5-19.7-2.7c-13.9-0.4-27.8-0.1-42.4-0.1c0,3,0,5.1,0,7.2c0,34.9,0,69.8,0,104.7c0,14.1,2.3,16,16.5,13.8
		c0.2,0,0.3-0.1,0.5-0.1c3.7-0.1,5-2,5-5.8c-0.2-13-0.1-26.1-0.1-39.1c0-1.8,0.2-3.7,0.3-5.8c4.3,0,8-0.2,11.7,0.1
		c1.5,0.1,3.4,1.2,4.1,2.5c7,11.6,13.7,23.3,20.6,34.9c2.4,4,4.4,9.4,8.1,11.3c7.6,3.9,16.2,3.2,25.4,0.4
		c-5.2-8.7-10-16.8-14.8-24.9C959.8-638.5,955.3-646.2,950.7-653.9z M933.6-673.7c-7.8,0.7-15.8,0.1-24.6,0.1
		c0-12.2-0.1-23.8,0.1-35.3c0-0.9,1.9-2.6,2.9-2.6c7.2-0.1,14.5-0.4,21.6,0.3c10.5,1.1,15.6,7.8,15.5,19
		C949.2-681.6,943.6-674.5,933.6-673.7z"/>
	<path class="st2" d="M1061-713.5c-5.7-16.7-5.5-16.8-23.2-16.1c-1.4,0.1-2.8,0.3-4.2,0.5c-3.3,0.4-5.2,1.9-6.3,5.3
		c-4.7,14.1-9.8,28.1-14.6,42.2c-7.5,21.8-14.7,43.7-22.4,65.4c-4.5,12.6-4.1,12.4,9.1,12.5c0.7,0,1.4-0.1,2.1-0.1
		c4.4-0.2,7-2.1,8.2-6.6c1.8-6.4,4.6-12.6,6.5-19c0.9-3.1,2.7-3.5,5.4-3.5c6.5,0.1,13.1,0,19.6,0c6.3,0,12.7,0.2,19-0.1
		c3.9-0.2,5.7,1.2,6.8,4.9c1.4,5.1,3.3,9.9,5,14.9c2.7,8.2,4.1,9.3,12.8,9.4c2.8,0,5.6-0.3,8.4-0.5c4.1-0.3,4.8-2.3,3.5-6.1
		C1084.7-644.7,1072.8-679.1,1061-713.5z M1024.1-651.7c5.7-17.5,11.4-34.8,17.4-53.1c5.9,18.1,11.5,35.2,17.3,53.1
		C1047.1-651.7,1036-651.7,1024.1-651.7z"/>
	<path class="st2" d="M858-622.1c-9,0.3-18,0.1-27,0.1c-4.7,0-9.4,0-14.1,0c-2.7,0-5-2.2-5-5v-26.6c0-2.7,2.2-5,5-5
		c9.4,0,18.6,0,27.7,0c9.1,0,10.2-1.2,10-10.3c0-0.5-0.3-1-0.3-1.6c0-4.9-2.3-6.6-7.3-6.5c-10.4,0.4-20.8,0-31.2,0
		c-4.1,0-4.1-1.5-4.1-2.3c-0.2-9-0.2-17.9-0.2-27.3c0-2.7,2.2-5,5-5h1.3c12.7,0,25.4-0.2,38.1,0.1c5,0.1,7.6-1.4,7.1-7
		c-0.1-1.5-0.1-3,0-4.6c0.6-5.7-2-7-7.2-6.9c-20.1,0.3-40.2,0.1-60.3,0.1c-0.2,0-0.4,0-0.6,0c-2.7,0.1-4.8,2.3-4.8,5v115.9
		c0,2.7,2.2,5,5,5h0.7c20.5,0,40.9-0.2,61.4,0.1c5.5,0.1,7.8-1.9,7.8-7.2c0-1.8-0.1-3.5-0.1-5.2C864.5-620.4,862.5-622.3,858-622.1z
		"/>
	<path class="st2" d="M590-623.3c-12.9,0.3-25.8-0.1-38.6,0.2c-4.7,0.1-6-1.4-5.9-6c0.2-28.9,0.1-57.9,0.1-86.8
		c0-14.1-1-15-15.3-13.6c-0.2,0-0.4,0-0.5,0.1c-4.5,0.1-6.3,2-6.3,6.9c0.3,18.9,0.1,37.7,0.1,56.6c0,19,0,38.1,0,57.1
		c0,2.7-0.4,5.2,3.8,5.2c21.7-0.1,43.4,0,65.1-0.2c1.5,0,3.8-2.2,4.3-3.8c0.8-2.8,0.6-5.9,0.7-8.8
		C597.6-621.6,595.2-623.4,590-623.3z"/>
	<path class="st2" d="M643.1-715.7c0-14.3-1.6-15.5-16-13.9c-4.6,0.5-6.1,2.4-6,7.1c0.3,18.7,0.1,37.4,0.1,56c0,16.4,0,32.8,0,49.2
		c0,13.8,1,14.7,15,13.4c0.2,0,0.4,0,0.5,0c4.6-0.2,6.6-2,6.6-7.1C643-645.9,643.1-680.8,643.1-715.7z"/>
	<g>
		<path class="st3" d="M544.6-537.6h-14.7l-2.1,4.7h-5.3l14.6-31.7h0.3l14.6,31.7h-5.3L544.6-537.6z M542.7-541.8l-5.5-12.1
			l-5.5,12.1H542.7z"/>
		<path class="st3" d="M552.7-538.3l3.9-2.8c1.4,2.4,4,3.8,7,3.8c3.5,0,6.1-1.7,6.1-4c0-2.9-4.1-4.6-7.7-6.2
			c-3.6-1.6-7.7-3.5-7.7-8.4c0-5.1,4.4-8.6,10-8.6c4.4,0,7.7,2.1,9,5.5l-3.6,2.5c-1-2.1-3.1-3.3-5.4-3.3c-2.9,0-5.1,1.8-5.1,4
			c0,2.4,2.9,3.3,6.6,4.9c4.9,2.2,8.7,4.5,8.7,9.4c0,5.5-4.8,9.1-11.1,9.1C558.4-532.4,554.5-534.8,552.7-538.3z"/>
		<path class="st3" d="M583.6-559.1v8h11.7v4.9h-11.7v8.6h13.6v4.9h-18.5v-31h18.5v4.8H583.6z"/>
		<path class="st3" d="M600.5-538.3l3.9-2.8c1.4,2.4,4,3.8,7,3.8c3.5,0,6.1-1.7,6.1-4c0-2.9-4.1-4.6-7.7-6.2
			c-3.6-1.6-7.7-3.5-7.7-8.4c0-5.1,4.4-8.6,10-8.6c4.4,0,7.7,2.1,9,5.5l-3.6,2.5c-1-2.1-3.1-3.3-5.4-3.3c-2.9,0-5.1,1.8-5.1,4
			c0,2.4,2.9,3.3,6.6,4.9c4.9,2.2,8.7,4.5,8.7,9.4c0,5.5-4.8,9.1-11.1,9.1C606.1-532.4,602.3-534.8,600.5-538.3z"/>
		<path class="st3" d="M625-548.4c0-8.9,7.2-16.1,16-16.1c8.8,0,16.1,7.2,16.1,16.1c0,8.8-7.2,16-16.1,16
			C632.2-532.4,625-539.6,625-548.4z M652.2-548.4c0-6.1-5-11.2-11.2-11.2c-6.1,0-11.1,5-11.1,11.2c0,6.1,5,11.1,11.1,11.1
			C647.2-537.3,652.2-542.3,652.2-548.4z"/>
		<path class="st3" d="M678.7-532.9l-8.4-12h-3.8v12h-4.9l0-31h9.6c5.8,0,10.5,4.4,10.5,10c0,4-2.6,7.5-6.1,8.6l9,12.4H678.7z
			 M671.4-549c2.9,0,5.4-2.3,5.4-5.1c0-2.9-2.5-5-5.4-5h-4.9v10.2H671.4z"/>
		<path class="st3" d="M687.4-566.5l3.8-6.3h4.3l-4.6,6.3H687.4z M687.9-563.9h4.9v31h-4.9V-563.9z"/>
		<path class="st3" d="M718.3-537.6h-14.7l-2.1,4.7h-5.3l14.6-31.7h0.3l14.6,31.7h-5.3L718.3-537.6z M716.4-541.8l-5.5-12.1
			l-5.5,12.1H716.4z"/>
		<path class="st3" d="M728.5-526.7c1.3,0,3.6-1.1,3.6-3.9c0-0.7-0.1-1-0.3-1.5c-1.3,0-2.9-1-2.9-3c0-1.8,1.5-3.4,3.5-3.4
			c1.9,0,3.6,1.6,3.6,4.9c0,4.2-2.4,7.8-5.6,7.8C729.2-525.8,728.5-526.4,728.5-526.7z"/>
		<path class="st3" d="M751.2-548.4c0-8.7,7.3-16.1,16-16.1c4,0.1,7.7,1.8,10.8,4.7l-2.8,3.8c-2.2-2.2-5-3.6-8-3.6
			c-5.6,0-11,4.9-11,11.2c0,6.3,5.5,11.1,11,11.1c3.2,0,5.9-1.6,8.1-3.7l2.8,3.9c-2.7,2.6-6.1,4.7-10.7,4.7
			C758.5-532.4,751.2-539.6,751.2-548.4z"/>
		<path class="st3" d="M779.1-548.4c0-8.9,7.2-16.1,16-16.1c8.8,0,16.1,7.2,16.1,16.1c0,8.8-7.2,16-16.1,16
			C786.3-532.4,779.1-539.6,779.1-548.4z M806.2-548.4c0-6.1-5-11.2-11.2-11.2c-6.1,0-11.1,5-11.1,11.2c0,6.1,5,11.1,11.1,11.1
			C801.2-537.3,806.2-542.3,806.2-548.4z"/>
		<path class="st3" d="M840.6-564v31.7h-0.2l-19.9-20.7v20.2h-4.9v-31.6h0.2l19.8,20.7V-564H840.6z"/>
		<path class="st3" d="M844.8-538.3l3.9-2.8c1.4,2.4,4,3.8,7,3.8c3.5,0,6.1-1.7,6.1-4c0-2.9-4.1-4.6-7.7-6.2
			c-3.6-1.6-7.7-3.5-7.7-8.4c0-5.1,4.4-8.6,10-8.6c4.4,0,7.7,2.1,9,5.5l-3.6,2.5c-1-2.1-3.1-3.3-5.4-3.3c-2.9,0-5.1,1.8-5.1,4
			c0,2.4,2.9,3.3,6.6,4.9c4.9,2.2,8.7,4.5,8.7,9.4c0,5.5-4.8,9.1-11.1,9.1C850.4-532.4,846.6-534.8,844.8-538.3z"/>
		<path class="st3" d="M870.5-544.7v-19.3h4.9v19.3c0,4.3,3,7.4,6.8,7.4c3.8,0,6.9-3.1,6.9-7.4v-19.3h4.9v19.3
			c0,7.1-5.1,12.3-11.7,12.3S870.5-537.5,870.5-544.7z"/>
		<path class="st3" d="M918.4-537.7v4.9h-18.7v-31h4.9v26.2H918.4z"/>
		<path class="st3" d="M935.9-559.1h-8.3v26.2h-4.9v-26.2h-8.3v-4.8h21.5V-559.1z"/>
		<path class="st3" d="M936.8-548.4c0-8.9,7.2-16.1,16-16.1c8.8,0,16.1,7.2,16.1,16.1c0,8.8-7.2,16-16.1,16
			C944-532.4,936.8-539.6,936.8-548.4z M964-548.4c0-6.1-5-11.2-11.2-11.2c-6.1,0-11.1,5-11.1,11.2c0,6.1,5,11.1,11.1,11.1
			C958.9-537.3,964-542.3,964-548.4z"/>
		<path class="st3" d="M990.4-532.9l-8.4-12h-3.8v12h-4.9l0-31h9.6c5.8,0,10.5,4.4,10.5,10c0,4-2.6,7.5-6.1,8.6l9,12.4H990.4z
			 M983.1-549c2.9,0,5.4-2.3,5.4-5.1c0-2.9-2.5-5-5.4-5h-4.9v10.2H983.1z"/>
		<path class="st3" d="M999.2-566.5l3.8-6.3h4.3l-4.6,6.3H999.2z M999.7-563.9h4.9v31h-4.9V-563.9z"/>
		<path class="st3" d="M1030.1-537.6h-14.7l-2.1,4.7h-5.3l14.6-31.7h0.3l14.6,31.7h-5.3L1030.1-537.6z M1028.2-541.8l-5.5-12.1
			l-5.5,12.1H1028.2z"/>
		<path class="st3" d="M1078.4-532.6c-2.1,0-5-1.3-7.9-3.3c-2.3,2.3-5.3,3.6-8.8,3.6c-7,0-10.6-5.1-10.6-9.7c0-3.8,2.5-7.3,5.2-9
			c-1.2-2.2-1.9-4.2-1.9-6c0-3.9,3.6-7.8,8.2-7.8c4.2,0,7.5,3.3,8.1,7l-4.7,0.9c-0.2-1.9-1.8-3.4-3.5-3.4c-1.8,0-3.2,1.5-3.2,3.5
			c0,3.6,4.8,9.8,9.9,14.3c0.8-1.7,1.2-3.7,1.3-6l4.6-0.1c-0.1,3.6-0.8,6.6-2,9c2.1,1.4,4,2.3,5.5,2.3L1078.4-532.6z M1066.5-538.9
			c-2.9-2.5-5.8-5.5-8-8.5c-1.8,1.3-2.9,3-2.9,5.1c0,2.9,2,5.2,5.7,5.2C1063.4-537.1,1065.1-537.7,1066.5-538.9z"/>
		<path class="st3" d="M1092.3-548.4c0-8.7,7.3-16.1,16-16.1c4,0.1,7.7,1.8,10.8,4.7l-2.8,3.8c-2.2-2.2-5-3.6-8.1-3.6
			c-5.6,0-11,4.9-11,11.2c0,6.3,5.5,11.1,11,11.1c3.2,0,5.9-1.6,8.1-3.7l2.8,3.9c-2.7,2.6-6.1,4.7-10.7,4.7
			C1099.6-532.4,1092.3-539.6,1092.3-548.4z"/>
		<path class="st3" d="M1142.6-537.6h-14.7l-2.1,4.7h-5.3l14.6-31.7h0.3l14.6,31.7h-5.3L1142.6-537.6z M1140.7-541.8l-5.5-12.1
			l-5.5,12.1H1140.7z"/>
		<path class="st3" d="M1153.4-563.9h10.4c6,0,10.9,4.6,10.9,10.2c0,5.5-4.9,10-10.9,10h-5.5v10.8h-4.9V-563.9z M1169.9-553.7
			c0-3-2.7-5.4-6-5.4h-5.5v10.6l5.5,0C1167.1-548.5,1169.9-550.8,1169.9-553.7z"/>
		<path class="st3" d="M1192.4-537.6h-14.7l-2.1,4.7h-5.3l14.6-31.7h0.3l14.6,31.7h-5.3L1192.4-537.6z M1190.5-541.8l-5.5-12.1
			l-5.5,12.1H1190.5z"/>
		<path class="st3" d="M1198.9-548.4c0-8.7,7.3-16.1,16-16.1c4,0.1,7.7,1.8,10.8,4.7l-2.8,3.8c-2.2-2.2-5-3.6-8.1-3.6
			c-5.6,0-11,4.9-11,11.2c0,6.3,5.5,11.1,11,11.1c3.2,0,5.9-1.6,8.1-3.7l2.8,3.9c-2.7,2.6-6.1,4.7-10.7,4.7
			C1206.2-532.4,1198.9-539.6,1198.9-548.4z"/>
		<path class="st3" d="M1229.5-563.9h4.9v31h-4.9V-563.9z"/>
		<path class="st3" d="M1259.8-559.1h-8.3v26.2h-4.9v-26.2h-8.3v-4.8h21.5V-559.1z"/>
		<path class="st3" d="M1279.4-537.6h-14.7l-2.1,4.7h-5.3l14.6-31.7h0.3l14.6,31.7h-5.3L1279.4-537.6z M1277.5-541.8l-5.5-12.1
			l-5.5,12.1H1277.5z"/>
		<path class="st3" d="M1285.9-548.4c0-8.7,7.3-16.1,16-16.1c4,0.1,7.7,1.8,10.8,4.7l-2.8,3.8c-2.2-2.2-5-3.6-8.1-3.6
			c-5.6,0-11,4.9-11,11.2c0,6.3,5.5,11.1,11,11.1c3.2,0,5.9-1.6,8.1-3.7l2.8,3.9c-2.7,2.6-6.1,4.7-10.7,4.7
			C1293.2-532.4,1285.9-539.6,1285.9-548.4z"/>
		<path class="st3" d="M1316.6-563.9h4.9v31h-4.9V-563.9z"/>
		<path class="st3" d="M1325.9-548.4c0-8.9,7.2-16.1,16-16.1c8.8,0,16.1,7.2,16.1,16.1c0,8.8-7.2,16-16.1,16
			C1333.1-532.4,1325.9-539.6,1325.9-548.4z M1353.1-548.4c0-6.1-5-11.2-11.2-11.2s-11.1,5-11.1,11.2c0,6.1,5,11.1,11.1,11.1
			S1353.1-542.3,1353.1-548.4z M1339-566.5l3.8-6.3h4.3l-4.6,6.3H1339z"/>
		<path class="st3" d="M1387.5-564v31.7h-0.2l-19.9-20.7v20.2h-4.9v-31.6h0.3l19.8,20.7V-564H1387.5z"/>
	</g>
	<g>
		<path class="st2" d="M1375-668.1c18.6,11.3,20.9,24.9,16.2,43.7c-3.6,14.1-15.4,19.2-28.7,20c-13.9,0.8-27.8,0.1-41.8,0.3
			c-6,0.1-6.9-3.6-6.9-8.1c-0.1-11.6-0.1-23.3-0.1-34.9c0-23.8,0.2-47.7-0.1-71.5c-0.1-7.7,2.2-11.3,10.4-10.8
			c12.2,0.7,24.5-0.5,36.7,0.7c13.4,1.4,23.7,7.1,27,20.8c3.4,13.9,2.6,27.1-9.6,37.2C1377.4-670,1376.5-669.3,1375-668.1z
			 M1322.3-639.7c0,7.8,0.1,14.2,0,20.5c-0.2,5.1,1.5,7.8,7.1,7.7c10.9-0.2,21.7,0.2,32.6-0.4c14.4-0.8,22.6-9.4,23.2-23.3
			c0.7-16.4-6-25.1-21.4-27.4c-5.2-0.8-10.5-1.3-15.8-1.2c-8,0.2-18-3.4-23.5,1.6C1318.5-656.7,1323.3-646.4,1322.3-639.7z
			 M1343.3-670.2c6,0.2,13.8,0.2,21.4-1.8c10.9-2.9,17-12.1,16.6-24.9c-0.4-13.2-6.6-21.3-17.9-23.7c-11.9-2.5-23.9-1.2-35.8-1.4
			c-4.6-0.1-5.4,2.9-5.4,6.6c0,8.6,0,17.2,0,25.8C1322.2-670.2,1322.2-670.2,1343.3-670.2z"/>
		<path class="st2" d="M1245.9-641c-7,0-13.9,0.3-20.9-0.1c-5.9-0.3-9.3,1.7-11.2,7.4c-2.8,8.1-6.2,16-9.5,24
			c-1.3,3.2-3,6.9-7.1,5.1c-4.2-1.9-1.1-5.4-0.1-7.8c14.3-36.4,28.7-72.7,43.2-109c1.3-3.2,1.9-7.6,6.7-7.3c4.2,0.3,4.6,4.4,5.8,7.4
			c14.4,36,28.8,72.1,43,108.2c1,2.6,4.6,6.5-0.2,8.5c-4.7,2-6.1-2.4-7.5-5.7c-3.2-7.7-6.5-15.3-9.2-23.2c-2-5.7-5.4-7.7-11.2-7.4
			C1260.4-640.7,1253.2-641,1245.9-641z M1247.5-712.5c-0.7,0-1.5,0-2.2,0c-7.9,19.7-15.8,39.4-23.7,59.2c-1.6,3.9,0.5,4.8,4,4.8
			c13.6-0.1,27.3-0.1,40.9,0c4,0,5.9-1.2,4.2-5.5C1262.9-673.5,1255.2-693,1247.5-712.5z"/>
		<path class="st2" d="M1119.2-667c0-18-0.1-36,0.1-53.9c0-3-1.2-7.5,4.1-7.3c4.6,0.2,3.4,4.4,3.5,7.1c0.1,33.2,0.3,66.4-0.1,99.6
			c-0.1,7.6,2.3,10.2,9.9,9.9c13-0.5,26.1-0.2,39.2-0.1c3.1,0,7.7-0.8,7.3,4.3c-0.3,4.4-4.6,3.1-7.4,3.2
			c-16.1,0.1-32.2-0.1-48.4,0.2c-6.1,0.1-8.4-2.1-8.3-8.2C1119.3-630.5,1119.2-648.7,1119.2-667z"/>
	</g>
	<path class="st3" d="M1108.4-798.2"/>
</g>
<g>
	<path class="st1" d="M1163.5-2014.1c8.4-8.4,18.1-15.6,28.4-21.3c-9.8,6.5-18.6,14.4-26.2,23.4c-7.6,8.9-13.9,18.7-19.3,29
		c-1.3,2.4-2.5,4.9-3.6,7.4c0.5,0.6,1,1.1,1.5,1.6c3.5,3.5,12,7.5,22,7.5c10.1,0,21.9-4,32.1-16.6c18.5-23,20.7-63,43.9-82.6
		c0,0-3.6-0.3-9.5-0.3c-17.1,0-53.6,2.4-77.7,21.5c-17,13.4-32.4,39.7-16.9,63.1c0.9-1.6,1.9-3.1,2.8-4.7
		C1147.6-1996.2,1155-2005.7,1163.5-2014.1z"/>
	<g>
		<path class="st1" d="M1163.5-2014.1c8.4-8.4,18.1-15.6,28.4-21.3c-9.8,6.5-18.6,14.4-26.2,23.4c-7.6,8.9-13.9,18.7-19.3,29
			c-1.3,2.4-2.5,4.9-3.6,7.4c0.5,0.6,1,1.1,1.5,1.6c3.5,3.5,12,7.5,22,7.5c10.1,0,21.9-4,32.1-16.6c18.5-23,20.7-63,43.9-82.6
			c0,0-3.6-0.3-9.5-0.3c-17.1,0-53.6,2.4-77.7,21.5c-17,13.4-32.4,39.7-16.9,63.1c0.9-1.6,1.9-3.1,2.8-4.7
			C1147.6-1996.2,1155-2005.7,1163.5-2014.1z"/>
		<g>
			<path class="st1" d="M1199.5-1993.3c1.2,1.2,2.4,2.5,3.5,3.8c14.6-23.5,18.3-58.3,39.5-76.2c0,0-3.6-0.3-9.5-0.3
				c-17.1,0-53.6,2.4-77.7,21.5c-6.2,4.9-12.2,11.5-16.5,19.1c8.3,1.5,16.4,3.8,24.2,7.1C1176.6-2012.5,1189.2-2004,1199.5-1993.3z"
				/>
			<path class="st4" d="M1119.3-2027.2c-14.9,0.1-29.9,3-43.6,8.9c-13.7,5.9-26.3,14.4-36.6,25.1c-10.3,10.7-18.5,23.4-23.7,37.1
				c-5.2,13.8-7.7,28.5-7.1,43.1c1.1-29.1,13.7-57,34.2-76.8c20.4-19.8,48.5-31.3,76.8-31.1c3.4,0,6.8,0.1,10.2,0.5
				c0.8-2,1.7-3.9,2.7-5.8C1127.9-2026.8,1123.6-2027.1,1119.3-2027.2z"/>
			<path class="st4" d="M1230.3-1913.1c0.7-14.5-1.9-29.3-7.1-43.1c-3.9-10.2-9.4-19.8-16.1-28.4c-0.8,1.3-1.7,2.5-2.7,3.8
				C1219.9-1961.9,1229.3-1937.9,1230.3-1913.1z"/>
		</g>
	</g>
</g>
<path class="st3" d="M1242.9-2071.9c-0.2,0-3.9-0.3-10-0.3c-19.6,0-56.4,3-81.5,22.8c-6.9,5.4-14.2,13.5-19.2,23
	c-1,1.9-1.9,3.8-2.7,5.8c-2,5-3.3,10.2-3.7,15.7c-0.6,10.5,2.5,20.5,9.1,29.3c1.1-2,2.2-4,3.4-5.9c-8.4-12.8-7.7-26.4-2.5-38.3
	c0.8-1.9,1.8-3.8,2.9-5.7c4.4-7.6,10.3-14.2,16.5-19.1c24.1-19.1,60.6-21.5,77.7-21.5c5.9,0,9.5,0.3,9.5,0.3
	c-21.2,17.9-24.9,52.8-39.5,76.2c-0.9,1.4-1.7,2.7-2.7,4c-0.6,0.8-1.2,1.6-1.8,2.4c-10.1,12.6-21.9,16.6-32.1,16.6
	c-8.6,0-16-2.9-20.2-6c0.7-1.6,1.4-3.2,2.2-4.8c2.5-5.3,5.4-10.5,8.5-15.4c1.5-2.5,3.2-4.9,4.9-7.4c1.8-2.4,3.5-4.8,5.4-7
	c7.4-9.2,16.1-17.4,25.8-24.2c-10,6.3-19.3,14-27.2,23c-2.1,2.2-3.9,4.5-5.8,6.8c-1.8,2.4-3.7,4.7-5.3,7.2c-3.5,4.9-6.6,10-9.5,15.3
	c-0.7,1.2-1.3,2.4-1.9,3.7c-0.1-0.1-2.1,3.8-3,5.9c0,0,0,0,0,0c-3.7,7.6-6.8,15.5-9.5,23.5c-1.9,5.7-3.6,11.5-5.1,17.3
	c-1.5,5.9-2.7,11.7-3.5,17.9l-0.5,3.8l7.9,0.7l0.3-3.9c1-11.3,3.3-23,6.4-34.3c2.1-7.6,4.7-15,7.6-22.3c5.3,3.5,13.4,6.4,22.6,6.4
	c9.9,0,24.3-3.3,36.9-19c0.4-0.5,0.7-1,1.1-1.5c0.9-1.2,1.8-2.5,2.7-3.8c6.6-10,11.1-22,15.4-33.6c6.3-16.9,12.2-32.9,23.9-42.8
	l11.5-9.7L1242.9-2071.9z"/>
<path class="st0" d="M765.8-1901.1c-18.4-2.9-37.4-2.2-56.6-3.1c0,42.8,0,83.9,0,125.1c16.6,0,32.9,1.1,49-0.3
	c21.3-1.8,34.9-14,40-35.2c4.3-18,4.3-35.8-0.3-53.8C793.4-1885.6,783.2-1898.3,765.8-1901.1z M774.1-1814.9
	c-3.6,11.9-12.2,17.7-24.6,18.1c-4.9,0.1-9.8-0.1-14.7,0.1c-3.4,0.2-4.5-1.1-4.5-4.5c0.1-13.3,0.1-26.5,0.1-39.8
	c0-9.7,0.1-19.4,0-29c0-3.2,0-6.5-0.1-9.7c-0.1-3.9,0.8-5.8,5.2-5.4c4.5,0.4,9.1,0,13.6,0.1c12.7,0.3,21.4,6.1,25,18.2
	C779.3-1849.7,779.3-1832.1,774.1-1814.9z"/>
<path class="st0" d="M984.9-1828.7c-1.3-2.2-1.4-3.6,1.4-4.8c12.8-5.4,19.1-15.8,20.6-29.1c1.9-16.8-6.7-33.6-23.5-38.5
	c-6.2-1.8-13-2.5-19.5-2.7c-13.7-0.4-27.5-0.1-42-0.1c0,3,0,5,0,7.1c0,34.5,0,69.1,0,103.6c0,14,2.3,15.9,16.4,13.6
	c0.2,0,0.3-0.1,0.5-0.1c3.7-0.1,5-1.9,4.9-5.7c-0.2-12.9-0.1-25.8-0.1-38.7c0-1.8,0.2-3.7,0.3-5.8c4.3,0,8-0.2,11.6,0.1
	c1.5,0.1,3.4,1.2,4.1,2.4c6.9,11.5,13.5,23.1,20.4,34.5c2.4,4,4.4,9.3,8,11.2c7.6,3.9,16.1,3.2,25.1,0.4
	c-5.1-8.6-9.9-16.6-14.7-24.7C994-1813.4,989.5-1821.1,984.9-1828.7z M968-1848.2c-7.8,0.7-15.6,0.1-24.3,0.1
	c0-12.1-0.1-23.5,0.1-35c0-0.9,1.9-2.6,2.9-2.6c7.1-0.1,14.3-0.4,21.4,0.3c10.4,1.1,15.5,7.7,15.4,18.8
	C983.4-1856.1,977.9-1849.1,968-1848.2z"/>
<path class="st0" d="M1094.2-1887.7c-5.6-16.6-5.5-16.6-23-15.9c-1.4,0.1-2.8,0.3-4.2,0.5c-3.3,0.4-5.1,1.9-6.3,5.3
	c-4.7,14-9.7,27.9-14.5,41.8c-7.4,21.6-14.5,43.2-22.2,64.7c-4.5,12.5-4.1,12.2,9.1,12.4c0.7,0,1.4-0.1,2.1-0.1
	c4.3-0.2,6.9-2.1,8.1-6.6c1.8-6.4,4.5-12.4,6.4-18.8c0.9-3.1,2.7-3.5,5.4-3.5c6.5,0.1,12.9,0,19.4,0c6.3,0,12.6,0.2,18.9-0.1
	c3.8-0.2,5.7,1.2,6.7,4.9c1.4,5,3.3,9.8,4.9,14.8c2.6,8.1,4,9.2,12.7,9.3c2.8,0,5.6-0.3,8.3-0.5c4.1-0.3,4.7-2.3,3.4-6.1
	C1117.6-1819.6,1105.8-1853.6,1094.2-1887.7z M1057.6-1826.5c5.7-17.3,11.3-34.5,17.2-52.5c5.9,17.9,11.4,34.9,17.2,52.5
	C1080.4-1826.5,1069.4-1826.5,1057.6-1826.5z"/>
<path class="st0" d="M893.1-1797.2c-8.9,0.3-17.8,0.1-26.7,0.1c-4.6,0-9.3,0-14,0c-2.7,0-4.9-2.2-4.9-4.9v-26.3
	c0-2.7,2.2-4.9,4.9-4.9c9.3,0,18.4,0,27.4,0c9,0,10.1-1.2,9.9-10.2c0-0.5-0.3-1-0.3-1.5c0-4.8-2.3-6.6-7.2-6.4
	c-10.3,0.3-20.6,0-30.9,0c-4.1,0-4.1-1.5-4.1-2.3c-0.2-8.9-0.2-17.7-0.2-27c0-2.7,2.2-4.9,4.9-4.9h1.3c12.6,0,25.1-0.2,37.7,0.1
	c5,0.1,7.5-1.3,7-6.9c-0.1-1.5-0.1-3,0-4.5c0.6-5.6-2-6.9-7.1-6.8c-19.9,0.3-39.8,0.1-59.7,0.1c-0.2,0-0.4,0-0.6,0
	c-2.7,0.1-4.8,2.3-4.8,4.9v114.8c0,2.7,2.2,4.9,4.9,4.9h0.7c20.3,0,40.5-0.2,60.8,0.1c5.5,0.1,7.8-1.9,7.7-7.1
	c0-1.7-0.1-3.5-0.1-5.2C899.6-1795.5,897.7-1797.4,893.1-1797.2z"/>
<path class="st0" d="M627.8-1798.3c-12.7,0.3-25.5-0.1-38.2,0.2c-4.7,0.1-5.9-1.4-5.9-5.9c0.2-28.6,0.1-57.3,0.1-85.9
	c0-14-1-14.8-15.1-13.5c-0.2,0-0.3,0-0.5,0c-4.5,0.1-6.3,1.9-6.2,6.8c0.3,18.7,0.1,37.4,0.1,56c0,18.9,0,37.7,0,56.6
	c0,2.7-0.4,5.2,3.8,5.1c21.5-0.1,43,0,64.4-0.2c1.5,0,3.8-2.2,4.3-3.7c0.8-2.7,0.6-5.8,0.6-8.8
	C635.3-1796.7,633-1798.5,627.8-1798.3z"/>
<path class="st0" d="M680.4-1889.8c0-14.1-1.6-15.4-15.9-13.8c-4.6,0.5-6,2.4-6,7.1c0.3,18.5,0.1,37,0.1,55.5c0,16.2,0,32.4,0,48.7
	c0,13.6,1,14.5,14.8,13.3c0.2,0,0.3,0,0.5,0c4.6-0.2,6.5-2,6.5-7.1C680.3-1820.7,680.4-1855.3,680.4-1889.8z"/>
<g>
	<path class="st3" d="M582.9-1713.5h-14.5l-2.1,4.7H561l14.5-31.4h0.3l14.5,31.4H585L582.9-1713.5z M581-1717.7l-5.4-12l-5.4,12H581
		z"/>
	<path class="st3" d="M590.9-1714.3l3.8-2.7c1.4,2.4,3.9,3.8,6.9,3.8c3.5,0,6.1-1.7,6.1-4c0-2.8-4-4.6-7.6-6.1
		c-3.6-1.6-7.6-3.5-7.6-8.3c0-5,4.4-8.5,9.9-8.5c4.4,0,7.7,2.1,8.9,5.5l-3.6,2.5c-1-2.1-3.1-3.2-5.3-3.2c-2.8,0-5.1,1.8-5.1,3.9
		c0,2.4,2.8,3.3,6.6,4.9c4.9,2.1,8.6,4.5,8.6,9.3c0,5.5-4.7,9-11,9C596.5-1708.4,592.7-1710.7,590.9-1714.3z"/>
	<path class="st3" d="M621.5-1734.9v7.9h11.6v4.8h-11.6v8.5H635v4.8h-18.3v-30.7H635v4.7H621.5z"/>
	<path class="st3" d="M638.2-1714.3l3.8-2.7c1.4,2.4,3.9,3.8,6.9,3.8c3.4,0,6.1-1.7,6.1-4c0-2.8-4-4.6-7.6-6.1
		c-3.6-1.6-7.6-3.5-7.6-8.3c0-5,4.4-8.5,9.9-8.5c4.4,0,7.7,2.1,8.9,5.5l-3.6,2.5c-1-2.1-3.1-3.2-5.3-3.2c-2.8,0-5.1,1.8-5.1,3.9
		c0,2.4,2.8,3.3,6.6,4.9c4.9,2.1,8.6,4.5,8.6,9.3c0,5.5-4.7,9-11,9C643.8-1708.4,640-1710.7,638.2-1714.3z"/>
	<path class="st3" d="M662.5-1724.2c0-8.8,7.1-15.9,15.9-15.9c8.7,0,15.9,7.2,15.9,15.9c0,8.7-7.2,15.8-15.9,15.8
		C669.6-1708.4,662.5-1715.5,662.5-1724.2z M689.4-1724.2c0-6.1-5-11-11-11c-6.1,0-11,5-11,11c0,6,4.9,11,11,11
		C684.4-1713.3,689.4-1718.2,689.4-1724.2z"/>
	<path class="st3" d="M715.6-1708.9l-8.3-11.9h-3.8v11.9h-4.8l0-30.7h9.6c5.7,0,10.4,4.4,10.4,9.9c0,4-2.6,7.4-6.1,8.6l8.9,12.3
		H715.6z M708.4-1724.8c2.9,0,5.3-2.3,5.3-5.1c0-2.9-2.5-5-5.3-5h-4.8v10.1H708.4z"/>
	<path class="st3" d="M724.2-1742.1l3.8-6.2h4.3l-4.5,6.2H724.2z M724.8-1739.6h4.8v30.7h-4.8V-1739.6z"/>
	<path class="st3" d="M754.9-1713.5h-14.5l-2.1,4.7H733l14.5-31.4h0.3l14.5,31.4H757L754.9-1713.5z M753-1717.7l-5.4-12l-5.4,12H753
		z"/>
	<path class="st3" d="M765-1702.7c1.3,0,3.5-1.1,3.5-3.9c0-0.7-0.1-1-0.3-1.5c-1.3,0-2.9-1-2.9-3c0-1.8,1.4-3.4,3.4-3.4
		c1.9,0,3.6,1.6,3.6,4.9c0,4.2-2.3,7.7-5.5,7.7C765.6-1701.8,765-1702.4,765-1702.7z"/>
	<path class="st3" d="M787.4-1724.2c0-8.7,7.2-15.9,15.9-15.9c4,0.1,7.7,1.8,10.7,4.7l-2.8,3.8c-2.2-2.2-5-3.6-8-3.6
		c-5.6,0-10.9,4.9-10.9,11c0,6.2,5.4,11,10.9,11c3.1,0,5.9-1.6,8-3.7l2.8,3.9c-2.7,2.6-6,4.6-10.6,4.6
		C794.6-1708.4,787.4-1715.5,787.4-1724.2z"/>
	<path class="st3" d="M815-1724.2c0-8.8,7.1-15.9,15.9-15.9c8.7,0,15.9,7.2,15.9,15.9c0,8.7-7.2,15.8-15.9,15.8
		C822.1-1708.4,815-1715.5,815-1724.2z M841.9-1724.2c0-6.1-5-11-11-11c-6.1,0-11,5-11,11c0,6,4.9,11,11,11
		C836.9-1713.3,841.9-1718.2,841.9-1724.2z"/>
	<path class="st3" d="M875.9-1739.7v31.3h-0.2l-19.7-20.5v20h-4.8v-31.3h0.2l19.6,20.5v-20H875.9z"/>
	<path class="st3" d="M880.1-1714.3l3.8-2.7c1.4,2.4,3.9,3.8,6.9,3.8c3.5,0,6.1-1.7,6.1-4c0-2.8-4-4.6-7.6-6.1
		c-3.6-1.6-7.6-3.5-7.6-8.3c0-5,4.4-8.5,9.9-8.5c4.4,0,7.7,2.1,8.9,5.5l-3.6,2.5c-1-2.1-3.1-3.2-5.3-3.2c-2.8,0-5.1,1.8-5.1,3.9
		c0,2.4,2.8,3.3,6.6,4.9c4.9,2.1,8.6,4.5,8.6,9.3c0,5.5-4.7,9-11,9C885.7-1708.4,881.8-1710.7,880.1-1714.3z"/>
	<path class="st3" d="M905.5-1720.5v-19.1h4.8v19.1c0,4.3,3,7.4,6.8,7.4s6.8-3.1,6.8-7.4v-19.1h4.9v19.1c0,7.1-5.1,12.2-11.6,12.2
		S905.5-1713.5,905.5-1720.5z"/>
	<path class="st3" d="M952.9-1713.7v4.8h-18.5v-30.7h4.8v25.9H952.9z"/>
	<path class="st3" d="M970.3-1734.8h-8.2v26h-4.8v-26H949v-4.8h21.3V-1734.8z"/>
	<path class="st3" d="M971.2-1724.2c0-8.8,7.1-15.9,15.9-15.9c8.7,0,15.9,7.2,15.9,15.9c0,8.7-7.2,15.8-15.9,15.8
		C978.3-1708.4,971.2-1715.5,971.2-1724.2z M998.1-1724.2c0-6.1-5-11-11-11c-6.1,0-11,5-11,11c0,6,4.9,11,11,11
		C993.1-1713.3,998.1-1718.2,998.1-1724.2z"/>
	<path class="st3" d="M1024.3-1708.9l-8.3-11.9h-3.8v11.9h-4.8l0-30.7h9.6c5.7,0,10.4,4.4,10.4,9.9c0,4-2.6,7.4-6.1,8.6l8.9,12.3
		H1024.3z M1017.1-1724.8c2.9,0,5.3-2.3,5.3-5.1c0-2.9-2.5-5-5.3-5h-4.8v10.1H1017.1z"/>
	<path class="st3" d="M1032.9-1742.1l3.8-6.2h4.3l-4.5,6.2H1032.9z M1033.5-1739.6h4.8v30.7h-4.8V-1739.6z"/>
	<path class="st3" d="M1063.5-1713.5H1049l-2.1,4.7h-5.2l14.5-31.4h0.3l14.5,31.4h-5.2L1063.5-1713.5z M1061.7-1717.7l-5.4-12
		l-5.4,12H1061.7z"/>
	<path class="st3" d="M1111.3-1708.6c-2.1,0-4.9-1.3-7.9-3.2c-2.3,2.3-5.3,3.5-8.7,3.5c-7,0-10.5-5.1-10.5-9.6
		c0-3.7,2.5-7.3,5.2-8.9c-1.2-2.2-1.9-4.2-1.9-5.9c0-3.8,3.5-7.7,8.1-7.7c4.2,0,7.4,3.2,8,6.9l-4.7,0.9c-0.2-1.9-1.8-3.3-3.5-3.3
		c-1.8,0-3.2,1.5-3.2,3.5c0,3.6,4.8,9.7,9.8,14.1c0.7-1.7,1.2-3.7,1.3-5.9l4.5-0.1c-0.1,3.5-0.8,6.5-2,8.9c2.1,1.4,4,2.3,5.4,2.3
		L1111.3-1708.6z M1099.6-1714.8c-2.9-2.5-5.7-5.4-7.9-8.4c-1.8,1.3-2.9,3-2.9,5c0,2.9,2,5.2,5.7,5.2
		C1096.5-1713,1098.2-1713.6,1099.6-1714.8z"/>
	<path class="st3" d="M1125.2-1724.2c0-8.7,7.2-15.9,15.9-15.9c4,0.1,7.7,1.8,10.7,4.7l-2.8,3.8c-2.2-2.2-5-3.6-8-3.6
		c-5.6,0-10.9,4.9-10.9,11c0,6.2,5.4,11,10.9,11c3.1,0,5.9-1.6,8-3.7l2.8,3.9c-2.7,2.6-6,4.6-10.6,4.6
		C1132.4-1708.4,1125.2-1715.5,1125.2-1724.2z"/>
	<path class="st3" d="M1174.9-1713.5h-14.6l-2.1,4.7h-5.2l14.5-31.4h0.3l14.5,31.4h-5.2L1174.9-1713.5z M1173-1717.7l-5.4-12
		l-5.4,12H1173z"/>
	<path class="st3" d="M1185.6-1739.6h10.3c5.9,0,10.8,4.6,10.8,10.1c0,5.5-4.9,9.9-10.8,9.9h-5.5v10.7h-4.8V-1739.6z M1201.9-1729.5
		c0-2.9-2.7-5.3-6-5.3h-5.5v10.5l5.5,0C1199.2-1724.3,1201.9-1726.6,1201.9-1729.5z"/>
	<path class="st3" d="M1224.2-1713.5h-14.6l-2.1,4.7h-5.2l14.5-31.4h0.3l14.5,31.4h-5.2L1224.2-1713.5z M1222.3-1717.7l-5.4-12
		l-5.4,12H1222.3z"/>
	<path class="st3" d="M1230.6-1724.2c0-8.7,7.2-15.9,15.9-15.9c4,0.1,7.7,1.8,10.7,4.7l-2.8,3.8c-2.2-2.2-5-3.6-8-3.6
		c-5.6,0-10.9,4.9-10.9,11c0,6.2,5.4,11,10.9,11c3.1,0,5.9-1.6,8-3.7l2.8,3.9c-2.7,2.6-6,4.6-10.6,4.6
		C1237.8-1708.4,1230.6-1715.5,1230.6-1724.2z"/>
	<path class="st3" d="M1261-1739.6h4.8v30.7h-4.8V-1739.6z"/>
	<path class="st3" d="M1291-1734.8h-8.2v26h-4.8v-26h-8.2v-4.8h21.3V-1734.8z"/>
	<path class="st3" d="M1310.4-1713.5h-14.6l-2.1,4.7h-5.2l14.5-31.4h0.3l14.5,31.4h-5.2L1310.4-1713.5z M1308.5-1717.7l-5.4-12
		l-5.4,12H1308.5z"/>
	<path class="st3" d="M1316.8-1724.2c0-8.7,7.2-15.9,15.9-15.9c4,0.1,7.7,1.8,10.7,4.7l-2.8,3.8c-2.2-2.2-5-3.6-8-3.6
		c-5.6,0-10.9,4.9-10.9,11c0,6.2,5.4,11,10.9,11c3.1,0,5.9-1.6,8-3.7l2.8,3.9c-2.7,2.6-6,4.6-10.6,4.6
		C1324-1708.4,1316.8-1715.5,1316.8-1724.2z"/>
	<path class="st3" d="M1347.2-1739.6h4.8v30.7h-4.8V-1739.6z"/>
	<path class="st3" d="M1356.4-1724.2c0-8.8,7.1-15.9,15.9-15.9c8.7,0,15.9,7.2,15.9,15.9c0,8.7-7.2,15.8-15.9,15.8
		C1363.6-1708.4,1356.4-1715.5,1356.4-1724.2z M1383.3-1724.2c0-6.1-5-11-11-11c-6.1,0-11,5-11,11c0,6,4.9,11,11,11
		C1378.4-1713.3,1383.3-1718.2,1383.3-1724.2z M1369.4-1742.1l3.8-6.2h4.3l-4.5,6.2H1369.4z"/>
	<path class="st3" d="M1417.4-1739.7v31.3h-0.2l-19.7-20.5v20h-4.8v-31.3h0.2l19.6,20.5v-20H1417.4z"/>
</g>
<g>
	<path class="st0" d="M1395.1-1842.7c18.5,11.2,20.7,24.7,16,43.3c-3.5,14-15.2,19-28.4,19.8c-13.8,0.7-27.6,0.1-41.4,0.3
		c-5.9,0.1-6.8-3.5-6.8-8c-0.1-11.5-0.1-23.1-0.1-34.6c0-23.6,0.2-47.2-0.1-70.8c-0.1-7.6,2.1-11.2,10.3-10.7
		c12.1,0.7,24.3-0.5,36.4,0.7c13.3,1.4,23.4,7,26.8,20.6c3.4,13.7,2.5,26.8-9.5,36.8C1397.4-1844.6,1396.6-1843.9,1395.1-1842.7z
		 M1342.9-1814.6c0,7.7,0.1,14,0,20.3c-0.2,5,1.5,7.8,7,7.6c10.7-0.2,21.5,0.2,32.2-0.4c14.3-0.8,22.4-9.3,22.9-23.1
		c0.7-16.2-5.9-24.8-21.1-27.2c-5.1-0.8-10.4-1.3-15.6-1.2c-7.9,0.2-17.8-3.4-23.2,1.6C1339.2-1831.5,1344-1821.3,1342.9-1814.6z
		 M1363.8-1844.8c5.9,0.2,13.7,0.2,21.2-1.8c10.8-2.9,16.9-12,16.5-24.6c-0.4-13-6.5-21.1-17.7-23.5c-11.7-2.5-23.6-1.2-35.5-1.4
		c-4.6-0.1-5.4,2.8-5.4,6.5c0,8.5,0,17,0,25.5C1342.9-1844.8,1342.9-1844.8,1363.8-1844.8z"/>
	<path class="st0" d="M1267.3-1815.9c-6.9,0-13.8,0.3-20.7-0.1c-5.8-0.3-9.2,1.7-11.1,7.3c-2.8,8-6.2,15.8-9.4,23.7
		c-1.3,3.1-3,6.8-7.1,5c-4.2-1.9-1.1-5.3-0.1-7.8c14.2-36,28.4-72,42.7-107.9c1.3-3.2,1.9-7.5,6.6-7.2c4.2,0.3,4.6,4.4,5.7,7.3
		c14.3,35.7,28.5,71.3,42.6,107.1c1,2.6,4.5,6.4-0.2,8.4c-4.6,2-6-2.4-7.4-5.7c-3.2-7.6-6.5-15.2-9.1-22.9
		c-1.9-5.6-5.3-7.6-11.1-7.3C1281.7-1815.6,1274.5-1815.9,1267.3-1815.9z M1268.9-1886.7c-0.7,0-1.5,0-2.2,0
		c-7.8,19.5-15.6,39-23.4,58.6c-1.5,3.9,0.5,4.8,4,4.8c13.5-0.1,27-0.1,40.5,0c4,0,5.8-1.2,4.1-5.4
		C1284.1-1848,1276.5-1867.4,1268.9-1886.7z"/>
	<path class="st0" d="M1141.8-1841.6c0-17.8-0.1-35.6,0.1-53.4c0-3-1.2-7.5,4.1-7.2c4.5,0.2,3.4,4.3,3.4,7.1
		c0.1,32.9,0.3,65.7-0.1,98.6c-0.1,7.6,2.2,10.1,9.8,9.8c12.9-0.5,25.9-0.2,38.8-0.1c3.1,0,7.6-0.8,7.2,4.2
		c-0.3,4.3-4.6,3.1-7.3,3.1c-16,0.1-31.9-0.1-47.9,0.2c-6,0.1-8.3-2.1-8.2-8.1C1142-1805.5,1141.8-1823.6,1141.8-1841.6z"/>
</g>
<path class="st3" d="M1141-1971.5"/>
<g>
	<path class="st1" d="M708.4,121.1c8.4-8.4,18.1-15.6,28.4-21.3c-9.8,6.5-18.6,14.4-26.2,23.4c-7.6,8.9-13.9,18.7-19.3,29
		c-1.3,2.4-2.5,4.9-3.6,7.4c0.5,0.6,1,1.1,1.5,1.6c3.5,3.5,12,7.5,22,7.5c10.1,0,21.9-4,32.1-16.6c18.5-23,20.7-63,43.9-82.6
		c0,0-3.6-0.3-9.5-0.3c-17.1,0-53.6,2.4-77.7,21.5c-17,13.4-32.4,39.7-16.9,63.1c0.9-1.6,1.9-3.1,2.8-4.7
		C692.5,139,699.9,129.5,708.4,121.1z"/>
	<g>
		<path class="st1" d="M708.4,121.1c8.4-8.4,18.1-15.6,28.4-21.3c-9.8,6.5-18.6,14.4-26.2,23.4c-7.6,8.9-13.9,18.7-19.3,29
			c-1.3,2.4-2.5,4.9-3.6,7.4c0.5,0.6,1,1.1,1.5,1.6c3.5,3.5,12,7.5,22,7.5c10.1,0,21.9-4,32.1-16.6c18.5-23,20.7-63,43.9-82.6
			c0,0-3.6-0.3-9.5-0.3c-17.1,0-53.6,2.4-77.7,21.5c-17,13.4-32.4,39.7-16.9,63.1c0.9-1.6,1.9-3.1,2.8-4.7
			C692.5,139,699.9,129.5,708.4,121.1z"/>
		<g>
			<path class="st1" d="M744.4,142c1.2,1.2,2.4,2.5,3.5,3.8c14.6-23.5,18.3-58.3,39.5-76.2c0,0-3.6-0.3-9.5-0.3
				c-17.1,0-53.6,2.4-77.7,21.5c-6.2,4.9-12.2,11.5-16.5,19.1c8.3,1.5,16.4,3.8,24.2,7.1C721.5,122.8,734.1,131.3,744.4,142z"/>
			<path class="st4" d="M664.2,108.1c-14.9,0.1-29.9,3-43.6,8.9c-13.7,5.9-26.3,14.4-36.6,25.1c-10.3,10.7-18.5,23.4-23.7,37.1
				c-5.2,13.8-7.7,28.5-7.1,43.1c1.1-29.1,13.7-57,34.2-76.8c20.4-19.8,48.5-31.3,76.8-31.1c3.4,0,6.8,0.1,10.2,0.5
				c0.8-2,1.7-3.9,2.7-5.8C672.8,108.4,668.5,108.1,664.2,108.1z"/>
			<path class="st4" d="M775.2,222.2c0.7-14.5-1.9-29.3-7.1-43.1c-3.9-10.2-9.4-19.7-16.1-28.4c-0.8,1.3-1.7,2.5-2.7,3.8
				C764.8,173.3,774.2,197.3,775.2,222.2z"/>
		</g>
	</g>
</g>
<path class="st3" d="M787.8,63.4c-0.2,0-3.9-0.3-10-0.3c-19.6,0-56.4,3-81.5,22.8c-6.9,5.4-14.2,13.5-19.2,23
	c-1,1.9-1.9,3.8-2.7,5.8c-2,5-3.3,10.2-3.7,15.7c-0.6,10.5,2.5,20.5,9.1,29.3c1.1-2,2.2-4,3.4-5.9c-8.4-12.8-7.7-26.4-2.5-38.3
	c0.8-1.9,1.8-3.8,2.9-5.7c4.4-7.6,10.3-14.2,16.5-19.1c24.1-19.1,60.6-21.5,77.7-21.5c5.9,0,9.5,0.3,9.5,0.3
	c-21.2,17.9-24.9,52.8-39.5,76.2c-0.9,1.4-1.7,2.7-2.7,4c-0.6,0.8-1.2,1.6-1.8,2.4c-10.1,12.6-21.9,16.6-32.1,16.6
	c-8.6,0-16-2.9-20.2-6c0.7-1.6,1.4-3.2,2.2-4.8c2.5-5.3,5.4-10.5,8.5-15.4c1.5-2.5,3.2-4.9,4.9-7.4c1.8-2.4,3.5-4.8,5.4-7
	c7.4-9.2,16.1-17.4,25.8-24.2c-10,6.3-19.3,14-27.2,23c-2.1,2.2-3.9,4.5-5.8,6.8c-1.8,2.4-3.7,4.7-5.3,7.2c-3.5,4.9-6.6,10-9.5,15.3
	c-0.7,1.2-1.3,2.4-1.9,3.7c-0.1-0.1-2.1,3.8-3,5.9c0,0,0,0,0,0c-3.7,7.6-6.8,15.5-9.5,23.5c-1.9,5.7-3.6,11.5-5.1,17.3
	c-1.5,5.9-2.7,11.7-3.5,17.9l-0.5,3.8l7.9,0.7l0.3-3.9c1-11.3,3.3-23,6.4-34.3c2.1-7.6,4.7-15,7.6-22.3c5.3,3.5,13.4,6.4,22.6,6.4
	c9.9,0,24.3-3.3,36.9-19c0.4-0.5,0.7-1,1.1-1.5c0.9-1.2,1.8-2.5,2.7-3.8c6.6-10,11.1-22,15.4-33.6c6.3-16.9,12.2-32.9,23.9-42.8
	l11.5-9.7L787.8,63.4z"/>
<path class="st0" d="M310.7,234.2c-18.4-2.9-37.4-2.2-56.6-3.1c0,42.8,0,83.9,0,125.1c16.6,0,32.9,1.1,49-0.3
	c21.3-1.8,34.9-14,40-35.2c4.3-18,4.3-35.8-0.3-53.8C338.3,249.7,328.1,236.9,310.7,234.2z M319,320.3
	c-3.6,11.9-12.2,17.7-24.6,18.1c-4.9,0.1-9.8-0.1-14.7,0.1c-3.4,0.2-4.5-1.1-4.5-4.5c0.1-13.3,0.1-26.5,0.1-39.8
	c0-9.7,0.1-19.4,0-29c0-3.2,0-6.5-0.1-9.7c-0.1-3.9,0.8-5.8,5.2-5.4c4.5,0.4,9.1,0,13.6,0.1c12.7,0.3,21.4,6.1,25,18.2
	C324.2,285.5,324.2,303.1,319,320.3z"/>
<path class="st0" d="M529.8,306.6c-1.3-2.2-1.4-3.6,1.4-4.8c12.8-5.4,19.1-15.8,20.6-29.1c1.9-16.8-6.7-33.6-23.5-38.5
	c-6.2-1.8-13-2.5-19.5-2.7c-13.7-0.4-27.5-0.1-42-0.1c0,3,0,5,0,7.1c0,34.5,0,69.1,0,103.6c0,14,2.3,15.9,16.4,13.6
	c0.2,0,0.3-0.1,0.5-0.1c3.7-0.1,5-1.9,4.9-5.7c-0.2-12.9-0.1-25.8-0.1-38.7c0-1.8,0.2-3.7,0.3-5.8c4.3,0,8-0.2,11.6,0.1
	c1.5,0.1,3.4,1.2,4.1,2.4c6.9,11.5,13.5,23.1,20.4,34.5c2.4,4,4.4,9.3,8,11.2c7.6,3.9,16.1,3.2,25.1,0.4
	c-5.1-8.6-9.9-16.6-14.7-24.7C538.9,321.8,534.4,314.2,529.8,306.6z M512.9,287c-7.8,0.7-15.6,0.1-24.3,0.1c0-12.1-0.1-23.5,0.1-35
	c0-0.9,1.9-2.6,2.9-2.6c7.1-0.1,14.3-0.4,21.4,0.3c10.4,1.1,15.5,7.7,15.4,18.8C528.3,279.1,522.8,286.2,512.9,287z"/>
<path class="st0" d="M639.1,247.5c-5.6-16.6-5.5-16.6-23-15.9c-1.4,0.1-2.8,0.3-4.2,0.5c-3.3,0.4-5.1,1.9-6.3,5.3
	c-4.7,14-9.7,27.9-14.5,41.8c-7.4,21.6-14.5,43.2-22.2,64.7c-4.5,12.5-4.1,12.2,9.1,12.4c0.7,0,1.4-0.1,2.1-0.1
	c4.3-0.2,6.9-2.1,8.1-6.6c1.8-6.4,4.5-12.4,6.4-18.8c0.9-3.1,2.7-3.5,5.4-3.5c6.5,0.1,12.9,0,19.4,0c6.3,0,12.6,0.2,18.9-0.1
	c3.8-0.2,5.7,1.2,6.7,4.9c1.4,5,3.3,9.8,4.9,14.8c2.6,8.1,4,9.2,12.7,9.3c2.8,0,5.6-0.3,8.3-0.5c4.1-0.3,4.7-2.3,3.4-6.1
	C662.5,315.7,650.7,281.6,639.1,247.5z M602.5,308.8c5.7-17.3,11.3-34.5,17.2-52.5c5.9,17.9,11.4,34.9,17.2,52.5
	C625.3,308.8,614.3,308.8,602.5,308.8z"/>
<path class="st0" d="M438,338c-8.9,0.3-17.8,0.1-26.7,0.1c-4.6,0-9.3,0-14,0c-2.7,0-4.9-2.2-4.9-4.9v-26.3c0-2.7,2.2-4.9,4.9-4.9
	c9.3,0,18.4,0,27.4,0c9,0,10.1-1.2,9.9-10.2c0-0.5-0.3-1-0.3-1.5c0-4.8-2.3-6.6-7.2-6.4c-10.3,0.3-20.6,0-30.9,0
	c-4.1,0-4.1-1.5-4.1-2.3c-0.2-8.9-0.2-17.7-0.2-27c0-2.7,2.2-4.9,4.9-4.9h1.3c12.6,0,25.1-0.2,37.7,0.1c5,0.1,7.5-1.3,7-6.9
	c-0.1-1.5-0.1-3,0-4.5c0.6-5.6-2-6.9-7.1-6.8c-19.9,0.3-39.8,0.1-59.7,0.1c-0.2,0-0.4,0-0.6,0c-2.7,0.1-4.8,2.3-4.8,4.9v114.8
	c0,2.7,2.2,4.9,4.9,4.9h0.7c20.3,0,40.5-0.2,60.8,0.1c5.5,0.1,7.8-1.9,7.7-7.1c0-1.7-0.1-3.5-0.1-5.2
	C444.5,339.7,442.6,337.9,438,338z"/>
<path class="st0" d="M172.7,336.9c-12.7,0.3-25.5-0.1-38.2,0.2c-4.7,0.1-5.9-1.4-5.9-5.9c0.2-28.6,0.1-57.3,0.1-85.9
	c0-14-1-14.8-15.1-13.5c-0.2,0-0.3,0-0.5,0c-4.5,0.1-6.3,1.9-6.2,6.8c0.3,18.7,0.1,37.4,0.1,56c0,18.9,0,37.7,0,56.6
	c0,2.7-0.4,5.2,3.8,5.1c21.5-0.1,43,0,64.4-0.2c1.5,0,3.8-2.2,4.3-3.7c0.8-2.7,0.6-5.8,0.6-8.8C180.2,338.6,177.9,336.8,172.7,336.9
	z"/>
<path class="st0" d="M225.3,245.4c0-14.1-1.6-15.4-15.9-13.8c-4.6,0.5-6,2.4-6,7.1c0.3,18.5,0.1,37,0.1,55.5c0,16.2,0,32.4,0,48.7
	c0,13.6,1,14.5,14.8,13.3c0.2,0,0.3,0,0.5,0c4.6-0.2,6.5-2,6.5-7.1C225.2,314.5,225.3,280,225.3,245.4z"/>
<g>
	<path class="st3" d="M127.8,421.7h-14.6l-2.1,4.7h-5.2l14.5-31.4h0.3l14.5,31.4h-5.2L127.8,421.7z M125.9,417.5l-5.4-12l-5.4,12
		H125.9z"/>
	<path class="st3" d="M135.8,421l3.8-2.7c1.4,2.4,3.9,3.8,6.9,3.8c3.5,0,6.1-1.7,6.1-4c0-2.8-4-4.6-7.6-6.1
		c-3.6-1.6-7.6-3.5-7.6-8.3c0-5,4.4-8.5,9.9-8.5c4.4,0,7.7,2.1,8.9,5.5l-3.6,2.5c-1-2.1-3.1-3.2-5.3-3.2c-2.8,0-5.1,1.8-5.1,3.9
		c0,2.4,2.8,3.3,6.6,4.9c4.9,2.1,8.6,4.5,8.6,9.3c0,5.5-4.7,9-11,9C141.4,426.9,137.6,424.5,135.8,421z"/>
	<path class="st3" d="M166.4,400.4v7.9H178v4.8h-11.6v8.5h13.5v4.8h-18.3v-30.7h18.3v4.7H166.4z"/>
	<path class="st3" d="M183.1,421l3.8-2.7c1.4,2.4,3.9,3.8,6.9,3.8c3.4,0,6.1-1.7,6.1-4c0-2.8-4-4.6-7.6-6.1
		c-3.6-1.6-7.6-3.5-7.6-8.3c0-5,4.4-8.5,9.9-8.5c4.4,0,7.7,2.1,8.9,5.5l-3.6,2.5c-1-2.1-3.1-3.2-5.3-3.2c-2.8,0-5.1,1.8-5.1,3.9
		c0,2.4,2.8,3.3,6.6,4.9c4.9,2.1,8.6,4.5,8.6,9.3c0,5.5-4.7,9-11,9C188.7,426.9,184.9,424.5,183.1,421z"/>
	<path class="st3" d="M207.4,411c0-8.8,7.1-15.9,15.9-15.9c8.7,0,15.9,7.2,15.9,15.9c0,8.7-7.2,15.8-15.9,15.8
		C214.5,426.9,207.4,419.7,207.4,411z M234.3,411c0-6.1-5-11-11-11c-6.1,0-11,5-11,11c0,6,4.9,11,11,11
		C229.3,422,234.3,417,234.3,411z"/>
	<path class="st3" d="M260.5,426.4l-8.3-11.9h-3.8v11.9h-4.8l0-30.7h9.6c5.7,0,10.4,4.4,10.4,9.9c0,4-2.6,7.4-6.1,8.6l8.9,12.3
		H260.5z M253.3,410.5c2.9,0,5.3-2.3,5.3-5.1c0-2.9-2.5-5-5.3-5h-4.8v10.1H253.3z"/>
	<path class="st3" d="M269.1,393.1l3.8-6.2h4.3l-4.5,6.2H269.1z M269.7,395.6h4.8v30.7h-4.8V395.6z"/>
	<path class="st3" d="M299.8,421.7h-14.5l-2.1,4.7h-5.2l14.5-31.4h0.3l14.5,31.4h-5.2L299.8,421.7z M297.9,417.5l-5.4-12l-5.4,12
		H297.9z"/>
	<path class="st3" d="M309.9,432.5c1.3,0,3.5-1.1,3.5-3.9c0-0.7-0.1-1-0.3-1.5c-1.3,0-2.9-1-2.9-3c0-1.8,1.4-3.4,3.4-3.4
		c1.9,0,3.6,1.6,3.6,4.9c0,4.2-2.3,7.7-5.5,7.7C310.5,433.4,309.9,432.8,309.9,432.5z"/>
	<path class="st3" d="M332.3,411c0-8.7,7.2-15.9,15.9-15.9c4,0.1,7.7,1.8,10.7,4.7l-2.8,3.8c-2.2-2.2-5-3.6-8-3.6
		c-5.6,0-10.9,4.9-10.9,11c0,6.2,5.4,11,10.9,11c3.1,0,5.9-1.6,8-3.7l2.8,3.9c-2.7,2.6-6,4.6-10.6,4.6
		C339.5,426.9,332.3,419.7,332.3,411z"/>
	<path class="st3" d="M359.9,411c0-8.8,7.1-15.9,15.9-15.9c8.7,0,15.9,7.2,15.9,15.9c0,8.7-7.2,15.8-15.9,15.8
		C367,426.9,359.9,419.7,359.9,411z M386.8,411c0-6.1-5-11-11-11c-6.1,0-11,5-11,11c0,6,4.9,11,11,11C381.8,422,386.8,417,386.8,411
		z"/>
	<path class="st3" d="M420.8,395.5v31.3h-0.2l-19.7-20.5v20h-4.8v-31.3h0.2l19.6,20.5v-20H420.8z"/>
	<path class="st3" d="M425,421l3.8-2.7c1.4,2.4,3.9,3.8,6.9,3.8c3.5,0,6.1-1.7,6.1-4c0-2.8-4-4.6-7.6-6.1c-3.6-1.6-7.6-3.5-7.6-8.3
		c0-5,4.4-8.5,9.9-8.5c4.4,0,7.7,2.1,8.9,5.5l-3.6,2.5c-1-2.1-3.1-3.2-5.3-3.2c-2.8,0-5.1,1.8-5.1,3.9c0,2.4,2.8,3.3,6.6,4.9
		c4.9,2.1,8.6,4.5,8.6,9.3c0,5.5-4.7,9-11,9C430.6,426.9,426.7,424.5,425,421z"/>
	<path class="st3" d="M450.4,414.7v-19.1h4.8v19.1c0,4.3,3,7.4,6.8,7.4c3.8,0,6.8-3.1,6.8-7.4v-19.1h4.9v19.1
		c0,7.1-5.1,12.2-11.6,12.2C455.5,426.9,450.4,421.8,450.4,414.7z"/>
	<path class="st3" d="M497.8,421.6v4.8h-18.5v-30.7h4.8v25.9H497.8z"/>
	<path class="st3" d="M515.2,400.4H507v26h-4.8v-26h-8.2v-4.8h21.3V400.4z"/>
	<path class="st3" d="M516.1,411c0-8.8,7.1-15.9,15.9-15.9c8.7,0,15.9,7.2,15.9,15.9c0,8.7-7.2,15.8-15.9,15.8
		C523.2,426.9,516.1,419.7,516.1,411z M543,411c0-6.1-5-11-11-11c-6.1,0-11,5-11,11c0,6,4.9,11,11,11C538,422,543,417,543,411z"/>
	<path class="st3" d="M569.2,426.4l-8.3-11.9h-3.8v11.9h-4.8l0-30.7h9.6c5.7,0,10.4,4.4,10.4,9.9c0,4-2.6,7.4-6.1,8.6l8.9,12.3
		H569.2z M561.9,410.5c2.9,0,5.3-2.3,5.3-5.1c0-2.9-2.5-5-5.3-5h-4.8v10.1H561.9z"/>
	<path class="st3" d="M577.8,393.1l3.8-6.2h4.3l-4.5,6.2H577.8z M578.4,395.6h4.8v30.7h-4.8V395.6z"/>
	<path class="st3" d="M608.4,421.7h-14.6l-2.1,4.7h-5.2L601,395h0.3l14.5,31.4h-5.2L608.4,421.7z M606.6,417.5l-5.4-12l-5.4,12
		H606.6z"/>
	<path class="st3" d="M656.2,426.6c-2.1,0-4.9-1.3-7.9-3.2c-2.3,2.3-5.3,3.5-8.7,3.5c-7,0-10.5-5.1-10.5-9.6c0-3.7,2.5-7.3,5.2-8.9
		c-1.2-2.2-1.9-4.2-1.9-5.9c0-3.8,3.5-7.7,8.1-7.7c4.2,0,7.4,3.2,8,6.9l-4.7,0.9c-0.2-1.9-1.8-3.3-3.5-3.3c-1.8,0-3.2,1.5-3.2,3.5
		c0,3.6,4.8,9.7,9.8,14.1c0.7-1.7,1.2-3.7,1.3-5.9l4.5-0.1c-0.1,3.5-0.8,6.5-2,8.9c2.1,1.4,4,2.3,5.4,2.3L656.2,426.6z M644.5,420.4
		c-2.9-2.5-5.7-5.4-7.9-8.4c-1.8,1.3-2.9,3-2.9,5c0,2.9,2,5.2,5.7,5.2C641.4,422.2,643.1,421.6,644.5,420.4z"/>
	<path class="st3" d="M670.1,411c0-8.7,7.2-15.9,15.9-15.9c4,0.1,7.7,1.8,10.7,4.7l-2.8,3.8c-2.2-2.2-5-3.6-8-3.6
		c-5.6,0-10.9,4.9-10.9,11c0,6.2,5.4,11,10.9,11c3.1,0,5.9-1.6,8-3.7l2.8,3.9c-2.7,2.6-6,4.6-10.6,4.6
		C677.3,426.9,670.1,419.7,670.1,411z"/>
	<path class="st3" d="M719.8,421.7h-14.6l-2.1,4.7h-5.2l14.5-31.4h0.3l14.5,31.4h-5.2L719.8,421.7z M717.9,417.5l-5.4-12l-5.4,12
		H717.9z"/>
	<path class="st3" d="M730.5,395.6h10.3c5.9,0,10.8,4.6,10.8,10.1c0,5.5-4.9,9.9-10.8,9.9h-5.5v10.7h-4.8V395.6z M746.8,405.7
		c0-2.9-2.7-5.3-6-5.3h-5.5v10.5l5.5,0C744.1,410.9,746.8,408.6,746.8,405.7z"/>
	<path class="st3" d="M769.1,421.7h-14.5l-2.1,4.7h-5.2l14.5-31.4h0.3l14.5,31.4h-5.2L769.1,421.7z M767.2,417.5l-5.4-12l-5.4,12
		H767.2z"/>
	<path class="st3" d="M775.5,411c0-8.7,7.2-15.9,15.9-15.9c4,0.1,7.7,1.8,10.7,4.7l-2.8,3.8c-2.2-2.2-5-3.6-8-3.6
		c-5.6,0-10.9,4.9-10.9,11c0,6.2,5.4,11,10.9,11c3.1,0,5.9-1.6,8-3.7l2.8,3.9c-2.7,2.6-6,4.6-10.6,4.6
		C782.7,426.9,775.5,419.7,775.5,411z"/>
	<path class="st3" d="M805.9,395.6h4.8v30.7h-4.8V395.6z"/>
	<path class="st3" d="M835.9,400.4h-8.2v26h-4.8v-26h-8.2v-4.8h21.3V400.4z"/>
	<path class="st3" d="M855.3,421.7h-14.5l-2.1,4.7h-5.2l14.5-31.4h0.3l14.5,31.4h-5.2L855.3,421.7z M853.4,417.5l-5.4-12l-5.4,12
		H853.4z"/>
	<path class="st3" d="M861.7,411c0-8.7,7.2-15.9,15.9-15.9c4,0.1,7.7,1.8,10.7,4.7l-2.8,3.8c-2.2-2.2-5-3.6-8-3.6
		c-5.6,0-10.9,4.9-10.9,11c0,6.2,5.4,11,10.9,11c3.1,0,5.9-1.6,8-3.7l2.8,3.9c-2.7,2.6-6,4.6-10.6,4.6
		C868.9,426.9,861.7,419.7,861.7,411z"/>
	<path class="st3" d="M892.1,395.6h4.8v30.7h-4.8V395.6z"/>
	<path class="st3" d="M901.3,411c0-8.8,7.1-15.9,15.9-15.9c8.7,0,15.9,7.2,15.9,15.9c0,8.7-7.2,15.8-15.9,15.8
		C908.5,426.9,901.3,419.7,901.3,411z M928.2,411c0-6.1-5-11-11-11c-6.1,0-11,5-11,11c0,6,4.9,11,11,11
		C923.3,422,928.2,417,928.2,411z M914.3,393.1l3.8-6.2h4.3l-4.5,6.2H914.3z"/>
	<path class="st3" d="M962.3,395.5v31.3H962l-19.7-20.5v20h-4.8v-31.3h0.2l19.6,20.5v-20H962.3z"/>
</g>
<g>
	<path class="st0" d="M940,292.5c18.5,11.2,20.7,24.7,16,43.3c-3.5,14-15.2,19-28.4,19.8c-13.8,0.7-27.6,0.1-41.4,0.3
		c-5.9,0.1-6.8-3.5-6.8-8c-0.1-11.5-0.1-23.1-0.1-34.6c0-23.6,0.2-47.2-0.1-70.8c-0.1-7.6,2.1-11.2,10.3-10.7
		c12.1,0.7,24.3-0.5,36.4,0.7c13.3,1.4,23.4,7,26.8,20.6c3.4,13.7,2.5,26.8-9.5,36.8C942.3,290.6,941.5,291.3,940,292.5z
		 M887.8,320.6c0,7.7,0.1,14,0,20.3c-0.2,5,1.5,7.8,7,7.6c10.7-0.2,21.5,0.2,32.2-0.4c14.3-0.8,22.4-9.3,22.9-23.1
		c0.7-16.2-5.9-24.8-21.1-27.2c-5.1-0.8-10.4-1.3-15.6-1.2c-7.9,0.2-17.8-3.4-23.2,1.6C884.1,303.8,888.9,314,887.8,320.6z
		 M908.7,290.4c5.9,0.2,13.7,0.2,21.2-1.8c10.8-2.9,16.9-12,16.5-24.6c-0.4-13-6.5-21.1-17.7-23.5c-11.7-2.5-23.6-1.2-35.5-1.4
		c-4.6-0.1-5.4,2.8-5.4,6.5c0,8.5,0,17,0,25.5C887.8,290.4,887.8,290.4,908.7,290.4z"/>
	<path class="st0" d="M812.2,319.3c-6.9,0-13.8,0.3-20.7-0.1c-5.8-0.3-9.2,1.7-11.1,7.3c-2.8,8-6.2,15.8-9.4,23.7
		c-1.3,3.1-3,6.8-7.1,5c-4.2-1.9-1.1-5.3-0.1-7.8c14.2-36,28.4-72,42.7-107.9c1.3-3.2,1.9-7.5,6.6-7.2c4.2,0.3,4.6,4.4,5.7,7.3
		c14.3,35.7,28.5,71.3,42.6,107.1c1,2.6,4.5,6.4-0.2,8.4c-4.6,2-6-2.4-7.4-5.7c-3.2-7.6-6.5-15.2-9.1-22.9
		c-1.9-5.6-5.3-7.6-11.1-7.3C826.6,319.6,819.4,319.3,812.2,319.3z M813.8,248.5c-0.7,0-1.5,0-2.2,0c-7.8,19.5-15.6,39-23.4,58.6
		c-1.5,3.9,0.5,4.8,4,4.8c13.5-0.1,27-0.1,40.5,0c4,0,5.8-1.2,4.1-5.4C829,287.2,821.4,267.9,813.8,248.5z"/>
	<path class="st0" d="M686.7,293.6c0-17.8-0.1-35.6,0.1-53.4c0-3-1.2-7.5,4.1-7.2c4.5,0.2,3.4,4.3,3.4,7.1
		c0.1,32.9,0.3,65.7-0.1,98.6c-0.1,7.6,2.2,10.1,9.8,9.8c12.9-0.5,25.9-0.2,38.8-0.1c3.1,0,7.6-0.8,7.2,4.2
		c-0.3,4.3-4.6,3.1-7.3,3.1c-16,0.1-31.9-0.1-47.9,0.2c-6,0.1-8.3-2.1-8.2-8.1C686.9,329.7,686.7,311.7,686.7,293.6z"/>
</g>
<path class="st3" d="M685.9,163.7"/>
<g>
	<g>
		<path class="st1" d="M685.6,697.1c8.5-8.5,18.2-15.8,28.7-21.5c-9.9,6.6-18.8,14.6-26.4,23.6c-7.6,9-14.1,18.9-19.5,29.3
			c-1.3,2.5-2.5,5-3.7,7.5c0.5,0.6,1,1.1,1.6,1.7c3.6,3.6,12.1,7.6,22.3,7.6c10.2,0,22.2-4.1,32.4-16.8
			c18.7-23.3,20.9-63.6,44.4-83.5c0,0-3.7-0.3-9.6-0.3c-17.3,0-54.1,2.5-78.5,21.7c-17.2,13.5-32.7,40.1-17.1,63.7
			c0.9-1.6,1.9-3.2,2.9-4.7C669.5,715.2,677,705.6,685.6,697.1z"/>
		<g>
			<path class="st1" d="M685.6,697.1c8.5-8.5,18.2-15.8,28.7-21.5c-9.9,6.6-18.8,14.6-26.4,23.6c-7.6,9-14.1,18.9-19.5,29.3
				c-1.3,2.5-2.5,5-3.7,7.5c0.5,0.6,1,1.1,1.6,1.7c3.6,3.6,12.1,7.6,22.3,7.6c10.2,0,22.2-4.1,32.4-16.8
				c18.7-23.3,20.9-63.6,44.4-83.5c0,0-3.7-0.3-9.6-0.3c-17.3,0-54.1,2.5-78.5,21.7c-17.2,13.5-32.7,40.1-17.1,63.7
				c0.9-1.6,1.9-3.2,2.9-4.7C669.5,715.2,677,705.6,685.6,697.1z"/>
			<g>
				<path class="st1" d="M722,718.2c1.2,1.2,2.4,2.5,3.5,3.8c14.7-23.7,18.4-58.9,39.9-77c0,0-3.7-0.3-9.6-0.3
					c-17.3,0-54.1,2.5-78.5,21.7c-6.3,5-12.3,11.6-16.7,19.3c8.4,1.5,16.6,3.8,24.4,7.1C698.8,698.8,711.5,707.4,722,718.2z"/>
				<path class="st2" d="M640.9,684c-15.1,0.1-30.2,3.1-44,8.9c-13.8,5.9-26.6,14.5-37,25.3c-10.5,10.8-18.6,23.6-24,37.5
					c-5.2,13.9-7.8,28.8-7.1,43.5c1.1-29.4,13.9-57.6,34.6-77.6c20.6-20,49-31.6,77.6-31.4c3.4,0,6.9,0.1,10.3,0.5
					c0.8-2,1.7-4,2.7-5.9C649.6,684.3,645.3,684,640.9,684z"/>
				<path class="st2" d="M753.1,799.2c0.7-14.7-1.9-29.6-7.1-43.5c-3.9-10.3-9.5-19.9-16.3-28.7c-0.9,1.3-1.8,2.6-2.7,3.8
					C742.6,749.9,752.1,774.1,753.1,799.2z"/>
			</g>
		</g>
	</g>
	<path class="st3" d="M765.9,638.8c-0.2,0-4-0.3-10.1-0.3c-19.8,0-56.9,3-82.3,23.1c-7,5.5-14.3,13.6-19.4,23.2
		c-1,1.9-1.9,3.9-2.7,5.9c-2,5-3.4,10.3-3.7,15.9c-0.6,10.6,2.5,20.7,9.2,29.6c1.1-2,2.3-4,3.4-6c-8.5-12.9-7.7-26.6-2.5-38.7
		c0.8-2,1.8-3.9,2.9-5.7c4.4-7.7,10.4-14.3,16.7-19.3c24.4-19.2,61.2-21.7,78.5-21.7c6,0,9.6,0.3,9.6,0.3
		c-21.4,18.1-25.2,53.3-39.9,77c-0.9,1.4-1.8,2.7-2.7,4c-0.6,0.8-1.2,1.6-1.8,2.4c-10.2,12.7-22.1,16.8-32.4,16.8
		c-8.7,0-16.1-2.9-20.4-6c0.7-1.6,1.4-3.3,2.2-4.9c2.6-5.3,5.4-10.6,8.6-15.6c1.5-2.6,3.3-5,4.9-7.4c1.8-2.4,3.5-4.8,5.4-7.1
		c7.4-9.3,16.2-17.5,26-24.5c-10.1,6.4-19.5,14.2-27.5,23.2c-2.1,2.2-3.9,4.6-5.9,6.9c-1.8,2.4-3.7,4.8-5.4,7.3
		c-3.5,4.9-6.7,10.1-9.6,15.4c-0.7,1.2-1.3,2.5-1.9,3.7c-0.1-0.1-2.1,3.8-3,5.9c0,0,0,0,0,0c-3.7,7.7-6.9,15.6-9.6,23.7
		c-1.9,5.8-3.6,11.6-5.1,17.5c-1.5,5.9-2.7,11.8-3.6,18.1l-0.5,3.9l8,0.7l0.3-3.9c1-11.4,3.4-23.2,6.5-34.6
		c2.1-7.6,4.7-15.2,7.7-22.5c5.4,3.5,13.5,6.4,22.9,6.4c10,0,24.5-3.3,37.3-19.1c0.4-0.5,0.7-1,1.1-1.5c0.9-1.2,1.8-2.5,2.7-3.8
		c6.7-10.1,11.2-22.2,15.5-34c6.3-17.1,12.3-33.3,24.2-43.3L781,640L765.9,638.8z"/>
	<path class="st2" d="M283.9,811.3c-18.6-2.9-37.8-2.2-57.2-3.1c0,43.2,0,84.7,0,126.4c16.8,0,33.2,1.1,49.5-0.3
		c21.5-1.9,35.3-14.1,40.4-35.6c4.3-18.2,4.3-36.2-0.3-54.3C311.8,827,301.5,814.1,283.9,811.3z M292.3,898.3
		c-3.6,12-12.3,17.9-24.8,18.2c-4.9,0.1-9.9-0.1-14.8,0.1c-3.5,0.2-4.6-1.1-4.5-4.6c0.1-13.4,0.1-26.8,0.1-40.2
		c0-9.8,0.1-19.6,0-29.3c0-3.3,0-6.5-0.1-9.8c-0.1-3.9,0.8-5.9,5.2-5.5c4.6,0.4,9.2,0,13.7,0.1c12.8,0.3,21.6,6.1,25.3,18.4
		C297.6,863.2,297.6,880.9,292.3,898.3z"/>
	<path class="st2" d="M505.2,884.4c-1.3-2.2-1.4-3.7,1.4-4.9c12.9-5.5,19.2-16,20.8-29.4c2-17-6.7-33.9-23.8-38.9
		c-6.3-1.9-13.1-2.5-19.7-2.7c-13.9-0.4-27.8-0.1-42.4-0.1c0,3,0,5.1,0,7.2c0,34.9,0,69.8,0,104.7c0,14.1,2.3,16,16.5,13.8
		c0.2,0,0.3-0.1,0.5-0.1c3.7-0.1,5-2,5-5.8c-0.2-13-0.1-26.1-0.1-39.1c0-1.8,0.2-3.7,0.3-5.8c4.3,0,8-0.2,11.7,0.1
		c1.5,0.1,3.4,1.2,4.1,2.5c7,11.6,13.7,23.3,20.6,34.9c2.4,4,4.4,9.4,8.1,11.3c7.6,3.9,16.2,3.2,25.4,0.4
		c-5.2-8.7-10-16.8-14.8-24.9C514.4,899.8,509.8,892.1,505.2,884.4z M488.2,864.7c-7.8,0.7-15.8,0.1-24.6,0.1
		c0-12.2-0.1-23.8,0.1-35.3c0-0.9,1.9-2.6,2.9-2.6c7.2-0.1,14.5-0.4,21.6,0.3c10.5,1.1,15.6,7.8,15.5,19
		C503.7,856.8,498.2,863.8,488.2,864.7z"/>
	<path class="st2" d="M615.6,824.8c-5.7-16.7-5.5-16.8-23.2-16.1c-1.4,0.1-2.8,0.3-4.2,0.5c-3.3,0.4-5.2,1.9-6.3,5.3
		c-4.7,14.1-9.8,28.1-14.6,42.2c-7.5,21.8-14.7,43.7-22.4,65.4c-4.5,12.6-4.1,12.4,9.1,12.5c0.7,0,1.4-0.1,2.1-0.1
		c4.4-0.2,7-2.1,8.2-6.6c1.8-6.4,4.6-12.6,6.5-19c0.9-3.1,2.7-3.5,5.4-3.5c6.5,0.1,13.1,0,19.6,0c6.3,0,12.7,0.2,19-0.1
		c3.9-0.2,5.7,1.2,6.8,4.9c1.4,5.1,3.3,9.9,5,14.9c2.7,8.2,4.1,9.3,12.8,9.4c2.8,0,5.6-0.3,8.4-0.5c4.1-0.3,4.8-2.3,3.5-6.1
		C639.2,893.6,627.3,859.3,615.6,824.8z M578.7,886.7c5.7-17.5,11.4-34.8,17.4-53.1c5.9,18.1,11.5,35.2,17.3,53.1
		C601.7,886.7,590.6,886.7,578.7,886.7z"/>
	<path class="st2" d="M412.5,916.2c-9,0.3-18,0.1-27,0.1c-4.7,0-9.4,0-14.1,0c-2.7,0-5-2.2-5-5v-26.6c0-2.7,2.2-5,5-5
		c9.4,0,18.6,0,27.7,0c9.1,0,10.2-1.2,10-10.3c0-0.5-0.3-1-0.3-1.6c0-4.9-2.3-6.6-7.3-6.5c-10.4,0.4-20.8,0-31.2,0
		c-4.1,0-4.1-1.5-4.1-2.3c-0.2-9-0.2-17.9-0.2-27.3c0-2.7,2.2-5,5-5h1.3c12.7,0,25.4-0.2,38.1,0.1c5,0.1,7.6-1.4,7.1-7
		c-0.1-1.5-0.1-3,0-4.6c0.6-5.7-2-7-7.2-6.9c-20.1,0.3-40.2,0.1-60.3,0.1c-0.2,0-0.4,0-0.6,0c-2.7,0.1-4.8,2.3-4.8,5v115.9
		c0,2.7,2.2,5,5,5h0.7c20.5,0,40.9-0.2,61.4,0.1c5.5,0.1,7.8-1.9,7.8-7.2c0-1.8-0.1-3.5-0.1-5.2C419,918,417.1,916.1,412.5,916.2z"
		/>
	<path class="st2" d="M144.5,915.1c-12.9,0.3-25.8-0.1-38.6,0.2c-4.7,0.1-6-1.4-5.9-6c0.2-28.9,0.1-57.9,0.1-86.8
		c0-14.1-1-15-15.3-13.6c-0.2,0-0.4,0-0.5,0.1c-4.5,0.1-6.3,2-6.3,6.9c0.3,18.9,0.1,37.7,0.1,56.6c0,19,0,38.1,0,57.1
		c0,2.7-0.4,5.2,3.8,5.2c21.7-0.1,43.4,0,65.1-0.2c1.5,0,3.8-2.2,4.3-3.8c0.8-2.8,0.6-5.9,0.7-8.8
		C152.1,916.8,149.8,914.9,144.5,915.1z"/>
	<path class="st2" d="M197.7,822.7c0-14.3-1.6-15.5-16-13.9c-4.6,0.5-6.1,2.4-6,7.1c0.3,18.7,0.1,37.4,0.1,56c0,16.4,0,32.8,0,49.2
		c0,13.8,1,14.7,15,13.4c0.2,0,0.4,0,0.5,0c4.6-0.2,6.6-2,6.6-7.1C197.6,892.5,197.7,857.6,197.7,822.7z"/>
	<g>
		<path class="st3" d="M99.2,1000.7H84.5l-2.1,4.7h-5.3l14.6-31.7H92l14.6,31.7h-5.3L99.2,1000.7z M97.3,996.6l-5.5-12.1l-5.5,12.1
			H97.3z"/>
		<path class="st3" d="M107.3,1000l3.9-2.8c1.4,2.4,4,3.8,7,3.8c3.5,0,6.1-1.7,6.1-4c0-2.9-4.1-4.6-7.7-6.2
			c-3.6-1.6-7.7-3.5-7.7-8.4c0-5.1,4.4-8.6,10-8.6c4.4,0,7.7,2.1,9,5.5l-3.6,2.5c-1-2.1-3.1-3.3-5.4-3.3c-2.9,0-5.1,1.8-5.1,4
			c0,2.4,2.9,3.3,6.6,4.9c4.9,2.2,8.7,4.5,8.7,9.4c0,5.5-4.8,9.1-11.1,9.1C112.9,1006,109,1003.6,107.3,1000z"/>
		<path class="st3" d="M138.1,979.2v8h11.7v4.9h-11.7v8.6h13.6v4.9h-18.5v-31h18.5v4.8H138.1z"/>
		<path class="st3" d="M155,1000l3.9-2.8c1.4,2.4,4,3.8,7,3.8c3.5,0,6.1-1.7,6.1-4c0-2.9-4.1-4.6-7.7-6.2c-3.6-1.6-7.7-3.5-7.7-8.4
			c0-5.1,4.4-8.6,10-8.6c4.4,0,7.7,2.1,9,5.5l-3.6,2.5c-1-2.1-3.1-3.3-5.4-3.3c-2.9,0-5.1,1.8-5.1,4c0,2.4,2.9,3.3,6.6,4.9
			c4.9,2.2,8.7,4.5,8.7,9.4c0,5.5-4.8,9.1-11.1,9.1C160.7,1006,156.8,1003.6,155,1000z"/>
		<path class="st3" d="M179.6,990c0-8.9,7.2-16.1,16-16.1c8.8,0,16.1,7.2,16.1,16.1c0,8.8-7.2,16-16.1,16
			C186.8,1006,179.6,998.7,179.6,990z M206.7,989.9c0-6.1-5-11.2-11.2-11.2c-6.1,0-11.1,5-11.1,11.2c0,6.1,5,11.1,11.1,11.1
			C201.7,1001,206.7,996,206.7,989.9z"/>
		<path class="st3" d="M233.2,1005.5l-8.4-12H221v12h-4.9l0-31h9.6c5.8,0,10.5,4.4,10.5,10c0,4-2.6,7.5-6.1,8.6l9,12.4H233.2z
			 M225.9,989.4c2.9,0,5.4-2.3,5.4-5.1c0-2.9-2.5-5-5.4-5H221v10.2H225.9z"/>
		<path class="st3" d="M241.9,971.8l3.8-6.3h4.3l-4.6,6.3H241.9z M242.5,974.4h4.9v31h-4.9V974.4z"/>
		<path class="st3" d="M272.9,1000.7h-14.7l-2.1,4.7h-5.3l14.6-31.7h0.3l14.6,31.7H275L272.9,1000.7z M271,996.6l-5.5-12.1
			l-5.5,12.1H271z"/>
		<path class="st3" d="M283.1,1011.7c1.3,0,3.6-1.1,3.6-3.9c0-0.7-0.1-1-0.3-1.5c-1.3,0-2.9-1-2.9-3c0-1.8,1.5-3.4,3.5-3.4
			c1.9,0,3.6,1.6,3.6,4.9c0,4.2-2.4,7.8-5.6,7.8C283.7,1012.6,283.1,1011.9,283.1,1011.7z"/>
		<path class="st3" d="M305.7,989.9c0-8.7,7.3-16.1,16-16.1c4,0.1,7.7,1.8,10.8,4.7l-2.8,3.8c-2.2-2.2-5-3.6-8-3.6
			c-5.6,0-11,4.9-11,11.2c0,6.3,5.5,11.1,11,11.1c3.2,0,5.9-1.6,8.1-3.7l2.8,3.9c-2.7,2.6-6.1,4.7-10.7,4.7
			C313,1006,305.7,998.7,305.7,989.9z"/>
		<path class="st3" d="M333.6,990c0-8.9,7.2-16.1,16-16.1c8.8,0,16.1,7.2,16.1,16.1c0,8.8-7.2,16-16.1,16
			C340.8,1006,333.6,998.7,333.6,990z M360.8,989.9c0-6.1-5-11.2-11.2-11.2c-6.1,0-11.1,5-11.1,11.2c0,6.1,5,11.1,11.1,11.1
			C355.8,1001,360.8,996,360.8,989.9z"/>
		<path class="st3" d="M395.2,974.3v31.7h-0.2l-19.9-20.7v20.2h-4.9v-31.6h0.2l19.8,20.7v-20.2H395.2z"/>
		<path class="st3" d="M399.3,1000l3.9-2.8c1.4,2.4,4,3.8,7,3.8c3.5,0,6.1-1.7,6.1-4c0-2.9-4.1-4.6-7.7-6.2
			c-3.6-1.6-7.7-3.5-7.7-8.4c0-5.1,4.4-8.6,10-8.6c4.4,0,7.7,2.1,9,5.5l-3.6,2.5c-1-2.1-3.1-3.3-5.4-3.3c-2.9,0-5.1,1.8-5.1,4
			c0,2.4,2.9,3.3,6.6,4.9c4.9,2.2,8.7,4.5,8.7,9.4c0,5.5-4.8,9.1-11.1,9.1C405,1006,401.1,1003.6,399.3,1000z"/>
		<path class="st3" d="M425.1,993.7v-19.3h4.9v19.3c0,4.3,3,7.4,6.8,7.4s6.9-3.1,6.9-7.4v-19.3h4.9v19.3c0,7.1-5.1,12.3-11.7,12.3
			S425.1,1000.8,425.1,993.7z"/>
		<path class="st3" d="M472.9,1000.6v4.9h-18.7v-31h4.9v26.2H472.9z"/>
		<path class="st3" d="M490.5,979.2h-8.3v26.2h-4.9v-26.2H469v-4.8h21.5V979.2z"/>
		<path class="st3" d="M491.3,990c0-8.9,7.2-16.1,16-16.1c8.8,0,16.1,7.2,16.1,16.1c0,8.8-7.2,16-16.1,16
			C498.5,1006,491.3,998.7,491.3,990z M518.5,989.9c0-6.1-5-11.2-11.2-11.2c-6.1,0-11.1,5-11.1,11.2c0,6.1,5,11.1,11.1,11.1
			C513.5,1001,518.5,996,518.5,989.9z"/>
		<path class="st3" d="M545,1005.5l-8.4-12h-3.8v12h-4.9l0-31h9.6c5.8,0,10.5,4.4,10.5,10c0,4-2.6,7.5-6.1,8.6l9,12.4H545z
			 M537.7,989.4c2.9,0,5.4-2.3,5.4-5.1c0-2.9-2.5-5-5.4-5h-4.9v10.2H537.7z"/>
		<path class="st3" d="M553.7,971.8l3.8-6.3h4.3l-4.6,6.3H553.7z M554.3,974.4h4.9v31h-4.9V974.4z"/>
		<path class="st3" d="M584.7,1000.7H570l-2.1,4.7h-5.3l14.6-31.7h0.3l14.6,31.7h-5.3L584.7,1000.7z M582.8,996.6l-5.5-12.1
			l-5.5,12.1H582.8z"/>
		<path class="st3" d="M632.9,1005.7c-2.1,0-5-1.3-7.9-3.3c-2.3,2.3-5.3,3.6-8.8,3.6c-7,0-10.6-5.1-10.6-9.7c0-3.8,2.5-7.3,5.2-9
			c-1.2-2.2-1.9-4.2-1.9-6c0-3.9,3.6-7.8,8.2-7.8c4.2,0,7.5,3.3,8.1,7l-4.7,0.9c-0.2-1.9-1.8-3.4-3.5-3.4c-1.8,0-3.2,1.5-3.2,3.5
			c0,3.6,4.8,9.8,9.9,14.3c0.8-1.7,1.2-3.7,1.3-6l4.6-0.1c-0.1,3.6-0.8,6.6-2,9c2.1,1.4,4,2.3,5.5,2.3L632.9,1005.7z M621.1,999.5
			c-2.9-2.5-5.8-5.5-8-8.5c-1.8,1.3-2.9,3-2.9,5.1c0,2.9,2,5.2,5.7,5.2C618,1001.3,619.7,1000.6,621.1,999.5z"/>
		<path class="st3" d="M646.9,989.9c0-8.7,7.3-16.1,16-16.1c4,0.1,7.7,1.8,10.8,4.7l-2.8,3.8c-2.2-2.2-5-3.6-8.1-3.6
			c-5.6,0-11,4.9-11,11.2c0,6.3,5.5,11.1,11,11.1c3.2,0,5.9-1.6,8.1-3.7l2.8,3.9c-2.7,2.6-6.1,4.7-10.7,4.7
			C654.2,1006,646.9,998.7,646.9,989.9z"/>
		<path class="st3" d="M697.1,1000.7h-14.7l-2.1,4.7H675l14.6-31.7h0.3l14.6,31.7h-5.3L697.1,1000.7z M695.2,996.6l-5.5-12.1
			l-5.5,12.1H695.2z"/>
		<path class="st3" d="M708,974.4h10.4c6,0,10.9,4.6,10.9,10.2c0,5.5-4.9,10-10.9,10h-5.5v10.8H708V974.4z M724.4,984.6
			c0-3-2.7-5.4-6-5.4h-5.5v10.6l5.5,0C721.7,989.9,724.4,987.5,724.4,984.6z"/>
		<path class="st3" d="M746.9,1000.7h-14.7l-2.1,4.7h-5.3l14.6-31.7h0.3l14.6,31.7h-5.3L746.9,1000.7z M745,996.6l-5.5-12.1
			l-5.5,12.1H745z"/>
		<path class="st3" d="M753.4,989.9c0-8.7,7.3-16.1,16-16.1c4,0.1,7.7,1.8,10.8,4.7l-2.8,3.8c-2.2-2.2-5-3.6-8.1-3.6
			c-5.6,0-11,4.9-11,11.2c0,6.3,5.5,11.1,11,11.1c3.2,0,5.9-1.6,8.1-3.7l2.8,3.9c-2.7,2.6-6.1,4.7-10.7,4.7
			C760.7,1006,753.4,998.7,753.4,989.9z"/>
		<path class="st3" d="M784.1,974.4h4.9v31h-4.9V974.4z"/>
		<path class="st3" d="M814.4,979.2h-8.3v26.2h-4.9v-26.2h-8.3v-4.8h21.5V979.2z"/>
		<path class="st3" d="M834,1000.7h-14.7l-2.1,4.7h-5.3l14.6-31.7h0.3l14.6,31.7h-5.3L834,1000.7z M832.1,996.6l-5.5-12.1l-5.5,12.1
			H832.1z"/>
		<path class="st3" d="M840.4,989.9c0-8.7,7.3-16.1,16-16.1c4,0.1,7.7,1.8,10.8,4.7l-2.8,3.8c-2.2-2.2-5-3.6-8.1-3.6
			c-5.6,0-11,4.9-11,11.2c0,6.3,5.5,11.1,11,11.1c3.2,0,5.9-1.6,8.1-3.7l2.8,3.9c-2.7,2.6-6.1,4.7-10.7,4.7
			C847.7,1006,840.4,998.7,840.4,989.9z"/>
		<path class="st3" d="M871.1,974.4h4.9v31h-4.9V974.4z"/>
		<path class="st3" d="M880.5,990c0-8.9,7.2-16.1,16-16.1c8.8,0,16.1,7.2,16.1,16.1c0,8.8-7.2,16-16.1,16
			C887.7,1006,880.5,998.7,880.5,990z M907.7,989.9c0-6.1-5-11.2-11.2-11.2c-6.1,0-11.1,5-11.1,11.2c0,6.1,5,11.1,11.1,11.1
			C902.6,1001,907.7,996,907.7,989.9z M893.5,971.8l3.8-6.3h4.3l-4.6,6.3H893.5z"/>
		<path class="st3" d="M942,974.3v31.7h-0.2l-19.9-20.7v20.2h-4.9v-31.6h0.3l19.8,20.7v-20.2H942z"/>
	</g>
	<g>
		<path class="st2" d="M929.5,870.2c18.6,11.3,20.9,24.9,16.2,43.7c-3.6,14.1-15.4,19.2-28.7,20c-13.9,0.8-27.8,0.1-41.8,0.3
			c-6,0.1-6.9-3.6-6.9-8.1c-0.1-11.6-0.1-23.3-0.1-34.9c0-23.8,0.2-47.7-0.1-71.5c-0.1-7.7,2.2-11.3,10.4-10.8
			c12.2,0.7,24.5-0.5,36.7,0.7c13.4,1.4,23.7,7.1,27,20.8c3.4,13.9,2.6,27.1-9.6,37.2C931.9,868.3,931,869,929.5,870.2z
			 M876.8,898.6c0,7.8,0.1,14.2,0,20.5c-0.2,5.1,1.5,7.8,7.1,7.7c10.9-0.2,21.7,0.2,32.6-0.4c14.4-0.8,22.6-9.4,23.2-23.3
			c0.7-16.4-6-25.1-21.4-27.4c-5.2-0.8-10.5-1.3-15.8-1.2c-8,0.2-18-3.4-23.5,1.6C873.1,881.6,877.9,891.9,876.8,898.6z
			 M897.9,868.1c6,0.2,13.8,0.2,21.4-1.8c10.9-2.9,17-12.1,16.6-24.9c-0.4-13.2-6.6-21.3-17.9-23.7c-11.9-2.5-23.9-1.2-35.8-1.4
			c-4.6-0.1-5.4,2.9-5.4,6.6c0,8.6,0,17.2,0,25.8C876.8,868.1,876.8,868.1,897.9,868.1z"/>
		<path class="st2" d="M800.5,897.3c-7,0-13.9,0.3-20.9-0.1c-5.9-0.3-9.3,1.7-11.2,7.4c-2.8,8.1-6.2,16-9.5,24
			c-1.3,3.2-3,6.9-7.1,5.1c-4.2-1.9-1.1-5.4-0.1-7.8c14.3-36.4,28.7-72.7,43.2-109c1.3-3.2,1.9-7.6,6.7-7.3c4.2,0.3,4.6,4.4,5.8,7.4
			c14.4,36,28.8,72.1,43,108.2c1,2.6,4.6,6.5-0.2,8.5c-4.7,2-6.1-2.4-7.5-5.7c-3.2-7.7-6.5-15.3-9.2-23.2c-2-5.7-5.4-7.7-11.2-7.4
			C815,897.6,807.7,897.3,800.5,897.3z M802,825.8c-0.7,0-1.5,0-2.2,0c-7.9,19.7-15.8,39.4-23.7,59.2c-1.6,3.9,0.5,4.8,4,4.8
			c13.6-0.1,27.3-0.1,40.9,0c4,0,5.9-1.2,4.2-5.5C817.5,864.9,809.8,845.4,802,825.8z"/>
		<path class="st2" d="M673.7,871.3c0-18-0.1-36,0.1-53.9c0-3-1.2-7.5,4.1-7.3c4.6,0.2,3.4,4.4,3.5,7.1c0.1,33.2,0.3,66.4-0.1,99.6
			c-0.1,7.6,2.3,10.2,9.9,9.9c13-0.5,26.1-0.2,39.2-0.1c3.1,0,7.7-0.8,7.3,4.3c-0.3,4.4-4.6,3.1-7.4,3.2
			c-16.1,0.1-32.2-0.1-48.4,0.2c-6.1,0.1-8.4-2.1-8.3-8.2C673.9,907.9,673.7,889.6,673.7,871.3z"/>
	</g>
	<path class="st3" d="M662.9,740.1"/>
</g>
<rect x="123.2" y="-2559.1" class="st0" width="48" height="48"/>
<rect x="193.2" y="-2559.1" class="st3" width="48" height="48"/>
<rect x="192.4" y="-2572.5" class="st1" width="48.9" height="9.2"/>
<text transform="matrix(1 0 0 1 195.7656 -2564.0054)" class="st3" style="font-family:'MyriadPro-Regular'; font-size:12px;">#45aa35</text>
<rect x="122.4" y="-2572.5" class="st1" width="48.9" height="9.2"/>
<text transform="matrix(1 0 0 1 125.8896 -2564.0054)" class="st0" style="font-family:'MyriadPro-Regular'; font-size:12px;">#573c8f</text>
</svg>
