<?xml version="1.0" encoding="utf-8"?>
<!-- Generator: Adobe Illustrator 24.3.0, SVG Export Plug-In . SVG Version: 6.00 Build 0)  -->
<svg version="1.1" id="Capa_1" xmlns="http://www.w3.org/2000/svg" xmlns:xlink="http://www.w3.org/1999/xlink" x="0px" y="0px"
	 viewBox="0 0 109.5 106.2" style="enable-background:new 0 0 109.5 106.2;" xml:space="preserve">
<style type="text/css">
	.st0{fill:#573C8F;}
	.st1{fill:none;}
	.st2{fill:#FFFFFF;}
	.st3{fill:#45AA35;}
	.st4{fill:#55398D;}
	.st5{fill:#001046;}
</style>
<rect x="-1625.5" y="-1355.3" class="st0" width="1920" height="1080"/>
<g>
	<g>
		<path class="st1" d="M-494.4-978.6c8.5-8.5,18.2-15.8,28.7-21.5c-9.9,6.6-18.8,14.6-26.4,23.6c-7.6,9-14.1,18.9-19.5,29.3
			c-1.3,2.5-2.5,5-3.7,7.5c0.5,0.6,1,1.1,1.6,1.7c3.6,3.6,12.1,7.6,22.3,7.6c10.2,0,22.2-4.1,32.4-16.8
			c18.7-23.3,20.9-63.6,44.4-83.5c0,0-3.7-0.3-9.6-0.3c-17.3,0-54.1,2.5-78.5,21.7c-17.2,13.5-32.7,40.1-17.1,63.7
			c0.9-1.6,1.9-3.2,2.9-4.7C-510.5-960.6-503-970.2-494.4-978.6z"/>
		<g>
			<path class="st1" d="M-494.4-978.6c8.5-8.5,18.2-15.8,28.7-21.5c-9.9,6.6-18.8,14.6-26.4,23.6c-7.6,9-14.1,18.9-19.5,29.3
				c-1.3,2.5-2.5,5-3.7,7.5c0.5,0.6,1,1.1,1.6,1.7c3.6,3.6,12.1,7.6,22.3,7.6c10.2,0,22.2-4.1,32.4-16.8
				c18.7-23.3,20.9-63.6,44.4-83.5c0,0-3.7-0.3-9.6-0.3c-17.3,0-54.1,2.5-78.5,21.7c-17.2,13.5-32.7,40.1-17.1,63.7
				c0.9-1.6,1.9-3.2,2.9-4.7C-510.5-960.6-503-970.2-494.4-978.6z"/>
			<g>
				<path class="st1" d="M-458.1-957.6c1.2,1.2,2.4,2.5,3.5,3.8c14.7-23.7,18.4-58.9,39.9-77c0,0-3.7-0.3-9.6-0.3
					c-17.3,0-54.1,2.5-78.5,21.7c-6.3,5-12.3,11.6-16.7,19.3c8.4,1.5,16.6,3.8,24.4,7.1C-481.2-977-468.5-968.4-458.1-957.6z"/>
				<path class="st2" d="M-539.1-991.8c-15.1,0.1-30.2,3.1-44,8.9c-13.8,5.9-26.6,14.5-37,25.3c-10.5,10.8-18.6,23.6-24,37.5
					c-5.2,13.9-7.8,28.8-7.1,43.5c1.1-29.4,13.9-57.6,34.6-77.6c20.6-20,49-31.6,77.6-31.4c3.4,0,6.9,0.1,10.3,0.5
					c0.8-2,1.7-4,2.7-5.9C-530.4-991.5-534.7-991.8-539.1-991.8z"/>
				<path class="st2" d="M-427-876.6c0.7-14.7-1.9-29.6-7.1-43.5c-3.9-10.3-9.5-19.9-16.3-28.7c-0.9,1.3-1.8,2.6-2.7,3.8
					C-437.4-925.9-427.9-901.7-427-876.6z"/>
			</g>
		</g>
	</g>
	<path class="st3" d="M-414.2-1037c-0.2,0-4-0.3-10.1-0.3c-19.8,0-56.9,3-82.3,23.1c-7,5.5-14.3,13.6-19.4,23.2
		c-1,1.9-1.9,3.9-2.7,5.9c-2,5-3.4,10.3-3.7,15.9c-0.6,10.6,2.5,20.7,9.2,29.6c1.1-2,2.3-4,3.4-6c-8.5-12.9-7.7-26.6-2.5-38.7
		c0.8-2,1.8-3.9,2.9-5.7c4.4-7.7,10.4-14.3,16.7-19.3c24.4-19.2,61.2-21.7,78.5-21.7c6,0,9.6,0.3,9.6,0.3
		c-21.4,18.1-25.2,53.3-39.9,77c-0.9,1.4-1.8,2.7-2.7,4c-0.6,0.8-1.2,1.6-1.8,2.4c-10.2,12.7-22.1,16.8-32.4,16.8
		c-8.7,0-16.1-2.9-20.4-6c0.7-1.6,1.4-3.3,2.2-4.9c2.6-5.3,5.4-10.6,8.6-15.6c1.5-2.6,3.3-5,4.9-7.4c1.8-2.4,3.5-4.8,5.4-7.1
		c7.4-9.3,16.2-17.5,26-24.5c-10.1,6.4-19.5,14.2-27.5,23.2c-2.1,2.2-3.9,4.6-5.9,6.9c-1.8,2.4-3.7,4.8-5.4,7.3
		c-3.5,4.9-6.7,10.1-9.6,15.4c-0.7,1.2-1.3,2.5-1.9,3.7c-0.1-0.1-2.1,3.8-3,5.9c0,0,0,0,0,0c-3.7,7.7-6.9,15.6-9.6,23.7
		c-1.9,5.8-3.6,11.6-5.1,17.5c-1.5,5.9-2.7,11.8-3.6,18.1l-0.5,3.9l8,0.7l0.3-3.9c1-11.4,3.4-23.2,6.5-34.6
		c2.1-7.6,4.7-15.2,7.7-22.5c5.4,3.5,13.5,6.4,22.9,6.4c10,0,24.5-3.3,37.3-19.1c0.4-0.5,0.7-1,1.1-1.5c0.9-1.2,1.8-2.5,2.7-3.8
		c6.7-10.1,11.2-22.2,15.5-34c6.3-17.1,12.3-33.3,24.2-43.3l11.6-9.8L-414.2-1037z"/>
	<path class="st2" d="M-896.1-864.4c-18.6-2.9-37.8-2.2-57.2-3.1c0,43.2,0,84.7,0,126.4c16.8,0,33.2,1.1,49.5-0.3
		c21.5-1.9,35.3-14.1,40.4-35.6c4.3-18.2,4.3-36.2-0.3-54.3C-868.3-848.8-878.5-861.7-896.1-864.4z M-887.7-777.4
		c-3.6,12-12.3,17.9-24.8,18.2c-4.9,0.1-9.9-0.1-14.8,0.1c-3.5,0.2-4.6-1.1-4.5-4.6c0.1-13.4,0.1-26.8,0.1-40.2
		c0-9.8,0.1-19.6,0-29.3c0-3.3,0-6.5-0.1-9.8c-0.1-3.9,0.8-5.9,5.2-5.5c4.6,0.4,9.2,0,13.7,0.1c12.8,0.3,21.6,6.1,25.3,18.4
		C-882.4-812.6-882.4-794.8-887.7-777.4z"/>
	<path class="st2" d="M-674.8-791.3c-1.3-2.2-1.4-3.7,1.4-4.9c12.9-5.5,19.2-16,20.8-29.4c2-17-6.7-33.9-23.8-38.9
		c-6.3-1.9-13.1-2.5-19.7-2.7c-13.9-0.4-27.8-0.1-42.4-0.1c0,3,0,5.1,0,7.2c0,34.9,0,69.8,0,104.7c0,14.1,2.3,16,16.5,13.8
		c0.2,0,0.3-0.1,0.5-0.1c3.7-0.1,5-2,5-5.8c-0.2-13-0.1-26.1-0.1-39.1c0-1.8,0.2-3.7,0.3-5.8c4.3,0,8-0.2,11.7,0.1
		c1.5,0.1,3.4,1.2,4.1,2.5c7,11.6,13.7,23.3,20.6,34.9c2.4,4,4.4,9.4,8.1,11.3c7.6,3.9,16.2,3.2,25.4,0.4
		c-5.2-8.7-10-16.8-14.8-24.9C-665.6-775.9-670.2-783.6-674.8-791.3z M-691.8-811.1c-7.8,0.7-15.8,0.1-24.6,0.1
		c0-12.2-0.1-23.8,0.1-35.3c0-0.9,1.9-2.6,2.9-2.6c7.2-0.1,14.5-0.4,21.6,0.3c10.5,1.1,15.6,7.8,15.5,19
		C-676.3-819-681.8-811.9-691.8-811.1z"/>
	<path class="st2" d="M-564.4-850.9c-5.7-16.7-5.5-16.8-23.2-16.1c-1.4,0.1-2.8,0.3-4.2,0.5c-3.3,0.4-5.2,1.9-6.3,5.3
		c-4.7,14.1-9.8,28.1-14.6,42.2c-7.5,21.8-14.7,43.7-22.4,65.4c-4.5,12.6-4.1,12.4,9.1,12.5c0.7,0,1.4-0.1,2.1-0.1
		c4.4-0.2,7-2.1,8.2-6.6c1.8-6.4,4.6-12.6,6.5-19c0.9-3.1,2.7-3.5,5.4-3.5c6.5,0.1,13.1,0,19.6,0c6.3,0,12.7,0.2,19-0.1
		c3.9-0.2,5.7,1.2,6.8,4.9c1.4,5.1,3.3,9.9,5,14.9c2.7,8.2,4.1,9.3,12.8,9.4c2.8,0,5.6-0.3,8.4-0.5c4.1-0.3,4.8-2.3,3.5-6.1
		C-540.8-782.1-552.7-816.5-564.4-850.9z M-601.4-789.1c5.7-17.5,11.4-34.8,17.4-53.1c5.9,18.1,11.5,35.2,17.3,53.1
		C-578.3-789.1-589.5-789.1-601.4-789.1z"/>
	<path class="st2" d="M-767.5-759.5c-9,0.3-18,0.1-27,0.1c-4.7,0-9.4,0-14.1,0c-2.7,0-5-2.2-5-5V-791c0-2.7,2.2-5,5-5
		c9.4,0,18.6,0,27.7,0c9.1,0,10.2-1.2,10-10.3c0-0.5-0.3-1-0.3-1.6c0-4.9-2.3-6.6-7.3-6.5c-10.4,0.4-20.8,0-31.2,0
		c-4.1,0-4.1-1.5-4.1-2.3c-0.2-9-0.2-17.9-0.2-27.3c0-2.7,2.2-5,5-5h1.3c12.7,0,25.4-0.2,38.1,0.1c5,0.1,7.6-1.4,7.1-7
		c-0.1-1.5-0.1-3,0-4.6c0.6-5.7-2-7-7.2-6.9c-20.1,0.3-40.2,0.1-60.3,0.1c-0.2,0-0.4,0-0.6,0c-2.7,0.1-4.8,2.3-4.8,5v115.9
		c0,2.7,2.2,5,5,5h0.7c20.5,0,40.9-0.2,61.4,0.1c5.5,0.1,7.8-1.9,7.8-7.2c0-1.8-0.1-3.5-0.1-5.2C-761-757.8-762.9-759.7-767.5-759.5
		z"/>
	<path class="st2" d="M-1035.5-760.7c-12.9,0.3-25.8-0.1-38.6,0.2c-4.7,0.1-6-1.4-5.9-6c0.2-28.9,0.1-57.9,0.1-86.8
		c0-14.1-1-15-15.3-13.6c-0.2,0-0.4,0-0.5,0.1c-4.5,0.1-6.3,2-6.3,6.9c0.3,18.9,0.1,37.7,0.1,56.6c0,19,0,38.1,0,57.1
		c0,2.7-0.4,5.2,3.8,5.2c21.7-0.1,43.4,0,65.1-0.2c1.5,0,3.8-2.2,4.3-3.8c0.8-2.8,0.6-5.9,0.7-8.8
		C-1027.9-759-1030.3-760.8-1035.5-760.7z"/>
	<path class="st2" d="M-982.4-853.1c0-14.3-1.6-15.5-16-13.9c-4.6,0.5-6.1,2.4-6,7.1c0.3,18.7,0.1,37.4,0.1,56c0,16.4,0,32.8,0,49.2
		c0,13.8,1,14.7,15,13.4c0.2,0,0.4,0,0.5,0c4.6-0.2,6.6-2,6.6-7.1C-982.5-783.3-982.4-818.2-982.4-853.1z"/>
	<g>
		<path class="st3" d="M-1080.9-675h-14.7l-2.1,4.7h-5.3l14.6-31.7h0.3l14.6,31.7h-5.3L-1080.9-675z M-1082.7-679.2l-5.5-12.1
			l-5.5,12.1H-1082.7z"/>
		<path class="st3" d="M-1072.8-675.8l3.9-2.8c1.4,2.4,4,3.8,7,3.8c3.5,0,6.1-1.7,6.1-4c0-2.9-4.1-4.6-7.7-6.2
			c-3.6-1.6-7.7-3.5-7.7-8.4c0-5.1,4.4-8.6,10-8.6c4.4,0,7.7,2.1,9,5.5l-3.6,2.5c-1-2.1-3.1-3.3-5.4-3.3c-2.9,0-5.1,1.8-5.1,4
			c0,2.4,2.9,3.3,6.6,4.9c4.9,2.2,8.7,4.5,8.7,9.4c0,5.5-4.8,9.1-11.1,9.1C-1067.1-669.8-1071-672.2-1072.8-675.8z"/>
		<path class="st3" d="M-1041.9-696.6v8h11.7v4.9h-11.7v8.6h13.6v4.9h-18.5v-31h18.5v4.8H-1041.9z"/>
		<path class="st3" d="M-1025-675.8l3.9-2.8c1.4,2.4,4,3.8,7,3.8c3.5,0,6.1-1.7,6.1-4c0-2.9-4.1-4.6-7.7-6.2
			c-3.6-1.6-7.7-3.5-7.7-8.4c0-5.1,4.4-8.6,10-8.6c4.4,0,7.7,2.1,9,5.5l-3.6,2.5c-1-2.1-3.1-3.3-5.4-3.3c-2.9,0-5.1,1.8-5.1,4
			c0,2.4,2.9,3.3,6.6,4.9c4.9,2.2,8.7,4.5,8.7,9.4c0,5.5-4.8,9.1-11.1,9.1C-1019.3-669.8-1023.2-672.2-1025-675.8z"/>
		<path class="st3" d="M-1000.5-685.8c0-8.9,7.2-16.1,16-16.1c8.8,0,16.1,7.2,16.1,16.1c0,8.8-7.2,16-16.1,16
			C-993.3-669.8-1000.5-677-1000.5-685.8z M-973.3-685.8c0-6.1-5-11.2-11.2-11.2c-6.1,0-11.1,5-11.1,11.2c0,6.1,5,11.1,11.1,11.1
			C-978.3-674.7-973.3-679.7-973.3-685.8z"/>
		<path class="st3" d="M-946.8-670.3l-8.4-12h-3.8v12h-4.9l0-31h9.6c5.8,0,10.5,4.4,10.5,10c0,4-2.6,7.5-6.1,8.6l9,12.4H-946.8z
			 M-954.1-686.4c2.9,0,5.4-2.3,5.4-5.1c0-2.9-2.5-5-5.4-5h-4.9v10.2H-954.1z"/>
		<path class="st3" d="M-938.1-703.9l3.8-6.3h4.3l-4.6,6.3H-938.1z M-937.5-701.4h4.9v31h-4.9V-701.4z"/>
		<path class="st3" d="M-907.2-675h-14.7l-2.1,4.7h-5.3l14.6-31.7h0.3l14.6,31.7h-5.3L-907.2-675z M-909-679.2l-5.5-12.1l-5.5,12.1
			H-909z"/>
		<path class="st3" d="M-897-664.1c1.3,0,3.6-1.1,3.6-3.9c0-0.7-0.1-1-0.3-1.5c-1.3,0-2.9-1-2.9-3c0-1.8,1.5-3.4,3.5-3.4
			c1.9,0,3.6,1.6,3.6,4.9c0,4.2-2.4,7.8-5.6,7.8C-896.3-663.2-897-663.8-897-664.1z"/>
		<path class="st3" d="M-874.3-685.8c0-8.7,7.3-16.1,16-16.1c4,0.1,7.7,1.8,10.8,4.7l-2.8,3.8c-2.2-2.2-5-3.6-8-3.6
			c-5.6,0-11,4.9-11,11.2c0,6.3,5.5,11.1,11,11.1c3.2,0,5.9-1.6,8.1-3.7l2.8,3.9c-2.7,2.6-6.1,4.7-10.7,4.7
			C-867-669.8-874.3-677.1-874.3-685.8z"/>
		<path class="st3" d="M-846.4-685.8c0-8.9,7.2-16.1,16-16.1c8.8,0,16.1,7.2,16.1,16.1c0,8.8-7.2,16-16.1,16
			C-839.2-669.8-846.4-677-846.4-685.8z M-819.2-685.8c0-6.1-5-11.2-11.2-11.2c-6.1,0-11.1,5-11.1,11.2c0,6.1,5,11.1,11.1,11.1
			C-824.3-674.7-819.2-679.7-819.2-685.8z"/>
		<path class="st3" d="M-784.9-701.4v31.7h-0.2l-19.9-20.7v20.2h-4.9v-31.6h0.2l19.8,20.7v-20.2H-784.9z"/>
		<path class="st3" d="M-780.7-675.8l3.9-2.8c1.4,2.4,4,3.8,7,3.8c3.5,0,6.1-1.7,6.1-4c0-2.9-4.1-4.6-7.7-6.2
			c-3.6-1.6-7.7-3.5-7.7-8.4c0-5.1,4.4-8.6,10-8.6c4.4,0,7.7,2.1,9,5.5l-3.6,2.5c-1-2.1-3.1-3.3-5.4-3.3c-2.9,0-5.1,1.8-5.1,4
			c0,2.4,2.9,3.3,6.6,4.9c4.9,2.2,8.7,4.5,8.7,9.4c0,5.5-4.8,9.1-11.1,9.1C-775-669.8-778.9-672.2-780.7-675.8z"/>
		<path class="st3" d="M-755-682.1v-19.3h4.9v19.3c0,4.3,3,7.4,6.8,7.4c3.8,0,6.9-3.1,6.9-7.4v-19.3h4.9v19.3
			c0,7.1-5.1,12.3-11.7,12.3S-755-675-755-682.1z"/>
		<path class="st3" d="M-707.1-675.2v4.9h-18.7v-31h4.9v26.2H-707.1z"/>
		<path class="st3" d="M-689.5-696.5h-8.3v26.2h-4.9v-26.2h-8.3v-4.8h21.5V-696.5z"/>
		<path class="st3" d="M-688.7-685.8c0-8.9,7.2-16.1,16-16.1c8.8,0,16.1,7.2,16.1,16.1c0,8.8-7.2,16-16.1,16
			C-681.5-669.8-688.7-677-688.7-685.8z M-661.5-685.8c0-6.1-5-11.2-11.2-11.2c-6.1,0-11.1,5-11.1,11.2c0,6.1,5,11.1,11.1,11.1
			C-666.5-674.7-661.5-679.7-661.5-685.8z"/>
		<path class="st3" d="M-635-670.3l-8.4-12h-3.8v12h-4.9l0-31h9.6c5.8,0,10.5,4.4,10.5,10c0,4-2.6,7.5-6.1,8.6l9,12.4H-635z
			 M-642.3-686.4c2.9,0,5.4-2.3,5.4-5.1c0-2.9-2.5-5-5.4-5h-4.9v10.2H-642.3z"/>
		<path class="st3" d="M-626.3-703.9l3.8-6.3h4.3l-4.6,6.3H-626.3z M-625.8-701.4h4.9v31h-4.9V-701.4z"/>
		<path class="st3" d="M-595.4-675h-14.7l-2.1,4.7h-5.3l14.6-31.7h0.3l14.6,31.7h-5.3L-595.4-675z M-597.3-679.2l-5.5-12.1
			l-5.5,12.1H-597.3z"/>
		<path class="st3" d="M-547.1-670c-2.1,0-5-1.3-7.9-3.3c-2.3,2.3-5.3,3.6-8.8,3.6c-7,0-10.6-5.1-10.6-9.7c0-3.8,2.5-7.3,5.2-9
			c-1.2-2.2-1.9-4.2-1.9-6c0-3.9,3.6-7.8,8.2-7.8c4.2,0,7.5,3.3,8.1,7l-4.7,0.9c-0.2-1.9-1.8-3.4-3.5-3.4c-1.8,0-3.2,1.5-3.2,3.5
			c0,3.6,4.8,9.8,9.9,14.3c0.8-1.7,1.2-3.7,1.3-6l4.6-0.1c-0.1,3.6-0.8,6.6-2,9c2.1,1.4,4,2.3,5.5,2.3L-547.1-670z M-558.9-676.3
			c-2.9-2.5-5.8-5.5-8-8.5c-1.8,1.3-2.9,3-2.9,5.1c0,2.9,2,5.2,5.7,5.2C-562.1-674.5-560.3-675.1-558.9-676.3z"/>
		<path class="st3" d="M-533.1-685.8c0-8.7,7.3-16.1,16-16.1c4,0.1,7.7,1.8,10.8,4.7l-2.8,3.8c-2.2-2.2-5-3.6-8.1-3.6
			c-5.6,0-11,4.9-11,11.2c0,6.3,5.5,11.1,11,11.1c3.2,0,5.9-1.6,8.1-3.7l2.8,3.9c-2.7,2.6-6.1,4.7-10.7,4.7
			C-525.8-669.8-533.1-677.1-533.1-685.8z"/>
		<path class="st3" d="M-482.9-675h-14.7l-2.1,4.7h-5.3l14.6-31.7h0.3l14.6,31.7h-5.3L-482.9-675z M-484.8-679.2l-5.5-12.1
			l-5.5,12.1H-484.8z"/>
		<path class="st3" d="M-472-701.4h10.4c6,0,10.9,4.6,10.9,10.2c0,5.5-4.9,10-10.9,10h-5.5v10.8h-4.9V-701.4z M-455.6-691.2
			c0-3-2.7-5.4-6-5.4h-5.5v10.6l5.5,0C-458.3-685.9-455.6-688.2-455.6-691.2z"/>
		<path class="st3" d="M-433.1-675h-14.7l-2.1,4.7h-5.3l14.6-31.7h0.3l14.6,31.7h-5.3L-433.1-675z M-435-679.2l-5.5-12.1l-5.5,12.1
			H-435z"/>
		<path class="st3" d="M-426.6-685.8c0-8.7,7.3-16.1,16-16.1c4,0.1,7.7,1.8,10.8,4.7l-2.8,3.8c-2.2-2.2-5-3.6-8.1-3.6
			c-5.6,0-11,4.9-11,11.2c0,6.3,5.5,11.1,11,11.1c3.2,0,5.9-1.6,8.1-3.7l2.8,3.9c-2.7,2.6-6.1,4.7-10.7,4.7
			C-419.3-669.8-426.6-677.1-426.6-685.8z"/>
		<path class="st3" d="M-395.9-701.4h4.9v31h-4.9V-701.4z"/>
		<path class="st3" d="M-365.6-696.5h-8.3v26.2h-4.9v-26.2h-8.3v-4.8h21.5V-696.5z"/>
		<path class="st3" d="M-346.1-675h-14.7l-2.1,4.7h-5.3l14.6-31.7h0.3l14.6,31.7h-5.3L-346.1-675z M-347.9-679.2l-5.5-12.1
			l-5.5,12.1H-347.9z"/>
		<path class="st3" d="M-339.6-685.8c0-8.7,7.3-16.1,16-16.1c4,0.1,7.7,1.8,10.8,4.7l-2.8,3.8c-2.2-2.2-5-3.6-8.1-3.6
			c-5.6,0-11,4.9-11,11.2c0,6.3,5.5,11.1,11,11.1c3.2,0,5.9-1.6,8.1-3.7l2.8,3.9c-2.7,2.6-6.1,4.7-10.7,4.7
			C-332.3-669.8-339.6-677.1-339.6-685.8z"/>
		<path class="st3" d="M-308.9-701.4h4.9v31h-4.9V-701.4z"/>
		<path class="st3" d="M-299.5-685.8c0-8.9,7.2-16.1,16-16.1c8.8,0,16.1,7.2,16.1,16.1c0,8.8-7.2,16-16.1,16
			C-292.3-669.8-299.5-677-299.5-685.8z M-272.4-685.8c0-6.1-5-11.2-11.2-11.2c-6.1,0-11.1,5-11.1,11.2c0,6.1,5,11.1,11.1,11.1
			C-277.4-674.7-272.4-679.7-272.4-685.8z M-286.5-703.9l3.8-6.3h4.3l-4.6,6.3H-286.5z"/>
		<path class="st3" d="M-238-701.4v31.7h-0.2l-19.9-20.7v20.2h-4.9v-31.6h0.3l19.8,20.7v-20.2H-238z"/>
	</g>
	<g>
		<path class="st2" d="M-250.5-805.5c18.6,11.3,20.9,24.9,16.2,43.7c-3.6,14.1-15.4,19.2-28.7,20c-13.9,0.8-27.8,0.1-41.8,0.3
			c-6,0.1-6.9-3.6-6.9-8.1c-0.1-11.6-0.1-23.3-0.1-34.9c0-23.8,0.2-47.7-0.1-71.5c-0.1-7.7,2.2-11.3,10.4-10.8
			c12.2,0.7,24.5-0.5,36.7,0.7c13.4,1.4,23.7,7.1,27,20.8c3.4,13.9,2.6,27.1-9.6,37.2C-248.1-807.4-249-806.8-250.5-805.5z
			 M-303.2-777.1c0,7.8,0.1,14.2,0,20.5c-0.2,5.1,1.5,7.8,7.1,7.7c10.9-0.2,21.7,0.2,32.6-0.4c14.4-0.8,22.6-9.4,23.2-23.3
			c0.7-16.4-6-25.1-21.4-27.4c-5.2-0.8-10.5-1.3-15.8-1.2c-8,0.2-18-3.4-23.5,1.6C-307-794.2-302.1-783.8-303.2-777.1z
			 M-282.1-807.6c6,0.2,13.8,0.2,21.4-1.8c10.9-2.9,17-12.1,16.6-24.9c-0.4-13.2-6.6-21.3-17.9-23.7c-11.9-2.5-23.9-1.2-35.8-1.4
			c-4.6-0.1-5.4,2.9-5.4,6.6c0,8.6,0,17.2,0,25.8C-303.2-807.6-303.2-807.6-282.1-807.6z"/>
		<path class="st2" d="M-379.6-778.4c-7,0-13.9,0.3-20.9-0.1c-5.9-0.3-9.3,1.7-11.2,7.4c-2.8,8.1-6.2,16-9.5,24
			c-1.3,3.2-3,6.9-7.1,5.1c-4.2-1.9-1.1-5.4-0.1-7.8c14.3-36.4,28.7-72.7,43.2-109c1.3-3.2,1.9-7.6,6.7-7.3c4.2,0.3,4.6,4.4,5.8,7.4
			c14.4,36,28.8,72.1,43,108.2c1,2.6,4.6,6.5-0.2,8.5c-4.7,2-6.1-2.4-7.5-5.7c-3.2-7.7-6.5-15.3-9.2-23.2c-2-5.7-5.4-7.7-11.2-7.4
			C-365.1-778.1-372.3-778.4-379.6-778.4z M-378-849.9c-0.7,0-1.5,0-2.2,0c-7.9,19.7-15.8,39.4-23.7,59.2c-1.6,3.9,0.5,4.8,4,4.8
			c13.6-0.1,27.3-0.1,40.9,0c4,0,5.9-1.2,4.2-5.5C-362.6-810.9-370.3-830.4-378-849.9z"/>
		<path class="st2" d="M-506.3-804.4c0-18-0.1-36,0.1-53.9c0-3-1.2-7.5,4.1-7.3c4.6,0.2,3.4,4.4,3.5,7.1c0.1,33.2,0.3,66.4-0.1,99.6
			c-0.1,7.6,2.3,10.2,9.9,9.9c13-0.5,26.1-0.2,39.2-0.1c3.1,0,7.7-0.8,7.3,4.3c-0.3,4.4-4.6,3.1-7.4,3.2
			c-16.1,0.1-32.2-0.1-48.4,0.2c-6.1,0.1-8.4-2.1-8.3-8.2C-506.2-767.9-506.3-786.2-506.3-804.4z"/>
	</g>
	<path class="st3" d="M-517.1-935.6"/>
</g>
<g>
	<path class="st1" d="M-462-2151.5c8.4-8.4,18.1-15.6,28.4-21.3c-9.8,6.5-18.6,14.4-26.2,23.4c-7.6,8.9-13.9,18.7-19.3,29
		c-1.3,2.4-2.5,4.9-3.6,7.4c0.5,0.6,1,1.1,1.5,1.6c3.5,3.5,12,7.5,22,7.5c10.1,0,21.9-4,32.1-16.6c18.5-23,20.7-63,43.9-82.6
		c0,0-3.6-0.3-9.5-0.3c-17.1,0-53.6,2.4-77.7,21.5c-17,13.4-32.4,39.7-16.9,63.1c0.9-1.6,1.9-3.1,2.8-4.7
		C-477.9-2133.6-470.5-2143.2-462-2151.5z"/>
	<g>
		<path class="st1" d="M-462-2151.5c8.4-8.4,18.1-15.6,28.4-21.3c-9.8,6.5-18.6,14.4-26.2,23.4c-7.6,8.9-13.9,18.7-19.3,29
			c-1.3,2.4-2.5,4.9-3.6,7.4c0.5,0.6,1,1.1,1.5,1.6c3.5,3.5,12,7.5,22,7.5c10.1,0,21.9-4,32.1-16.6c18.5-23,20.7-63,43.9-82.6
			c0,0-3.6-0.3-9.5-0.3c-17.1,0-53.6,2.4-77.7,21.5c-17,13.4-32.4,39.7-16.9,63.1c0.9-1.6,1.9-3.1,2.8-4.7
			C-477.9-2133.6-470.5-2143.2-462-2151.5z"/>
		<g>
			<path class="st1" d="M-426-2130.7c1.2,1.2,2.4,2.5,3.5,3.8c14.6-23.5,18.3-58.3,39.5-76.2c0,0-3.6-0.3-9.5-0.3
				c-17.1,0-53.6,2.4-77.7,21.5c-6.2,4.9-12.2,11.5-16.5,19.1c8.3,1.5,16.4,3.8,24.2,7.1C-448.9-2149.9-436.3-2141.4-426-2130.7z"/>
			<path class="st4" d="M-506.2-2164.6c-14.9,0.1-29.9,3-43.6,8.9c-13.7,5.9-26.3,14.4-36.6,25.1c-10.3,10.7-18.5,23.4-23.7,37.1
				c-5.2,13.8-7.7,28.5-7.1,43.1c1.1-29.1,13.7-57,34.2-76.8c20.4-19.8,48.5-31.3,76.8-31.1c3.4,0,6.8,0.1,10.2,0.5
				c0.8-2,1.7-3.9,2.7-5.8C-497.6-2164.3-501.9-2164.6-506.2-2164.6z"/>
			<path class="st4" d="M-395.2-2050.5c0.7-14.5-1.9-29.3-7.1-43.1c-3.9-10.2-9.4-19.8-16.1-28.4c-0.8,1.3-1.7,2.5-2.7,3.8
				C-405.5-2099.3-396.2-2075.4-395.2-2050.5z"/>
		</g>
	</g>
</g>
<path class="st3" d="M-382.5-2209.3c-0.2,0-3.9-0.3-10-0.3c-19.6,0-56.4,3-81.5,22.8c-6.9,5.4-14.2,13.5-19.2,23
	c-1,1.9-1.9,3.8-2.7,5.8c-2,5-3.3,10.2-3.7,15.7c-0.6,10.5,2.5,20.5,9.1,29.3c1.1-2,2.2-4,3.4-5.9c-8.4-12.8-7.7-26.4-2.5-38.3
	c0.8-1.9,1.8-3.8,2.9-5.7c4.4-7.6,10.3-14.2,16.5-19.1c24.1-19.1,60.6-21.5,77.7-21.5c5.9,0,9.5,0.3,9.5,0.3
	c-21.2,17.9-24.9,52.8-39.5,76.2c-0.9,1.4-1.7,2.7-2.7,4c-0.6,0.8-1.2,1.6-1.8,2.4c-10.1,12.6-21.9,16.6-32.1,16.6
	c-8.6,0-16-2.9-20.2-6c0.7-1.6,1.4-3.2,2.2-4.8c2.5-5.3,5.4-10.5,8.5-15.4c1.5-2.5,3.2-4.9,4.9-7.4c1.8-2.4,3.5-4.8,5.4-7
	c7.4-9.2,16.1-17.4,25.8-24.2c-10,6.3-19.3,14-27.2,23c-2.1,2.2-3.9,4.5-5.8,6.8c-1.8,2.4-3.7,4.7-5.3,7.2c-3.5,4.9-6.6,10-9.5,15.3
	c-0.7,1.2-1.3,2.4-1.9,3.7c-0.1-0.1-2.1,3.8-3,5.9c0,0,0,0,0,0c-3.7,7.6-6.8,15.5-9.5,23.5c-1.9,5.7-3.6,11.5-5.1,17.3
	c-1.5,5.9-2.7,11.7-3.5,17.9l-0.5,3.8l7.9,0.7l0.3-3.9c1-11.3,3.3-23,6.4-34.3c2.1-7.6,4.7-15,7.6-22.3c5.3,3.5,13.4,6.4,22.6,6.4
	c9.9,0,24.3-3.3,36.9-19c0.4-0.5,0.7-1,1.1-1.5c0.9-1.2,1.8-2.5,2.7-3.8c6.6-10,11.1-22,15.4-33.6c6.3-16.9,12.2-32.9,23.9-42.8
	l11.5-9.7L-382.5-2209.3z"/>
<path class="st0" d="M-859.7-2038.5c-18.4-2.9-37.4-2.2-56.6-3.1c0,42.8,0,83.9,0,125.1c16.6,0,32.9,1.1,49-0.3
	c21.3-1.8,34.9-14,40-35.2c4.3-18,4.3-35.8-0.3-53.8C-832.1-2023-842.3-2035.7-859.7-2038.5z M-851.3-1952.3
	c-3.6,11.9-12.2,17.7-24.6,18.1c-4.9,0.1-9.8-0.1-14.7,0.1c-3.4,0.2-4.5-1.1-4.5-4.5c0.1-13.3,0.1-26.5,0.1-39.8
	c0-9.7,0.1-19.4,0-29c0-3.2,0-6.5-0.1-9.7c-0.1-3.9,0.8-5.8,5.2-5.4c4.5,0.4,9.1,0,13.6,0.1c12.7,0.3,21.4,6.1,25,18.2
	C-846.1-1987.1-846.1-1969.6-851.3-1952.3z"/>
<path class="st0" d="M-640.5-1966.1c-1.3-2.2-1.4-3.6,1.4-4.8c12.8-5.4,19.1-15.8,20.6-29.1c1.9-16.8-6.7-33.6-23.5-38.5
	c-6.2-1.8-13-2.5-19.5-2.7c-13.7-0.4-27.5-0.1-42-0.1c0,3,0,5,0,7.1c0,34.5,0,69.1,0,103.6c0,14,2.3,15.9,16.4,13.6
	c0.2,0,0.3-0.1,0.5-0.1c3.7-0.1,5-1.9,4.9-5.7c-0.2-12.9-0.1-25.8-0.1-38.7c0-1.8,0.2-3.7,0.3-5.8c4.3,0,8-0.2,11.6,0.1
	c1.5,0.1,3.4,1.2,4.1,2.4c6.9,11.5,13.5,23.1,20.4,34.5c2.4,4,4.4,9.3,8,11.2c7.6,3.9,16.1,3.2,25.1,0.4
	c-5.1-8.6-9.9-16.6-14.7-24.7C-631.5-1950.9-636-1958.5-640.5-1966.1z M-657.4-1985.7c-7.8,0.7-15.6,0.1-24.3,0.1
	c0-12.1-0.1-23.5,0.1-35c0-0.9,1.9-2.6,2.9-2.6c7.1-0.1,14.3-0.4,21.4,0.3c10.4,1.1,15.5,7.7,15.4,18.8
	C-642-1993.5-647.5-1986.5-657.4-1985.7z"/>
<path class="st0" d="M-531.3-2025.1c-5.6-16.6-5.5-16.6-23-15.9c-1.4,0.1-2.8,0.3-4.2,0.5c-3.3,0.4-5.1,1.9-6.3,5.3
	c-4.7,14-9.7,27.9-14.5,41.8c-7.4,21.6-14.5,43.2-22.2,64.7c-4.5,12.5-4.1,12.2,9.1,12.4c0.7,0,1.4-0.1,2.1-0.1
	c4.3-0.2,6.9-2.1,8.1-6.6c1.8-6.4,4.5-12.4,6.4-18.8c0.9-3.1,2.7-3.5,5.4-3.5c6.5,0.1,12.9,0,19.4,0c6.3,0,12.6,0.2,18.9-0.1
	c3.8-0.2,5.7,1.2,6.7,4.9c1.4,5,3.3,9.8,4.9,14.8c2.6,8.1,4,9.2,12.7,9.3c2.8,0,5.6-0.3,8.3-0.5c4.1-0.3,4.7-2.3,3.4-6.1
	C-507.9-1957-519.7-1991-531.3-2025.1z M-567.8-1963.9c5.7-17.3,11.3-34.5,17.2-52.5c5.9,17.9,11.4,34.9,17.2,52.5
	C-545.1-1963.9-556.1-1963.9-567.8-1963.9z"/>
<path class="st0" d="M-732.3-1934.6c-8.9,0.3-17.8,0.1-26.7,0.1c-4.6,0-9.3,0-14,0c-2.7,0-4.9-2.2-4.9-4.9v-26.3
	c0-2.7,2.2-4.9,4.9-4.9c9.3,0,18.4,0,27.4,0c9,0,10.1-1.2,9.9-10.2c0-0.5-0.3-1-0.3-1.5c0-4.8-2.3-6.6-7.2-6.4
	c-10.3,0.3-20.6,0-30.9,0c-4.1,0-4.1-1.5-4.1-2.3c-0.2-8.9-0.2-17.7-0.2-27c0-2.7,2.2-4.9,4.9-4.9h1.3c12.6,0,25.1-0.2,37.7,0.1
	c5,0.1,7.5-1.3,7-6.9c-0.1-1.5-0.1-3,0-4.5c0.6-5.6-2-6.9-7.1-6.8c-19.9,0.3-39.8,0.1-59.7,0.1c-0.2,0-0.4,0-0.6,0
	c-2.7,0.1-4.8,2.3-4.8,4.9v114.8c0,2.7,2.2,4.9,4.9,4.9h0.7c20.3,0,40.5-0.2,60.8,0.1c5.5,0.1,7.8-1.9,7.7-7.1
	c0-1.7-0.1-3.5-0.1-5.2C-725.9-1932.9-727.8-1934.8-732.3-1934.6z"/>
<path class="st0" d="M-997.7-1935.8c-12.7,0.3-25.5-0.1-38.2,0.2c-4.7,0.1-5.9-1.4-5.9-5.9c0.2-28.6,0.1-57.3,0.1-85.9
	c0-14-1-14.8-15.1-13.5c-0.2,0-0.3,0-0.5,0c-4.5,0.1-6.3,1.9-6.2,6.8c0.3,18.7,0.1,37.4,0.1,56c0,18.9,0,37.7,0,56.6
	c0,2.7-0.4,5.2,3.8,5.1c21.5-0.1,43,0,64.4-0.2c1.5,0,3.8-2.2,4.3-3.7c0.8-2.7,0.6-5.8,0.6-8.8
	C-990.1-1934.1-992.5-1935.9-997.7-1935.8z"/>
<path class="st0" d="M-945-2027.2c0-14.1-1.6-15.4-15.9-13.8c-4.6,0.5-6,2.4-6,7.1c0.3,18.5,0.1,37,0.1,55.5c0,16.2,0,32.4,0,48.7
	c0,13.6,1,14.5,14.8,13.3c0.2,0,0.3,0,0.5,0c4.6-0.2,6.5-2,6.5-7.1C-945.2-1958.1-945-1992.7-945-2027.2z"/>
<g>
	<path class="st3" d="M-1042.6-1851h-14.6l-2.1,4.7h-5.2l14.5-31.4h0.3l14.5,31.4h-5.2L-1042.6-1851z M-1044.4-1855.1l-5.4-12
		l-5.4,12H-1044.4z"/>
	<path class="st3" d="M-1034.5-1851.7l3.8-2.7c1.4,2.4,3.9,3.8,6.9,3.8c3.5,0,6.1-1.7,6.1-4c0-2.8-4-4.6-7.6-6.1
		c-3.6-1.6-7.6-3.5-7.6-8.3c0-5,4.4-8.5,9.9-8.5c4.4,0,7.7,2.1,8.9,5.5l-3.6,2.5c-1-2.1-3.1-3.2-5.3-3.2c-2.8,0-5.1,1.8-5.1,3.9
		c0,2.4,2.8,3.3,6.6,4.9c4.9,2.1,8.6,4.5,8.6,9.3c0,5.5-4.7,9-11,9C-1029-1845.8-1032.8-1848.1-1034.5-1851.7z"/>
	<path class="st3" d="M-1004-1872.3v7.9h11.6v4.8h-11.6v8.5h13.5v4.8h-18.3v-30.7h18.3v4.7H-1004z"/>
	<path class="st3" d="M-987.3-1851.7l3.8-2.7c1.4,2.4,3.9,3.8,6.9,3.8c3.4,0,6.1-1.7,6.1-4c0-2.8-4-4.6-7.6-6.1
		c-3.6-1.6-7.6-3.5-7.6-8.3c0-5,4.4-8.5,9.9-8.5c4.4,0,7.7,2.1,8.9,5.5l-3.6,2.5c-1-2.1-3.1-3.2-5.3-3.2c-2.8,0-5.1,1.8-5.1,3.9
		c0,2.4,2.8,3.3,6.6,4.9c4.9,2.1,8.6,4.5,8.6,9.3c0,5.5-4.7,9-11,9C-981.7-1845.8-985.5-1848.1-987.3-1851.7z"/>
	<path class="st3" d="M-963-1861.6c0-8.8,7.1-15.9,15.9-15.9c8.7,0,15.9,7.2,15.9,15.9c0,8.7-7.2,15.8-15.9,15.8
		C-955.8-1845.8-963-1852.9-963-1861.6z M-936.1-1861.7c0-6.1-5-11-11-11c-6.1,0-11,5-11,11c0,6,4.9,11,11,11
		C-941-1850.7-936.1-1855.6-936.1-1861.7z"/>
	<path class="st3" d="M-909.9-1846.3l-8.3-11.9h-3.8v11.9h-4.8l0-30.7h9.6c5.7,0,10.4,4.4,10.4,9.9c0,4-2.6,7.4-6.1,8.6l8.9,12.3
		H-909.9z M-917.1-1862.2c2.9,0,5.3-2.3,5.3-5.1c0-2.9-2.5-5-5.3-5h-4.8v10.1H-917.1z"/>
	<path class="st3" d="M-901.2-1879.6l3.8-6.2h4.3l-4.5,6.2H-901.2z M-900.7-1877h4.8v30.7h-4.8V-1877z"/>
	<path class="st3" d="M-870.6-1851h-14.6l-2.1,4.7h-5.2l14.5-31.4h0.3l14.5,31.4h-5.2L-870.6-1851z M-872.5-1855.1l-5.4-12l-5.4,12
		H-872.5z"/>
	<path class="st3" d="M-860.5-1840.1c1.3,0,3.5-1.1,3.5-3.9c0-0.7-0.1-1-0.3-1.5c-1.3,0-2.9-1-2.9-3c0-1.8,1.4-3.4,3.4-3.4
		c1.9,0,3.6,1.6,3.6,4.9c0,4.2-2.3,7.7-5.5,7.7C-859.9-1839.3-860.5-1839.9-860.5-1840.1z"/>
	<path class="st3" d="M-838.1-1861.6c0-8.7,7.2-15.9,15.9-15.9c4,0.1,7.7,1.8,10.7,4.7l-2.8,3.8c-2.2-2.2-5-3.6-8-3.6
		c-5.6,0-10.9,4.9-10.9,11c0,6.2,5.4,11,10.9,11c3.1,0,5.9-1.6,8-3.7l2.8,3.9c-2.7,2.6-6,4.6-10.6,4.6
		C-830.8-1845.8-838.1-1853-838.1-1861.6z"/>
	<path class="st3" d="M-810.5-1861.6c0-8.8,7.1-15.9,15.9-15.9c8.7,0,15.9,7.2,15.9,15.9c0,8.7-7.2,15.8-15.9,15.8
		C-803.3-1845.8-810.5-1852.9-810.5-1861.6z M-783.6-1861.7c0-6.1-5-11-11-11c-6.1,0-11,5-11,11c0,6,4.9,11,11,11
		C-788.5-1850.7-783.6-1855.6-783.6-1861.7z"/>
	<path class="st3" d="M-749.5-1877.1v31.3h-0.2l-19.7-20.5v20h-4.8v-31.3h0.2l19.6,20.5v-20H-749.5z"/>
	<path class="st3" d="M-745.4-1851.7l3.8-2.7c1.4,2.4,3.9,3.8,6.9,3.8c3.5,0,6.1-1.7,6.1-4c0-2.8-4-4.6-7.6-6.1
		c-3.6-1.6-7.6-3.5-7.6-8.3c0-5,4.4-8.5,9.9-8.5c4.4,0,7.7,2.1,8.9,5.5l-3.6,2.5c-1-2.1-3.1-3.2-5.3-3.2c-2.8,0-5.1,1.8-5.1,3.9
		c0,2.4,2.8,3.3,6.6,4.9c4.9,2.1,8.6,4.5,8.6,9.3c0,5.5-4.7,9-11,9C-739.8-1845.8-743.6-1848.1-745.4-1851.7z"/>
	<path class="st3" d="M-719.9-1857.9v-19.1h4.8v19.1c0,4.3,3,7.4,6.8,7.4s6.8-3.1,6.8-7.4v-19.1h4.9v19.1c0,7.1-5.1,12.2-11.6,12.2
		S-719.9-1850.9-719.9-1857.9z"/>
	<path class="st3" d="M-672.5-1851.1v4.8h-18.5v-30.7h4.8v25.9H-672.5z"/>
	<path class="st3" d="M-655.1-1872.2h-8.2v26h-4.8v-26h-8.2v-4.8h21.3V-1872.2z"/>
	<path class="st3" d="M-654.3-1861.6c0-8.8,7.1-15.9,15.9-15.9c8.7,0,15.9,7.2,15.9,15.9c0,8.7-7.2,15.8-15.9,15.8
		C-647.2-1845.8-654.3-1852.9-654.3-1861.6z M-627.4-1861.7c0-6.1-5-11-11-11c-6.1,0-11,5-11,11c0,6,4.9,11,11,11
		C-632.4-1850.7-627.4-1855.6-627.4-1861.7z"/>
	<path class="st3" d="M-601.2-1846.3l-8.3-11.9h-3.8v11.9h-4.8l0-30.7h9.6c5.7,0,10.4,4.4,10.4,9.9c0,4-2.6,7.4-6.1,8.6l8.9,12.3
		H-601.2z M-608.4-1862.2c2.9,0,5.3-2.3,5.3-5.1c0-2.9-2.5-5-5.3-5h-4.8v10.1H-608.4z"/>
	<path class="st3" d="M-592.6-1879.6l3.8-6.2h4.3l-4.5,6.2H-592.6z M-592-1877h4.8v30.7h-4.8V-1877z"/>
	<path class="st3" d="M-561.9-1851h-14.6l-2.1,4.7h-5.2l14.5-31.4h0.3l14.5,31.4h-5.2L-561.9-1851z M-563.8-1855.1l-5.4-12l-5.4,12
		H-563.8z"/>
	<path class="st3" d="M-514.1-1846c-2.1,0-4.9-1.3-7.9-3.2c-2.3,2.3-5.3,3.5-8.7,3.5c-7,0-10.5-5.1-10.5-9.6c0-3.7,2.5-7.3,5.2-8.9
		c-1.2-2.2-1.9-4.2-1.9-5.9c0-3.8,3.5-7.7,8.1-7.7c4.2,0,7.4,3.2,8,6.9l-4.7,0.9c-0.2-1.9-1.8-3.3-3.5-3.3c-1.8,0-3.2,1.5-3.2,3.5
		c0,3.6,4.8,9.7,9.8,14.1c0.7-1.7,1.2-3.7,1.3-5.9l4.5-0.1c-0.1,3.5-0.8,6.5-2,8.9c2.1,1.4,4,2.3,5.4,2.3L-514.1-1846z
		 M-525.9-1852.2c-2.9-2.5-5.7-5.4-7.9-8.4c-1.8,1.3-2.9,3-2.9,5c0,2.9,2,5.2,5.7,5.2C-528.9-1850.4-527.2-1851.1-525.9-1852.2z"/>
	<path class="st3" d="M-500.3-1861.6c0-8.7,7.2-15.9,15.9-15.9c4,0.1,7.7,1.8,10.7,4.7l-2.8,3.8c-2.2-2.2-5-3.6-8-3.6
		c-5.6,0-10.9,4.9-10.9,11c0,6.2,5.4,11,10.9,11c3.1,0,5.9-1.6,8-3.7l2.8,3.9c-2.7,2.6-6,4.6-10.6,4.6
		C-493.1-1845.8-500.3-1853-500.3-1861.6z"/>
	<path class="st3" d="M-450.6-1851h-14.6l-2.1,4.7h-5.2l14.5-31.4h0.3l14.5,31.4h-5.2L-450.6-1851z M-452.4-1855.1l-5.4-12l-5.4,12
		H-452.4z"/>
	<path class="st3" d="M-439.8-1877h10.3c5.9,0,10.8,4.6,10.8,10.1c0,5.5-4.9,9.9-10.8,9.9h-5.5v10.7h-4.8V-1877z M-423.6-1866.9
		c0-2.9-2.7-5.3-6-5.3h-5.5v10.5l5.5,0C-426.2-1861.7-423.6-1864-423.6-1866.9z"/>
	<path class="st3" d="M-401.3-1851h-14.6l-2.1,4.7h-5.2l14.5-31.4h0.3l14.5,31.4h-5.2L-401.3-1851z M-403.1-1855.1l-5.4-12l-5.4,12
		H-403.1z"/>
	<path class="st3" d="M-394.9-1861.6c0-8.7,7.2-15.9,15.9-15.9c4,0.1,7.7,1.8,10.7,4.7l-2.8,3.8c-2.2-2.2-5-3.6-8-3.6
		c-5.6,0-10.9,4.9-10.9,11c0,6.2,5.4,11,10.9,11c3.1,0,5.9-1.6,8-3.7l2.8,3.9c-2.7,2.6-6,4.6-10.6,4.6
		C-387.6-1845.8-394.9-1853-394.9-1861.6z"/>
	<path class="st3" d="M-364.5-1877h4.8v30.7h-4.8V-1877z"/>
	<path class="st3" d="M-334.5-1872.2h-8.2v26h-4.8v-26h-8.2v-4.8h21.3V-1872.2z"/>
	<path class="st3" d="M-315.1-1851h-14.6l-2.1,4.7h-5.2l14.5-31.4h0.3l14.5,31.4h-5.2L-315.1-1851z M-317-1855.1l-5.4-12l-5.4,12
		H-317z"/>
	<path class="st3" d="M-308.7-1861.6c0-8.7,7.2-15.9,15.9-15.9c4,0.1,7.7,1.8,10.7,4.7l-2.8,3.8c-2.2-2.2-5-3.6-8-3.6
		c-5.6,0-10.9,4.9-10.9,11c0,6.2,5.4,11,10.9,11c3.1,0,5.9-1.6,8-3.7l2.8,3.9c-2.7,2.6-6,4.6-10.6,4.6
		C-301.5-1845.8-308.7-1853-308.7-1861.6z"/>
	<path class="st3" d="M-278.3-1877h4.8v30.7h-4.8V-1877z"/>
	<path class="st3" d="M-269-1861.6c0-8.8,7.1-15.9,15.9-15.9c8.7,0,15.9,7.2,15.9,15.9c0,8.7-7.2,15.8-15.9,15.8
		C-261.9-1845.8-269-1852.9-269-1861.6z M-242.1-1861.7c0-6.1-5-11-11-11c-6.1,0-11,5-11,11c0,6,4.9,11,11,11
		C-247.1-1850.7-242.1-1855.6-242.1-1861.7z M-256.1-1879.6l3.8-6.2h4.3l-4.5,6.2H-256.1z"/>
	<path class="st3" d="M-208.1-1877.1v31.3h-0.2l-19.7-20.5v20h-4.8v-31.3h0.2l19.6,20.5v-20H-208.1z"/>
</g>
<g>
	<path class="st0" d="M-230.4-1980.1c18.5,11.2,20.7,24.7,16,43.3c-3.5,14-15.2,19-28.4,19.8c-13.8,0.7-27.6,0.1-41.4,0.3
		c-5.9,0.1-6.8-3.5-6.8-8c-0.1-11.5-0.1-23.1-0.1-34.6c0-23.6,0.2-47.2-0.1-70.8c-0.1-7.6,2.1-11.2,10.3-10.7
		c12.1,0.7,24.3-0.5,36.4,0.7c13.3,1.4,23.4,7,26.8,20.6c3.4,13.7,2.5,26.8-9.5,36.8C-228-1982-228.9-1981.4-230.4-1980.1z
		 M-282.6-1952c0,7.7,0.1,14,0,20.3c-0.2,5,1.5,7.8,7,7.6c10.7-0.2,21.5,0.2,32.2-0.4c14.3-0.8,22.4-9.3,22.9-23.1
		c0.7-16.2-5.9-24.8-21.1-27.2c-5.1-0.8-10.4-1.3-15.6-1.2c-7.9,0.2-17.8-3.4-23.2,1.6C-286.3-1968.9-281.5-1958.7-282.6-1952z
		 M-261.7-1982.2c5.9,0.2,13.7,0.2,21.2-1.8c10.8-2.9,16.9-12,16.5-24.6c-0.4-13-6.5-21.1-17.7-23.5c-11.7-2.5-23.6-1.2-35.5-1.4
		c-4.6-0.1-5.4,2.8-5.4,6.5c0,8.5,0,17,0,25.5C-282.6-1982.2-282.6-1982.2-261.7-1982.2z"/>
	<path class="st0" d="M-358.2-1953.3c-6.9,0-13.8,0.3-20.7-0.1c-5.8-0.3-9.2,1.7-11.1,7.3c-2.8,8-6.2,15.8-9.4,23.7
		c-1.3,3.1-3,6.8-7.1,5c-4.2-1.9-1.1-5.3-0.1-7.8c14.2-36,28.4-72,42.7-107.9c1.3-3.2,1.9-7.5,6.6-7.2c4.2,0.3,4.6,4.4,5.7,7.3
		c14.3,35.7,28.5,71.3,42.6,107.1c1,2.6,4.5,6.4-0.2,8.4c-4.6,2-6-2.4-7.4-5.7c-3.2-7.6-6.5-15.2-9.1-22.9
		c-1.9-5.6-5.3-7.6-11.1-7.3C-343.8-1953-351-1953.3-358.2-1953.3z M-356.6-2024.1c-0.7,0-1.5,0-2.2,0c-7.8,19.5-15.6,39-23.4,58.6
		c-1.5,3.9,0.5,4.8,4,4.8c13.5-0.1,27-0.1,40.5,0c4,0,5.8-1.2,4.1-5.4C-341.3-1985.5-349-2004.8-356.6-2024.1z"/>
	<path class="st0" d="M-483.7-1979.1c0-17.8-0.1-35.6,0.1-53.4c0-3-1.2-7.5,4.1-7.2c4.5,0.2,3.4,4.3,3.4,7.1
		c0.1,32.9,0.3,65.7-0.1,98.6c-0.1,7.6,2.2,10.1,9.8,9.8c12.9-0.5,25.9-0.2,38.8-0.1c3.1,0,7.6-0.8,7.2,4.2
		c-0.3,4.3-4.6,3.1-7.3,3.1c-16,0.1-31.9-0.1-47.9,0.2c-6,0.1-8.3-2.1-8.2-8.1C-483.5-1942.9-483.7-1961-483.7-1979.1z"/>
</g>
<path class="st3" d="M-484.4-2109"/>
<g>
	<path class="st1" d="M-917.1-16.3c8.4-8.4,18.1-15.6,28.4-21.3c-9.8,6.5-18.6,14.4-26.2,23.4c-7.6,8.9-13.9,18.7-19.3,29
		c-1.3,2.4-2.5,4.9-3.6,7.4c0.5,0.6,1,1.1,1.5,1.6c3.5,3.5,12,7.5,22,7.5c10.1,0,21.9-4,32.1-16.6c18.5-23,20.7-63,43.9-82.6
		c0,0-3.6-0.3-9.5-0.3c-17.1,0-53.6,2.4-77.7,21.5c-17,13.4-32.4,39.7-16.9,63.1c0.9-1.6,1.9-3.1,2.8-4.7
		C-933,1.6-925.6-7.9-917.1-16.3z"/>
	<g>
		<path class="st1" d="M-917.1-16.3c8.4-8.4,18.1-15.6,28.4-21.3c-9.8,6.5-18.6,14.4-26.2,23.4c-7.6,8.9-13.9,18.7-19.3,29
			c-1.3,2.4-2.5,4.9-3.6,7.4c0.5,0.6,1,1.1,1.5,1.6c3.5,3.5,12,7.5,22,7.5c10.1,0,21.9-4,32.1-16.6c18.5-23,20.7-63,43.9-82.6
			c0,0-3.6-0.3-9.5-0.3c-17.1,0-53.6,2.4-77.7,21.5c-17,13.4-32.4,39.7-16.9,63.1c0.9-1.6,1.9-3.1,2.8-4.7
			C-933,1.6-925.6-7.9-917.1-16.3z"/>
		<g>
			<path class="st1" d="M-881.1,4.5c1.2,1.2,2.4,2.5,3.5,3.8c14.6-23.5,18.3-58.3,39.5-76.2c0,0-3.6-0.3-9.5-0.3
				c-17.1,0-53.6,2.4-77.7,21.5c-6.2,4.9-12.2,11.5-16.5,19.1c8.3,1.5,16.4,3.8,24.2,7.1C-904-14.7-891.4-6.2-881.1,4.5z"/>
			<path class="st4" d="M-961.3-29.3c-14.9,0.1-29.9,3-43.6,8.9c-13.7,5.9-26.3,14.4-36.6,25.1c-10.3,10.7-18.5,23.4-23.7,37.1
				c-5.2,13.8-7.7,28.5-7.1,43.1c1.1-29.1,13.7-57,34.2-76.8c20.4-19.8,48.5-31.3,76.8-31.1c3.4,0,6.8,0.1,10.2,0.5
				c0.8-2,1.7-3.9,2.7-5.8C-952.7-29-957-29.3-961.3-29.3z"/>
			<path class="st4" d="M-850.3,84.8c0.7-14.5-1.9-29.3-7.1-43.1c-3.9-10.2-9.4-19.7-16.1-28.4c-0.8,1.3-1.7,2.5-2.7,3.8
				C-860.6,35.9-851.3,59.9-850.3,84.8z"/>
		</g>
	</g>
</g>
<path class="st3" d="M-837.6-74.1c-0.2,0-3.9-0.3-10-0.3c-19.6,0-56.4,3-81.5,22.8c-6.9,5.4-14.2,13.5-19.2,23
	c-1,1.9-1.9,3.8-2.7,5.8c-2,5-3.3,10.2-3.7,15.7c-0.6,10.5,2.5,20.5,9.1,29.3c1.1-2,2.2-4,3.4-5.9c-8.4-12.8-7.7-26.4-2.5-38.3
	c0.8-1.9,1.8-3.8,2.9-5.7c4.4-7.6,10.3-14.2,16.5-19.1c24.1-19.1,60.6-21.5,77.7-21.5c5.9,0,9.5,0.3,9.5,0.3
	C-859.3-50-863-15.1-877.6,8.3c-0.9,1.4-1.7,2.7-2.7,4c-0.6,0.8-1.2,1.6-1.8,2.4c-10.1,12.6-21.9,16.6-32.1,16.6
	c-8.6,0-16-2.9-20.2-6c0.7-1.6,1.4-3.2,2.2-4.8c2.5-5.3,5.4-10.5,8.5-15.4c1.5-2.5,3.2-4.9,4.9-7.4c1.8-2.4,3.5-4.8,5.4-7
	c7.4-9.2,16.1-17.4,25.8-24.2c-10,6.3-19.3,14-27.2,23c-2.1,2.2-3.9,4.5-5.8,6.8c-1.8,2.4-3.7,4.7-5.3,7.2c-3.5,4.9-6.6,10-9.5,15.3
	c-0.7,1.2-1.3,2.4-1.9,3.7c-0.1-0.1-2.1,3.8-3,5.9c0,0,0,0,0,0c-3.7,7.6-6.8,15.5-9.5,23.5c-1.9,5.7-3.6,11.5-5.1,17.3
	c-1.5,5.9-2.7,11.7-3.5,17.9l-0.5,3.8l7.9,0.7l0.3-3.9c1-11.3,3.3-23,6.4-34.3c2.1-7.6,4.7-15,7.6-22.3c5.3,3.5,13.4,6.4,22.6,6.4
	c9.9,0,24.3-3.3,36.9-19c0.4-0.5,0.7-1,1.1-1.5c0.9-1.2,1.8-2.5,2.7-3.8c6.6-10,11.1-22,15.4-33.6c6.3-16.9,12.2-32.9,23.9-42.8
	l11.5-9.7L-837.6-74.1z"/>
<path class="st0" d="M-1314.8,96.7c-18.4-2.9-37.4-2.2-56.6-3.1c0,42.8,0,83.9,0,125.1c16.6,0,32.9,1.1,49-0.3
	c21.3-1.8,34.9-14,40-35.2c4.3-18,4.3-35.8-0.3-53.8C-1287.2,112.2-1297.4,99.5-1314.8,96.7z M-1306.4,182.9
	c-3.6,11.9-12.2,17.7-24.6,18.1c-4.9,0.1-9.8-0.1-14.7,0.1c-3.4,0.2-4.5-1.1-4.5-4.5c0.1-13.3,0.1-26.5,0.1-39.8
	c0-9.7,0.1-19.4,0-29c0-3.2,0-6.5-0.1-9.7c-0.1-3.9,0.8-5.8,5.2-5.4c4.5,0.4,9.1,0,13.6,0.1c12.7,0.3,21.4,6.1,25,18.2
	C-1301.2,148.1-1301.2,165.7-1306.4,182.9z"/>
<path class="st0" d="M-1095.7,169.1c-1.3-2.2-1.4-3.6,1.4-4.8c12.8-5.4,19.1-15.8,20.6-29.1c1.9-16.8-6.7-33.6-23.5-38.5
	c-6.2-1.8-13-2.5-19.5-2.7c-13.7-0.4-27.5-0.1-42-0.1c0,3,0,5,0,7.1c0,34.5,0,69.1,0,103.6c0,14,2.3,15.9,16.4,13.6
	c0.2,0,0.3-0.1,0.5-0.1c3.7-0.1,5-1.9,4.9-5.7c-0.2-12.9-0.1-25.8-0.1-38.7c0-1.8,0.2-3.7,0.3-5.8c4.3,0,8-0.2,11.6,0.1
	c1.5,0.1,3.4,1.2,4.1,2.4c6.9,11.5,13.5,23.1,20.4,34.5c2.4,4,4.4,9.3,8,11.2c7.6,3.9,16.1,3.2,25.1,0.4
	c-5.1-8.6-9.9-16.6-14.7-24.7C-1086.6,184.4-1091.1,176.7-1095.7,169.1z M-1112.5,149.6c-7.8,0.7-15.6,0.1-24.3,0.1
	c0-12.1-0.1-23.5,0.1-35c0-0.9,1.9-2.6,2.9-2.6c7.1-0.1,14.3-0.4,21.4,0.3c10.4,1.1,15.5,7.7,15.4,18.8
	C-1097.1,141.7-1102.6,148.7-1112.5,149.6z"/>
<path class="st0" d="M-986.4,110.1c-5.6-16.6-5.5-16.6-23-15.9c-1.4,0.1-2.8,0.3-4.2,0.5c-3.3,0.4-5.1,1.9-6.3,5.3
	c-4.7,14-9.7,27.9-14.5,41.8c-7.4,21.6-14.5,43.2-22.2,64.7c-4.5,12.5-4.1,12.2,9.1,12.4c0.7,0,1.4-0.1,2.1-0.1
	c4.3-0.2,6.9-2.1,8.1-6.6c1.8-6.4,4.5-12.4,6.4-18.8c0.9-3.1,2.7-3.5,5.4-3.5c6.5,0.1,12.9,0,19.4,0c6.3,0,12.6,0.2,18.9-0.1
	c3.8-0.2,5.7,1.2,6.7,4.9c1.4,5,3.3,9.8,4.9,14.8c2.6,8.1,4,9.2,12.7,9.3c2.8,0,5.6-0.3,8.3-0.5c4.1-0.3,4.7-2.3,3.4-6.1
	C-963,178.2-974.8,144.2-986.4,110.1z M-1022.9,171.3c5.7-17.3,11.3-34.5,17.2-52.5c5.9,17.9,11.4,34.9,17.2,52.5
	C-1000.2,171.3-1011.2,171.3-1022.9,171.3z"/>
<path class="st0" d="M-1187.4,200.6c-8.9,0.3-17.8,0.1-26.7,0.1c-4.6,0-9.3,0-14,0c-2.7,0-4.9-2.2-4.9-4.9v-26.3
	c0-2.7,2.2-4.9,4.9-4.9c9.3,0,18.4,0,27.4,0c9,0,10.1-1.2,9.9-10.2c0-0.5-0.3-1-0.3-1.5c0-4.8-2.3-6.6-7.2-6.4
	c-10.3,0.3-20.6,0-30.9,0c-4.1,0-4.1-1.5-4.1-2.3c-0.2-8.9-0.2-17.7-0.2-27c0-2.7,2.2-4.9,4.9-4.9h1.3c12.6,0,25.1-0.2,37.7,0.1
	c5,0.1,7.5-1.3,7-6.9c-0.1-1.5-0.1-3,0-4.5c0.6-5.6-2-6.9-7.1-6.8c-19.9,0.3-39.8,0.1-59.7,0.1c-0.2,0-0.4,0-0.6,0
	c-2.7,0.1-4.8,2.3-4.8,4.9v114.8c0,2.7,2.2,4.9,4.9,4.9h0.7c20.3,0,40.5-0.2,60.8,0.1c5.5,0.1,7.8-1.9,7.7-7.1
	c0-1.7-0.1-3.5-0.1-5.2C-1181,202.3-1182.9,200.4-1187.4,200.6z"/>
<path class="st0" d="M-1452.8,199.5c-12.7,0.3-25.5-0.1-38.2,0.2c-4.7,0.1-5.9-1.4-5.9-5.9c0.2-28.6,0.1-57.3,0.1-85.9
	c0-14-1-14.8-15.1-13.5c-0.2,0-0.3,0-0.5,0c-4.5,0.1-6.3,1.9-6.2,6.8c0.3,18.7,0.1,37.4,0.1,56c0,18.9,0,37.7,0,56.6
	c0,2.7-0.4,5.2,3.8,5.1c21.5-0.1,43,0,64.4-0.2c1.5,0,3.8-2.2,4.3-3.7c0.8-2.7,0.6-5.8,0.6-8.8
	C-1445.2,201.1-1447.6,199.3-1452.8,199.5z"/>
<path class="st0" d="M-1400.1,108c0-14.1-1.6-15.4-15.9-13.8c-4.6,0.5-6,2.4-6,7.1c0.3,18.5,0.1,37,0.1,55.5c0,16.2,0,32.4,0,48.7
	c0,13.6,1,14.5,14.8,13.3c0.2,0,0.3,0,0.5,0c4.6-0.2,6.5-2,6.5-7.1C-1400.3,177.1-1400.1,142.5-1400.1,108z"/>
<g>
	<path class="st3" d="M-1497.7,284.3h-14.6l-2.1,4.7h-5.2l14.5-31.4h0.3l14.5,31.4h-5.2L-1497.7,284.3z M-1499.5,280.1l-5.4-12
		l-5.4,12H-1499.5z"/>
	<path class="st3" d="M-1489.6,283.5l3.8-2.7c1.4,2.4,3.9,3.8,6.9,3.8c3.5,0,6.1-1.7,6.1-4c0-2.8-4-4.6-7.6-6.1
		c-3.6-1.6-7.6-3.5-7.6-8.3c0-5,4.4-8.5,9.9-8.5c4.4,0,7.7,2.1,8.9,5.5l-3.6,2.5c-1-2.1-3.1-3.2-5.3-3.2c-2.8,0-5.1,1.8-5.1,3.9
		c0,2.4,2.8,3.3,6.6,4.9c4.9,2.1,8.6,4.5,8.6,9.3c0,5.5-4.7,9-11,9C-1484.1,289.4-1487.9,287.1-1489.6,283.5z"/>
	<path class="st3" d="M-1459.1,262.9v7.9h11.6v4.8h-11.6v8.5h13.5v4.8h-18.3v-30.7h18.3v4.7H-1459.1z"/>
	<path class="st3" d="M-1442.4,283.5l3.8-2.7c1.4,2.4,3.9,3.8,6.9,3.8c3.4,0,6.1-1.7,6.1-4c0-2.8-4-4.6-7.6-6.1
		c-3.6-1.6-7.6-3.5-7.6-8.3c0-5,4.4-8.5,9.9-8.5c4.4,0,7.7,2.1,8.9,5.5l-3.6,2.5c-1-2.1-3.1-3.2-5.3-3.2c-2.8,0-5.1,1.8-5.1,3.9
		c0,2.4,2.8,3.3,6.6,4.9c4.9,2.1,8.6,4.5,8.6,9.3c0,5.5-4.7,9-11,9C-1436.8,289.4-1440.6,287.1-1442.4,283.5z"/>
	<path class="st3" d="M-1418.1,273.6c0-8.8,7.1-15.9,15.9-15.9c8.7,0,15.9,7.2,15.9,15.9c0,8.7-7.2,15.8-15.9,15.8
		C-1410.9,289.4-1418.1,282.3-1418.1,273.6z M-1391.2,273.6c0-6.1-5-11-11-11c-6.1,0-11,5-11,11c0,6,4.9,11,11,11
		C-1396.1,284.5-1391.2,279.6-1391.2,273.6z"/>
	<path class="st3" d="M-1365,288.9l-8.3-11.9h-3.8v11.9h-4.8l0-30.7h9.6c5.7,0,10.4,4.4,10.4,9.9c0,4-2.6,7.4-6.1,8.6l8.9,12.3
		H-1365z M-1372.2,273c2.9,0,5.3-2.3,5.3-5.1c0-2.9-2.5-5-5.3-5h-4.8V273H-1372.2z"/>
	<path class="st3" d="M-1356.3,255.7l3.8-6.2h4.3l-4.5,6.2H-1356.3z M-1355.8,258.2h4.8v30.7h-4.8V258.2z"/>
	<path class="st3" d="M-1325.7,284.3h-14.6l-2.1,4.7h-5.2l14.5-31.4h0.3l14.5,31.4h-5.2L-1325.7,284.3z M-1327.6,280.1l-5.4-12
		l-5.4,12H-1327.6z"/>
	<path class="st3" d="M-1315.6,295.1c1.3,0,3.5-1.1,3.5-3.9c0-0.7-0.1-1-0.3-1.5c-1.3,0-2.9-1-2.9-3c0-1.8,1.4-3.4,3.4-3.4
		c1.9,0,3.6,1.6,3.6,4.9c0,4.2-2.3,7.7-5.5,7.7C-1315,296-1315.6,295.4-1315.6,295.1z"/>
	<path class="st3" d="M-1293.2,273.6c0-8.7,7.2-15.9,15.9-15.9c4,0.1,7.7,1.8,10.7,4.7l-2.8,3.8c-2.2-2.2-5-3.6-8-3.6
		c-5.6,0-10.9,4.9-10.9,11c0,6.2,5.4,11,10.9,11c3.1,0,5.9-1.6,8-3.7l2.8,3.9c-2.7,2.6-6,4.6-10.6,4.6
		C-1285.9,289.4-1293.2,282.3-1293.2,273.6z"/>
	<path class="st3" d="M-1265.6,273.6c0-8.8,7.1-15.9,15.9-15.9c8.7,0,15.9,7.2,15.9,15.9c0,8.7-7.2,15.8-15.9,15.8
		C-1258.4,289.4-1265.6,282.3-1265.6,273.6z M-1238.7,273.6c0-6.1-5-11-11-11c-6.1,0-11,5-11,11c0,6,4.9,11,11,11
		C-1243.6,284.5-1238.7,279.6-1238.7,273.6z"/>
	<path class="st3" d="M-1204.6,258.1v31.3h-0.2l-19.7-20.5v20h-4.8v-31.3h0.2l19.6,20.5v-20H-1204.6z"/>
	<path class="st3" d="M-1200.5,283.5l3.8-2.7c1.4,2.4,3.9,3.8,6.9,3.8c3.5,0,6.1-1.7,6.1-4c0-2.8-4-4.6-7.6-6.1
		c-3.6-1.6-7.6-3.5-7.6-8.3c0-5,4.4-8.5,9.9-8.5c4.4,0,7.7,2.1,8.9,5.5l-3.6,2.5c-1-2.1-3.1-3.2-5.3-3.2c-2.8,0-5.1,1.8-5.1,3.9
		c0,2.4,2.8,3.3,6.6,4.9c4.9,2.1,8.6,4.5,8.6,9.3c0,5.5-4.7,9-11,9C-1194.9,289.4-1198.7,287.1-1200.5,283.5z"/>
	<path class="st3" d="M-1175,277.3v-19.1h4.8v19.1c0,4.3,3,7.4,6.8,7.4s6.8-3.1,6.8-7.4v-19.1h4.9v19.1c0,7.1-5.1,12.2-11.6,12.2
		S-1175,284.3-1175,277.3z"/>
	<path class="st3" d="M-1127.6,284.1v4.8h-18.5v-30.7h4.8v25.9H-1127.6z"/>
	<path class="st3" d="M-1110.2,263h-8.2v26h-4.8v-26h-8.2v-4.8h21.3V263z"/>
	<path class="st3" d="M-1109.4,273.6c0-8.8,7.1-15.9,15.9-15.9c8.7,0,15.9,7.2,15.9,15.9c0,8.7-7.2,15.8-15.9,15.8
		C-1102.3,289.4-1109.4,282.3-1109.4,273.6z M-1082.5,273.6c0-6.1-5-11-11-11c-6.1,0-11,5-11,11c0,6,4.9,11,11,11
		C-1087.5,284.5-1082.5,279.6-1082.5,273.6z"/>
	<path class="st3" d="M-1056.3,288.9l-8.3-11.9h-3.8v11.9h-4.8l0-30.7h9.6c5.7,0,10.4,4.4,10.4,9.9c0,4-2.6,7.4-6.1,8.6l8.9,12.3
		H-1056.3z M-1063.5,273c2.9,0,5.3-2.3,5.3-5.1c0-2.9-2.5-5-5.3-5h-4.8V273H-1063.5z"/>
	<path class="st3" d="M-1047.7,255.7l3.8-6.2h4.3l-4.5,6.2H-1047.7z M-1047.1,258.2h4.8v30.7h-4.8V258.2z"/>
	<path class="st3" d="M-1017,284.3h-14.6l-2.1,4.7h-5.2l14.5-31.4h0.3l14.5,31.4h-5.2L-1017,284.3z M-1018.9,280.1l-5.4-12l-5.4,12
		H-1018.9z"/>
	<path class="st3" d="M-969.2,289.2c-2.1,0-4.9-1.3-7.9-3.2c-2.3,2.3-5.3,3.5-8.7,3.5c-7,0-10.5-5.1-10.5-9.6c0-3.7,2.5-7.3,5.2-8.9
		c-1.2-2.2-1.9-4.2-1.9-5.9c0-3.8,3.5-7.7,8.1-7.7c4.2,0,7.4,3.2,8,6.9l-4.7,0.9c-0.2-1.9-1.8-3.3-3.5-3.3c-1.8,0-3.2,1.5-3.2,3.5
		c0,3.6,4.8,9.7,9.8,14.1c0.7-1.7,1.2-3.7,1.3-5.9l4.5-0.1c-0.1,3.5-0.8,6.5-2,8.9c2.1,1.4,4,2.3,5.4,2.3L-969.2,289.2z M-981,283
		c-2.9-2.5-5.7-5.4-7.9-8.4c-1.8,1.3-2.9,3-2.9,5c0,2.9,2,5.2,5.7,5.2C-984,284.8-982.3,284.2-981,283z"/>
	<path class="st3" d="M-955.4,273.6c0-8.7,7.2-15.9,15.9-15.9c4,0.1,7.7,1.8,10.7,4.7l-2.8,3.8c-2.2-2.2-5-3.6-8-3.6
		c-5.6,0-10.9,4.9-10.9,11c0,6.2,5.4,11,10.9,11c3.1,0,5.9-1.6,8-3.7l2.8,3.9c-2.7,2.6-6,4.6-10.6,4.6
		C-948.2,289.4-955.4,282.3-955.4,273.6z"/>
	<path class="st3" d="M-905.7,284.3h-14.5l-2.1,4.7h-5.2l14.5-31.4h0.3l14.5,31.4h-5.2L-905.7,284.3z M-907.5,280.1l-5.4-12l-5.4,12
		H-907.5z"/>
	<path class="st3" d="M-894.9,258.2h10.3c5.9,0,10.8,4.6,10.8,10.1c0,5.5-4.9,9.9-10.8,9.9h-5.5v10.7h-4.8V258.2z M-878.7,268.3
		c0-2.9-2.7-5.3-6-5.3h-5.5v10.5l5.5,0C-881.3,273.5-878.7,271.2-878.7,268.3z"/>
	<path class="st3" d="M-856.4,284.3h-14.5l-2.1,4.7h-5.2l14.5-31.4h0.3l14.5,31.4h-5.2L-856.4,284.3z M-858.2,280.1l-5.4-12l-5.4,12
		H-858.2z"/>
	<path class="st3" d="M-850,273.6c0-8.7,7.2-15.9,15.9-15.9c4,0.1,7.7,1.8,10.7,4.7l-2.8,3.8c-2.2-2.2-5-3.6-8-3.6
		c-5.6,0-10.9,4.9-10.9,11c0,6.2,5.4,11,10.9,11c3.1,0,5.9-1.6,8-3.7l2.8,3.9c-2.7,2.6-6,4.6-10.6,4.6
		C-842.7,289.4-850,282.3-850,273.6z"/>
	<path class="st3" d="M-819.6,258.2h4.8v30.7h-4.8V258.2z"/>
	<path class="st3" d="M-789.6,263h-8.2v26h-4.8v-26h-8.2v-4.8h21.3V263z"/>
	<path class="st3" d="M-770.2,284.3h-14.5l-2.1,4.7h-5.2l14.5-31.4h0.3l14.5,31.4h-5.2L-770.2,284.3z M-772.1,280.1l-5.4-12l-5.4,12
		H-772.1z"/>
	<path class="st3" d="M-763.8,273.6c0-8.7,7.2-15.9,15.9-15.9c4,0.1,7.7,1.8,10.7,4.7l-2.8,3.8c-2.2-2.2-5-3.6-8-3.6
		c-5.6,0-10.9,4.9-10.9,11c0,6.2,5.4,11,10.9,11c3.1,0,5.9-1.6,8-3.7l2.8,3.9c-2.7,2.6-6,4.6-10.6,4.6
		C-756.6,289.4-763.8,282.3-763.8,273.6z"/>
	<path class="st3" d="M-733.4,258.2h4.8v30.7h-4.8V258.2z"/>
	<path class="st3" d="M-724.1,273.6c0-8.8,7.1-15.9,15.9-15.9c8.7,0,15.9,7.2,15.9,15.9c0,8.7-7.2,15.8-15.9,15.8
		C-717,289.4-724.1,282.3-724.1,273.6z M-697.2,273.6c0-6.1-5-11-11-11c-6.1,0-11,5-11,11c0,6,4.9,11,11,11
		C-702.2,284.5-697.2,279.6-697.2,273.6z M-711.2,255.7l3.8-6.2h4.3l-4.5,6.2H-711.2z"/>
	<path class="st3" d="M-663.2,258.1v31.3h-0.2l-19.7-20.5v20h-4.8v-31.3h0.2l19.6,20.5v-20H-663.2z"/>
</g>
<g>
	<path class="st0" d="M-685.5,155.1c18.5,11.2,20.7,24.7,16,43.3c-3.5,14-15.2,19-28.4,19.8c-13.8,0.7-27.6,0.1-41.4,0.3
		c-5.9,0.1-6.8-3.5-6.8-8c-0.1-11.5-0.1-23.1-0.1-34.6c0-23.6,0.2-47.2-0.1-70.8c-0.1-7.6,2.1-11.2,10.3-10.7
		c12.1,0.7,24.3-0.5,36.4,0.7c13.3,1.4,23.4,7,26.8,20.6c3.4,13.7,2.5,26.8-9.5,36.8C-683.1,153.2-684,153.9-685.5,155.1z
		 M-737.7,183.2c0,7.7,0.1,14,0,20.3c-0.2,5,1.5,7.8,7,7.6c10.7-0.2,21.5,0.2,32.2-0.4c14.3-0.8,22.4-9.3,22.9-23.1
		c0.7-16.2-5.9-24.8-21.1-27.2c-5.1-0.8-10.4-1.3-15.6-1.2c-7.9,0.2-17.8-3.4-23.2,1.6C-741.4,166.3-736.6,176.5-737.7,183.2z
		 M-716.8,153c5.9,0.2,13.7,0.2,21.2-1.8c10.8-2.9,16.9-12,16.5-24.6c-0.4-13-6.5-21.1-17.7-23.5c-11.7-2.5-23.6-1.2-35.5-1.4
		c-4.6-0.1-5.4,2.8-5.4,6.5c0,8.5,0,17,0,25.5C-737.7,153-737.7,153-716.8,153z"/>
	<path class="st0" d="M-813.3,181.9c-6.9,0-13.8,0.3-20.7-0.1c-5.8-0.3-9.2,1.7-11.1,7.3c-2.8,8-6.2,15.8-9.4,23.7
		c-1.3,3.1-3,6.8-7.1,5c-4.2-1.9-1.1-5.3-0.1-7.8c14.2-36,28.4-72,42.7-107.9c1.3-3.2,1.9-7.5,6.6-7.2c4.2,0.3,4.6,4.4,5.7,7.3
		c14.3,35.7,28.5,71.3,42.6,107.1c1,2.6,4.5,6.4-0.2,8.4c-4.6,2-6-2.4-7.4-5.7c-3.2-7.6-6.5-15.2-9.1-22.9
		c-1.9-5.6-5.3-7.6-11.1-7.3C-798.9,182.2-806.1,181.9-813.3,181.9z M-811.7,111.1c-0.7,0-1.5,0-2.2,0c-7.8,19.5-15.6,39-23.4,58.6
		c-1.5,3.9,0.5,4.8,4,4.8c13.5-0.1,27-0.1,40.5,0c4,0,5.8-1.2,4.1-5.4C-796.4,149.8-804.1,130.4-811.7,111.1z"/>
	<path class="st0" d="M-938.8,156.2c0-17.8-0.1-35.6,0.1-53.4c0-3-1.2-7.5,4.1-7.2c4.5,0.2,3.4,4.3,3.4,7.1
		c0.1,32.9,0.3,65.7-0.1,98.6c-0.1,7.6,2.2,10.1,9.8,9.8c12.9-0.5,25.9-0.2,38.8-0.1c3.1,0,7.6-0.8,7.2,4.2
		c-0.3,4.3-4.6,3.1-7.3,3.1c-16,0.1-31.9-0.1-47.9,0.2c-6,0.1-8.3-2.1-8.2-8.1C-938.6,192.3-938.8,174.2-938.8,156.2z"/>
</g>
<path class="st3" d="M-939.5,26.3"/>
<g>
	<g>
		<path class="st1" d="M-939.9,559.7c8.5-8.5,18.2-15.8,28.7-21.5c-9.9,6.6-18.8,14.6-26.4,23.6c-7.6,9-14.1,18.9-19.5,29.3
			c-1.3,2.5-2.5,5-3.7,7.5c0.5,0.6,1,1.1,1.6,1.7c3.6,3.6,12.1,7.6,22.3,7.6c10.2,0,22.2-4.1,32.4-16.8
			c18.7-23.3,20.9-63.6,44.4-83.5c0,0-3.7-0.3-9.6-0.3c-17.3,0-54.1,2.5-78.5,21.7c-17.2,13.5-32.7,40.1-17.1,63.7
			c0.9-1.6,1.9-3.2,2.9-4.7C-955.9,577.8-948.4,568.2-939.9,559.7z"/>
		<g>
			<path class="st1" d="M-939.9,559.7c8.5-8.5,18.2-15.8,28.7-21.5c-9.9,6.6-18.8,14.6-26.4,23.6c-7.6,9-14.1,18.9-19.5,29.3
				c-1.3,2.5-2.5,5-3.7,7.5c0.5,0.6,1,1.1,1.6,1.7c3.6,3.6,12.1,7.6,22.3,7.6c10.2,0,22.2-4.1,32.4-16.8
				c18.7-23.3,20.9-63.6,44.4-83.5c0,0-3.7-0.3-9.6-0.3c-17.3,0-54.1,2.5-78.5,21.7c-17.2,13.5-32.7,40.1-17.1,63.7
				c0.9-1.6,1.9-3.2,2.9-4.7C-955.9,577.8-948.4,568.2-939.9,559.7z"/>
			<g>
				<path class="st1" d="M-903.5,580.8c1.2,1.2,2.4,2.5,3.5,3.8c14.7-23.7,18.4-58.9,39.9-77c0,0-3.7-0.3-9.6-0.3
					c-17.3,0-54.1,2.5-78.5,21.7c-6.3,5-12.3,11.6-16.7,19.3c8.4,1.5,16.6,3.8,24.4,7.1C-926.6,561.4-913.9,570-903.5,580.8z"/>
				<path class="st2" d="M-984.5,546.5c-15.1,0.1-30.2,3.1-44,8.9c-13.8,5.9-26.6,14.5-37,25.3c-10.5,10.8-18.6,23.6-24,37.5
					c-5.2,13.9-7.8,28.8-7.1,43.5c1.1-29.4,13.9-57.6,34.6-77.6c20.6-20,49-31.6,77.6-31.4c3.4,0,6.9,0.1,10.3,0.5
					c0.8-2,1.7-4,2.7-5.9C-975.8,546.9-980.2,546.6-984.5,546.5z"/>
				<path class="st2" d="M-872.4,661.8c0.7-14.7-1.9-29.6-7.1-43.5c-3.9-10.3-9.5-19.9-16.3-28.7c-0.9,1.3-1.8,2.6-2.7,3.8
					C-882.9,612.4-873.4,636.7-872.4,661.8z"/>
			</g>
		</g>
	</g>
	<path class="st3" d="M-859.6,501.4c-0.2,0-4-0.3-10.1-0.3c-19.8,0-56.9,3-82.3,23.1c-7,5.5-14.3,13.6-19.4,23.2
		c-1,1.9-1.9,3.9-2.7,5.9c-2,5-3.4,10.3-3.7,15.9c-0.6,10.6,2.5,20.7,9.2,29.6c1.1-2,2.3-4,3.4-6c-8.5-12.9-7.7-26.6-2.5-38.7
		c0.8-2,1.8-3.9,2.9-5.7c4.4-7.7,10.4-14.3,16.7-19.3c24.4-19.2,61.2-21.7,78.5-21.7c6,0,9.6,0.3,9.6,0.3
		c-21.4,18.1-25.2,53.3-39.9,77c-0.9,1.4-1.8,2.7-2.7,4c-0.6,0.8-1.2,1.6-1.8,2.4c-10.2,12.7-22.1,16.8-32.4,16.8
		c-8.7,0-16.1-2.9-20.4-6c0.7-1.6,1.4-3.3,2.2-4.9c2.6-5.3,5.4-10.6,8.6-15.6c1.5-2.6,3.3-5,4.9-7.4c1.8-2.4,3.5-4.8,5.4-7.1
		c7.4-9.3,16.2-17.5,26-24.5c-10.1,6.4-19.5,14.2-27.5,23.2c-2.1,2.2-3.9,4.6-5.9,6.9c-1.8,2.4-3.7,4.8-5.4,7.3
		c-3.5,4.9-6.7,10.1-9.6,15.4c-0.7,1.2-1.3,2.5-1.9,3.7c-0.1-0.1-2.1,3.8-3,5.9c0,0,0,0,0,0c-3.7,7.7-6.9,15.6-9.6,23.7
		c-1.9,5.8-3.6,11.6-5.1,17.5c-1.5,5.9-2.7,11.8-3.6,18.1l-0.5,3.9l8,0.7l0.3-3.9c1-11.4,3.4-23.2,6.5-34.6
		c2.1-7.6,4.7-15.2,7.7-22.5c5.4,3.5,13.5,6.4,22.9,6.4c10,0,24.5-3.3,37.3-19.1c0.4-0.5,0.7-1,1.1-1.5c0.9-1.2,1.8-2.5,2.7-3.8
		c6.7-10.1,11.2-22.2,15.5-34c6.3-17.1,12.3-33.3,24.2-43.3l11.6-9.8L-859.6,501.4z"/>
	<path class="st2" d="M-1341.6,673.9c-18.6-2.9-37.8-2.2-57.2-3.1c0,43.2,0,84.7,0,126.4c16.8,0,33.2,1.1,49.5-0.3
		c21.5-1.9,35.3-14.1,40.4-35.6c4.3-18.2,4.3-36.2-0.3-54.3C-1313.7,689.5-1324,676.7-1341.6,673.9z M-1333.1,760.9
		c-3.6,12-12.3,17.9-24.8,18.2c-4.9,0.1-9.9-0.1-14.8,0.1c-3.5,0.2-4.6-1.1-4.5-4.6c0.1-13.4,0.1-26.8,0.1-40.2
		c0-9.8,0.1-19.6,0-29.3c0-3.3,0-6.5-0.1-9.8c-0.1-3.9,0.8-5.9,5.2-5.5c4.6,0.4,9.2,0,13.7,0.1c12.8,0.3,21.6,6.1,25.3,18.4
		C-1327.9,725.8-1327.9,743.5-1333.1,760.9z"/>
	<path class="st2" d="M-1120.2,747c-1.3-2.2-1.4-3.7,1.4-4.9c12.9-5.5,19.2-16,20.8-29.4c2-17-6.7-33.9-23.8-38.9
		c-6.3-1.9-13.1-2.5-19.7-2.7c-13.9-0.4-27.8-0.1-42.4-0.1c0,3,0,5.1,0,7.2c0,34.9,0,69.8,0,104.7c0,14.1,2.3,16,16.5,13.8
		c0.2,0,0.3-0.1,0.5-0.1c3.7-0.1,5-2,5-5.8c-0.2-13-0.1-26.1-0.1-39.1c0-1.8,0.2-3.7,0.3-5.8c4.3,0,8-0.2,11.7,0.1
		c1.5,0.1,3.4,1.2,4.1,2.5c7,11.6,13.7,23.3,20.6,34.9c2.4,4,4.4,9.4,8.1,11.3c7.6,3.9,16.2,3.2,25.4,0.4
		c-5.2-8.7-10-16.8-14.8-24.9C-1111.1,762.4-1115.6,754.7-1120.2,747z M-1137.3,727.3c-7.8,0.7-15.8,0.1-24.6,0.1
		c0-12.2-0.1-23.8,0.1-35.3c0-0.9,1.9-2.6,2.9-2.6c7.2-0.1,14.5-0.4,21.6,0.3c10.5,1.1,15.6,7.8,15.5,19
		C-1121.7,719.3-1127.3,726.4-1137.3,727.3z"/>
	<path class="st2" d="M-1009.9,687.4c-5.7-16.7-5.5-16.8-23.2-16.1c-1.4,0.1-2.8,0.3-4.2,0.5c-3.3,0.4-5.2,1.9-6.3,5.3
		c-4.7,14.1-9.8,28.1-14.6,42.2c-7.5,21.8-14.7,43.7-22.4,65.4c-4.5,12.6-4.1,12.4,9.1,12.5c0.7,0,1.4-0.1,2.1-0.1
		c4.4-0.2,7-2.1,8.2-6.6c1.8-6.4,4.6-12.6,6.5-19c0.9-3.1,2.7-3.5,5.4-3.5c6.5,0.1,13.1,0,19.6,0c6.3,0,12.7,0.2,19-0.1
		c3.9-0.2,5.7,1.2,6.8,4.9c1.4,5.1,3.3,9.9,5,14.9c2.7,8.2,4.1,9.3,12.8,9.4c2.8,0,5.6-0.3,8.4-0.5c4.1-0.3,4.8-2.3,3.5-6.1
		C-986.2,756.2-998.1,721.8-1009.9,687.4z M-1046.8,749.2c5.7-17.5,11.4-34.8,17.4-53.1c5.9,18.1,11.5,35.2,17.3,53.1
		C-1023.8,749.2-1034.9,749.2-1046.8,749.2z"/>
	<path class="st2" d="M-1212.9,778.8c-9,0.3-18,0.1-27,0.1c-4.7,0-9.4,0-14.1,0c-2.7,0-5-2.2-5-5v-26.6c0-2.7,2.2-5,5-5
		c9.4,0,18.6,0,27.7,0c9.1,0,10.2-1.2,10-10.3c0-0.5-0.3-1-0.3-1.6c0-4.9-2.3-6.6-7.3-6.5c-10.4,0.4-20.8,0-31.2,0
		c-4.1,0-4.1-1.5-4.1-2.3c-0.2-9-0.2-17.9-0.2-27.3c0-2.7,2.2-5,5-5h1.3c12.7,0,25.4-0.2,38.1,0.1c5,0.1,7.6-1.4,7.1-7
		c-0.1-1.5-0.1-3,0-4.6c0.6-5.7-2-7-7.2-6.9c-20.1,0.3-40.2,0.1-60.3,0.1c-0.2,0-0.4,0-0.6,0c-2.7,0.1-4.8,2.3-4.8,5v115.9
		c0,2.7,2.2,5,5,5h0.7c20.5,0,40.9-0.2,61.4,0.1c5.5,0.1,7.8-1.9,7.8-7.2c0-1.8-0.1-3.5-0.1-5.2
		C-1206.4,780.5-1208.4,778.7-1212.9,778.8z"/>
	<path class="st2" d="M-1480.9,777.7c-12.9,0.3-25.8-0.1-38.6,0.2c-4.7,0.1-6-1.4-5.9-6c0.2-28.9,0.1-57.9,0.1-86.8
		c0-14.1-1-15-15.3-13.6c-0.2,0-0.4,0-0.5,0.1c-4.5,0.1-6.3,2-6.3,6.9c0.3,18.9,0.1,37.7,0.1,56.6c0,19,0,38.1,0,57.1
		c0,2.7-0.4,5.2,3.8,5.2c21.7-0.1,43.4,0,65.1-0.2c1.5,0,3.8-2.2,4.3-3.8c0.8-2.8,0.6-5.9,0.7-8.8
		C-1473.3,779.3-1475.7,777.5-1480.9,777.7z"/>
	<path class="st2" d="M-1427.8,685.3c0-14.3-1.6-15.5-16-13.9c-4.6,0.5-6.1,2.4-6,7.1c0.3,18.7,0.1,37.4,0.1,56
		c0,16.4,0,32.8,0,49.2c0,13.8,1,14.7,15,13.4c0.2,0,0.4,0,0.5,0c4.6-0.2,6.6-2,6.6-7.1C-1427.9,755.1-1427.8,720.2-1427.8,685.3z"
		/>
	<g>
		<path class="st3" d="M-1526.3,863.3h-14.7l-2.1,4.7h-5.3l14.6-31.7h0.3l14.6,31.7h-5.3L-1526.3,863.3z M-1528.2,859.1l-5.5-12.1
			l-5.5,12.1H-1528.2z"/>
		<path class="st3" d="M-1518.2,862.6l3.9-2.8c1.4,2.4,4,3.8,7,3.8c3.5,0,6.1-1.7,6.1-4c0-2.9-4.1-4.6-7.7-6.2
			c-3.6-1.6-7.7-3.5-7.7-8.4c0-5.1,4.4-8.6,10-8.6c4.4,0,7.7,2.1,9,5.5l-3.6,2.5c-1-2.1-3.1-3.3-5.4-3.3c-2.9,0-5.1,1.8-5.1,4
			c0,2.4,2.9,3.3,6.6,4.9c4.9,2.2,8.7,4.5,8.7,9.4c0,5.5-4.8,9.1-11.1,9.1C-1512.6,868.6-1516.4,866.2-1518.2,862.6z"/>
		<path class="st3" d="M-1487.3,841.8v8h11.7v4.9h-11.7v8.6h13.6v4.9h-18.5v-31h18.5v4.8H-1487.3z"/>
		<path class="st3" d="M-1470.4,862.6l3.9-2.8c1.4,2.4,4,3.8,7,3.8c3.5,0,6.1-1.7,6.1-4c0-2.9-4.1-4.6-7.7-6.2
			c-3.6-1.6-7.7-3.5-7.7-8.4c0-5.1,4.4-8.6,10-8.6c4.4,0,7.7,2.1,9,5.5l-3.6,2.5c-1-2.1-3.1-3.3-5.4-3.3c-2.9,0-5.1,1.8-5.1,4
			c0,2.4,2.9,3.3,6.6,4.9c4.9,2.2,8.7,4.5,8.7,9.4c0,5.5-4.8,9.1-11.1,9.1C-1464.8,868.6-1468.7,866.2-1470.4,862.6z"/>
		<path class="st3" d="M-1445.9,852.5c0-8.9,7.2-16.1,16-16.1c8.8,0,16.1,7.2,16.1,16.1c0,8.8-7.2,16-16.1,16
			C-1438.7,868.5-1445.9,861.3-1445.9,852.5z M-1418.7,852.5c0-6.1-5-11.2-11.2-11.2c-6.1,0-11.1,5-11.1,11.2
			c0,6.1,5,11.1,11.1,11.1C-1423.8,863.6-1418.7,858.6-1418.7,852.5z"/>
		<path class="st3" d="M-1392.3,868l-8.4-12h-3.8v12h-4.9l0-31h9.6c5.8,0,10.5,4.4,10.5,10c0,4-2.6,7.5-6.1,8.6l9,12.4H-1392.3z
			 M-1399.6,852c2.9,0,5.4-2.3,5.4-5.1c0-2.9-2.5-5-5.4-5h-4.9V852H-1399.6z"/>
		<path class="st3" d="M-1383.5,834.4l3.8-6.3h4.3l-4.6,6.3H-1383.5z M-1383,837h4.9v31h-4.9V837z"/>
		<path class="st3" d="M-1352.6,863.3h-14.7l-2.1,4.7h-5.3l14.6-31.7h0.3l14.6,31.7h-5.3L-1352.6,863.3z M-1354.5,859.1l-5.5-12.1
			l-5.5,12.1H-1354.5z"/>
		<path class="st3" d="M-1342.4,874.2c1.3,0,3.6-1.1,3.6-3.9c0-0.7-0.1-1-0.3-1.5c-1.3,0-2.9-1-2.9-3c0-1.8,1.5-3.4,3.5-3.4
			c1.9,0,3.6,1.6,3.6,4.9c0,4.2-2.4,7.8-5.6,7.8C-1341.7,875.1-1342.4,874.5-1342.4,874.2z"/>
		<path class="st3" d="M-1319.7,852.5c0-8.7,7.3-16.1,16-16.1c4,0.1,7.7,1.8,10.8,4.7l-2.8,3.8c-2.2-2.2-5-3.6-8-3.6
			c-5.6,0-11,4.9-11,11.2c0,6.3,5.5,11.1,11,11.1c3.2,0,5.9-1.6,8.1-3.7l2.8,3.9c-2.7,2.6-6.1,4.7-10.7,4.7
			C-1312.4,868.5-1319.7,861.3-1319.7,852.5z"/>
		<path class="st3" d="M-1291.9,852.5c0-8.9,7.2-16.1,16-16.1c8.8,0,16.1,7.2,16.1,16.1c0,8.8-7.2,16-16.1,16
			C-1284.7,868.5-1291.9,861.3-1291.9,852.5z M-1264.7,852.5c0-6.1-5-11.2-11.2-11.2c-6.1,0-11.1,5-11.1,11.2
			c0,6.1,5,11.1,11.1,11.1C-1269.7,863.6-1264.7,858.6-1264.7,852.5z"/>
		<path class="st3" d="M-1230.3,836.9v31.7h-0.2l-19.9-20.7v20.2h-4.9v-31.6h0.2l19.8,20.7v-20.2H-1230.3z"/>
		<path class="st3" d="M-1226.1,862.6l3.9-2.8c1.4,2.4,4,3.8,7,3.8c3.5,0,6.1-1.7,6.1-4c0-2.9-4.1-4.6-7.7-6.2
			c-3.6-1.6-7.7-3.5-7.7-8.4c0-5.1,4.4-8.6,10-8.6c4.4,0,7.7,2.1,9,5.5l-3.6,2.5c-1-2.1-3.1-3.3-5.4-3.3c-2.9,0-5.1,1.8-5.1,4
			c0,2.4,2.9,3.3,6.6,4.9c4.9,2.2,8.7,4.5,8.7,9.4c0,5.5-4.8,9.1-11.1,9.1C-1220.5,868.6-1224.4,866.2-1226.1,862.6z"/>
		<path class="st3" d="M-1200.4,856.3V837h4.9v19.3c0,4.3,3,7.4,6.8,7.4s6.9-3.1,6.9-7.4V837h4.9v19.3c0,7.1-5.1,12.3-11.7,12.3
			C-1195.3,868.6-1200.4,863.4-1200.4,856.3z"/>
		<path class="st3" d="M-1152.5,863.2v4.9h-18.7v-31h4.9v26.2H-1152.5z"/>
		<path class="st3" d="M-1135,841.8h-8.3V868h-4.9v-26.2h-8.3V837h21.5V841.8z"/>
		<path class="st3" d="M-1134.1,852.5c0-8.9,7.2-16.1,16-16.1c8.8,0,16.1,7.2,16.1,16.1c0,8.8-7.2,16-16.1,16
			C-1126.9,868.5-1134.1,861.3-1134.1,852.5z M-1106.9,852.5c0-6.1-5-11.2-11.2-11.2c-6.1,0-11.1,5-11.1,11.2
			c0,6.1,5,11.1,11.1,11.1C-1112,863.6-1106.9,858.6-1106.9,852.5z"/>
		<path class="st3" d="M-1080.5,868l-8.4-12h-3.8v12h-4.9l0-31h9.6c5.8,0,10.5,4.4,10.5,10c0,4-2.6,7.5-6.1,8.6l9,12.4H-1080.5z
			 M-1087.8,852c2.9,0,5.4-2.3,5.4-5.1c0-2.9-2.5-5-5.4-5h-4.9V852H-1087.8z"/>
		<path class="st3" d="M-1071.8,834.4l3.8-6.3h4.3l-4.6,6.3H-1071.8z M-1071.2,837h4.9v31h-4.9V837z"/>
		<path class="st3" d="M-1040.8,863.3h-14.7l-2.1,4.7h-5.3l14.6-31.7h0.3l14.6,31.7h-5.3L-1040.8,863.3z M-1042.7,859.1l-5.5-12.1
			l-5.5,12.1H-1042.7z"/>
		<path class="st3" d="M-992.5,868.3c-2.1,0-5-1.3-7.9-3.3c-2.3,2.3-5.3,3.6-8.8,3.6c-7,0-10.6-5.1-10.6-9.7c0-3.8,2.5-7.3,5.2-9
			c-1.2-2.2-1.9-4.2-1.9-6c0-3.9,3.6-7.8,8.2-7.8c4.2,0,7.5,3.3,8.1,7l-4.7,0.9c-0.2-1.9-1.8-3.4-3.5-3.4c-1.8,0-3.2,1.5-3.2,3.5
			c0,3.6,4.8,9.8,9.9,14.3c0.8-1.7,1.2-3.7,1.3-6l4.6-0.1c-0.1,3.6-0.8,6.6-2,9c2.1,1.4,4,2.3,5.5,2.3L-992.5,868.3z M-1004.4,862
			c-2.9-2.5-5.8-5.5-8-8.5c-1.8,1.3-2.9,3-2.9,5.1c0,2.9,2,5.2,5.7,5.2C-1007.5,863.9-1005.8,863.2-1004.4,862z"/>
		<path class="st3" d="M-978.6,852.5c0-8.7,7.3-16.1,16-16.1c4,0.1,7.7,1.8,10.8,4.7l-2.8,3.8c-2.2-2.2-5-3.6-8.1-3.6
			c-5.6,0-11,4.9-11,11.2c0,6.3,5.5,11.1,11,11.1c3.2,0,5.9-1.6,8.1-3.7l2.8,3.9c-2.7,2.6-6.1,4.7-10.7,4.7
			C-971.3,868.5-978.6,861.3-978.6,852.5z"/>
		<path class="st3" d="M-928.3,863.3H-943l-2.1,4.7h-5.3l14.6-31.7h0.3l14.6,31.7h-5.3L-928.3,863.3z M-930.2,859.1l-5.5-12.1
			l-5.5,12.1H-930.2z"/>
		<path class="st3" d="M-917.5,837h10.4c6,0,10.9,4.6,10.9,10.2c0,5.5-4.9,10-10.9,10h-5.5V868h-4.9V837z M-901.1,847.2
			c0-3-2.7-5.4-6-5.4h-5.5v10.6l5.5,0C-903.8,852.5-901.1,850.1-901.1,847.2z"/>
		<path class="st3" d="M-878.5,863.3h-14.7l-2.1,4.7h-5.3l14.6-31.7h0.3l14.6,31.7h-5.3L-878.5,863.3z M-880.4,859.1l-5.5-12.1
			l-5.5,12.1H-880.4z"/>
		<path class="st3" d="M-872.1,852.5c0-8.7,7.3-16.1,16-16.1c4,0.1,7.7,1.8,10.8,4.7l-2.8,3.8c-2.2-2.2-5-3.6-8.1-3.6
			c-5.6,0-11,4.9-11,11.2c0,6.3,5.5,11.1,11,11.1c3.2,0,5.9-1.6,8.1-3.7l2.8,3.9c-2.7,2.6-6.1,4.7-10.7,4.7
			C-864.8,868.5-872.1,861.3-872.1,852.5z"/>
		<path class="st3" d="M-841.4,837h4.9v31h-4.9V837z"/>
		<path class="st3" d="M-811.1,841.8h-8.3V868h-4.9v-26.2h-8.3V837h21.5V841.8z"/>
		<path class="st3" d="M-791.5,863.3h-14.7l-2.1,4.7h-5.3l14.6-31.7h0.3l14.6,31.7h-5.3L-791.5,863.3z M-793.4,859.1l-5.5-12.1
			l-5.5,12.1H-793.4z"/>
		<path class="st3" d="M-785,852.5c0-8.7,7.3-16.1,16-16.1c4,0.1,7.7,1.8,10.8,4.7l-2.8,3.8c-2.2-2.2-5-3.6-8.1-3.6
			c-5.6,0-11,4.9-11,11.2c0,6.3,5.5,11.1,11,11.1c3.2,0,5.9-1.6,8.1-3.7l2.8,3.9c-2.7,2.6-6.1,4.7-10.7,4.7
			C-777.7,868.5-785,861.3-785,852.5z"/>
		<path class="st3" d="M-754.3,837h4.9v31h-4.9V837z"/>
		<path class="st3" d="M-745,852.5c0-8.9,7.2-16.1,16-16.1c8.8,0,16.1,7.2,16.1,16.1c0,8.8-7.2,16-16.1,16
			C-737.8,868.5-745,861.3-745,852.5z M-717.8,852.5c0-6.1-5-11.2-11.2-11.2c-6.1,0-11.1,5-11.1,11.2c0,6.1,5,11.1,11.1,11.1
			C-722.8,863.6-717.8,858.6-717.8,852.5z M-731.9,834.4l3.8-6.3h4.3l-4.6,6.3H-731.9z"/>
		<path class="st3" d="M-683.4,836.9v31.7h-0.2l-19.9-20.7v20.2h-4.9v-31.6h0.3l19.8,20.7v-20.2H-683.4z"/>
	</g>
	<g>
		<path class="st2" d="M-696,732.8c18.6,11.3,20.9,24.9,16.2,43.7c-3.6,14.1-15.4,19.2-28.7,20c-13.9,0.8-27.8,0.1-41.8,0.3
			c-6,0.1-6.9-3.6-6.9-8.1c-0.1-11.6-0.1-23.3-0.1-34.9c0-23.8,0.2-47.7-0.1-71.5c-0.1-7.7,2.2-11.3,10.4-10.8
			c12.2,0.7,24.5-0.5,36.7,0.7c13.4,1.4,23.7,7.1,27,20.8c3.4,13.9,2.6,27.1-9.6,37.2C-693.5,730.9-694.4,731.6-696,732.8z
			 M-748.7,761.2c0,7.8,0.1,14.2,0,20.5c-0.2,5.1,1.5,7.8,7.1,7.7c10.9-0.2,21.7,0.2,32.6-0.4c14.4-0.8,22.6-9.4,23.2-23.3
			c0.7-16.4-6-25.1-21.4-27.4c-5.2-0.8-10.5-1.3-15.8-1.2c-8,0.2-18-3.4-23.5,1.6C-752.4,744.2-747.6,754.5-748.7,761.2z
			 M-727.6,730.7c6,0.2,13.8,0.2,21.4-1.8c10.9-2.9,17-12.1,16.6-24.9c-0.4-13.2-6.6-21.3-17.9-23.7c-11.9-2.5-23.9-1.2-35.8-1.4
			c-4.6-0.1-5.4,2.9-5.4,6.6c0,8.6,0,17.2,0,25.8C-748.7,730.7-748.7,730.7-727.6,730.7z"/>
		<path class="st2" d="M-825,759.9c-7,0-13.9,0.3-20.9-0.1c-5.9-0.3-9.3,1.7-11.2,7.4c-2.8,8.1-6.2,16-9.5,24
			c-1.3,3.2-3,6.9-7.1,5.1c-4.2-1.9-1.1-5.4-0.1-7.8c14.3-36.4,28.7-72.7,43.2-109c1.3-3.2,1.9-7.6,6.7-7.3c4.2,0.3,4.6,4.4,5.8,7.4
			c14.4,36,28.8,72.1,43,108.2c1,2.6,4.6,6.5-0.2,8.5c-4.7,2-6.1-2.4-7.5-5.7c-3.2-7.7-6.5-15.3-9.2-23.2c-2-5.7-5.4-7.7-11.2-7.4
			C-810.5,760.2-817.8,759.9-825,759.9z M-823.4,688.4c-0.7,0-1.5,0-2.2,0c-7.9,19.7-15.8,39.4-23.7,59.2c-1.6,3.9,0.5,4.8,4,4.8
			c13.6-0.1,27.3-0.1,40.9,0c4,0,5.9-1.2,4.2-5.5C-808,727.5-815.7,707.9-823.4,688.4z"/>
		<path class="st2" d="M-951.8,733.9c0-18-0.1-36,0.1-53.9c0-3-1.2-7.5,4.1-7.3c4.6,0.2,3.4,4.4,3.5,7.1c0.1,33.2,0.3,66.4-0.1,99.6
			c-0.1,7.6,2.3,10.2,9.9,9.9c13-0.5,26.1-0.2,39.2-0.1c3.1,0,7.7-0.8,7.3,4.3c-0.3,4.4-4.6,3.1-7.4,3.2
			c-16.1,0.1-32.2-0.1-48.4,0.2c-6.1,0.1-8.4-2.1-8.3-8.2C-951.6,770.4-951.8,752.2-951.8,733.9z"/>
	</g>
	<path class="st3" d="M-962.6,602.7"/>
</g>
<rect x="-1502.3" y="-2696.6" class="st0" width="48" height="48"/>
<rect x="-1432.2" y="-2696.6" class="st3" width="48" height="48"/>
<rect x="-1433.1" y="-2709.9" class="st1" width="48.9" height="9.2"/>
<text transform="matrix(1 0 0 1 -1429.7034 -2701.4263)" class="st3" style="font-family:'MyriadPro-Regular'; font-size:12px;">#45aa35</text>
<rect x="-1503.1" y="-2709.9" class="st1" width="48.9" height="9.2"/>
<text transform="matrix(1 0 0 1 -1499.5793 -2701.4263)" class="st0" style="font-family:'MyriadPro-Regular'; font-size:12px;">#573c8f</text>
<g>
	
		<ellipse transform="matrix(0.1591 -0.9873 0.9873 0.1591 -116.9045 -29.2554)" class="st0" cx="-75.6" cy="54" rx="49.3" ry="49.3"/>
	<g>
		<path class="st2" d="M-55,66.2c-2.3-2.3-6-2.6-8.6-0.7l-5.9,3.8c0,0-3.8,1.5-14-8.7c-10-10.1-8.6-13.9-8.6-13.9v0l3.8-5.9
			c2-2.6,1.7-6.4-0.6-8.7l-5.6-5.6c-1.4-1.4-3.2-2.1-5.2-1.9c-1.9,0.1-3.7,1.1-4.8,2.6c0,0,0,0.1-0.1,0.1l-2.8,4.6
			c-0.5,0.6-11.2,16,12.5,39.9c0,0,0.2,0.2,0.2,0.2c12.4,12.4,22.5,15.4,29.5,15.4c6.4,0,10.1-2.5,10.3-2.7l4.8-2.9
			c1.5-1.2,2.5-2.9,2.7-4.8c0.1-1.9-0.6-3.8-1.9-5.2L-55,66.2z"/>
		<path class="st2" d="M-63.4,53.7c0.2,0.2,0.5,0.3,0.8,0.3c0.3,0,0.6-0.1,0.8-0.3c3.9-3.9,3.9-10.3,0-14.2
			c-3.8-3.8-10.4-3.8-14.2,0c-0.4,0.4-0.4,1.1,0,1.5c0.4,0.4,1.1,0.4,1.5,0c3-3,8.2-3,11.1,0c3.1,3.1,3,8.1,0,11.1
			C-63.8,52.6-63.8,53.3-63.4,53.7z"/>
		<path class="st2" d="M-58.6,58.1c0.3,0,0.6-0.1,0.8-0.3c6.1-6.1,6.2-16.1,0-22.3c-6.1-6.1-16.1-6.2-22.2,0c-0.4,0.4-0.4,1.1,0,1.5
			c0.4,0.4,1.1,0.4,1.5,0c2.6-2.6,6-4,9.6-3.9c3.6,0,7,1.4,9.6,4c5.3,5.3,5.3,13.9,0,19.2c-0.4,0.4-0.4,1.1,0,1.5
			C-59.2,58-58.9,58.1-58.6,58.1z"/>
		<path class="st2" d="M-82.6,32.9c3.7-3.6,8.5-5.6,13.7-5.6c5.2,0,10,2,13.7,5.7c7.5,7.6,7.5,19.8-0.1,27.4c-0.4,0.4-0.4,1.1,0,1.5
			c0.2,0.2,0.5,0.3,0.8,0.3c0.3,0,0.6-0.1,0.8-0.3c8.4-8.4,8.4-22,0.1-30.4c-4.1-4.1-9.5-6.3-15.2-6.3c-5.8,0-11.2,2.2-15.2,6.3
			c-0.4,0.4-0.4,1.1,0,1.5C-83.7,33.3-83,33.3-82.6,32.9z"/>
	</g>
</g>
<g>
	
		<ellipse transform="matrix(0.1591 -0.9873 0.9873 0.1591 100.8185 226.3664)" class="st0" cx="183.3" cy="54" rx="49.3" ry="49.3"/>
	<g>
		<path class="st2" d="M203.9,66.2c-2.3-2.3-6-2.6-8.6-0.7l-5.9,3.8c0,0-3.8,1.5-14-8.7c-10-10.1-8.6-13.9-8.6-13.9l0,0l3.8-5.9
			c2-2.6,1.7-6.4-0.6-8.7l-5.6-5.6c-1.4-1.4-3.2-2.1-5.2-1.9c-1.9,0.1-3.7,1.1-4.8,2.6c0,0,0,0.1-0.1,0.1l-2.8,4.6
			c-0.5,0.6-11.2,16,12.5,39.9c0,0,0.2,0.2,0.2,0.2c12.4,12.4,22.5,15.4,29.5,15.4c6.4,0,10.1-2.5,10.3-2.7l4.8-2.9
			c1.5-1.2,2.5-2.9,2.7-4.8c0.1-1.9-0.6-3.8-1.9-5.2L203.9,66.2z"/>
		<path class="st2" d="M195.5,53.7c0.2,0.2,0.5,0.3,0.8,0.3c0.3,0,0.6-0.1,0.8-0.3c3.9-3.9,3.9-10.3,0-14.2
			c-3.8-3.8-10.4-3.8-14.2,0c-0.4,0.4-0.4,1.1,0,1.5c0.4,0.4,1.1,0.4,1.5,0c3-3,8.2-3,11.1,0c3.1,3.1,3,8.1,0,11.1
			C195.1,52.6,195.1,53.3,195.5,53.7z"/>
		<path class="st2" d="M200.3,58.1c0.3,0,0.6-0.1,0.8-0.3c6.1-6.1,6.2-16.1,0-22.3c-6.1-6.1-16.1-6.2-22.2,0c-0.4,0.4-0.4,1.1,0,1.5
			c0.4,0.4,1.1,0.4,1.5,0c2.6-2.6,6-4,9.6-3.9c3.6,0,7,1.4,9.6,4c5.3,5.3,5.3,13.9,0,19.2c-0.4,0.4-0.4,1.1,0,1.5
			C199.7,58,200,58.1,200.3,58.1z"/>
		<path class="st2" d="M176.3,32.9c3.7-3.6,8.5-5.6,13.7-5.6c5.2,0,10,2,13.7,5.7c7.5,7.6,7.5,19.8-0.1,27.4c-0.4,0.4-0.4,1.1,0,1.5
			c0.2,0.2,0.5,0.3,0.8,0.3c0.3,0,0.6-0.1,0.8-0.3c8.4-8.4,8.4-22,0.1-30.4c-4.1-4.1-9.5-6.3-15.2-6.3c-5.8,0-11.2,2.2-15.2,6.3
			c-0.4,0.4-0.4,1.1,0,1.5C175.2,33.3,175.9,33.3,176.3,32.9z"/>
	</g>
</g>
<g>
	
		<ellipse transform="matrix(0.1591 -0.9873 0.9873 0.1591 209.6801 354.1773)" class="st0" cx="312.8" cy="54" rx="49.3" ry="49.3"/>
	<g>
		<path class="st2" d="M333.3,66.2c-2.3-2.3-6-2.6-8.6-0.7l-5.9,3.8c0,0-3.8,1.5-14-8.7c-10-10.1-8.6-13.9-8.6-13.9v0l3.8-5.9
			c2-2.6,1.7-6.4-0.6-8.7l-5.6-5.6c-1.4-1.4-3.2-2.1-5.2-1.9c-1.9,0.1-3.7,1.1-4.8,2.6c0,0,0,0.1-0.1,0.1l-2.8,4.6
			c-0.5,0.6-11.2,16,12.5,39.9c0,0,0.2,0.2,0.2,0.2c12.4,12.4,22.5,15.4,29.5,15.4c6.4,0,10.1-2.5,10.3-2.7l4.8-2.9
			c1.5-1.2,2.5-2.9,2.7-4.8c0.1-1.9-0.6-3.8-1.9-5.2L333.3,66.2z"/>
		<path class="st2" d="M325,53.7c0.2,0.2,0.5,0.3,0.8,0.3s0.6-0.1,0.8-0.3c3.9-3.9,3.9-10.3,0-14.2c-3.8-3.8-10.4-3.8-14.2,0
			c-0.4,0.4-0.4,1.1,0,1.5c0.4,0.4,1.1,0.4,1.5,0c3-3,8.2-3,11.1,0c3.1,3.1,3,8.1,0,11.1C324.5,52.6,324.5,53.3,325,53.7z"/>
		<path class="st2" d="M329.7,58.1c0.3,0,0.6-0.1,0.8-0.3c6.1-6.1,6.2-16.1,0-22.3c-6.1-6.1-16.1-6.2-22.2,0c-0.4,0.4-0.4,1.1,0,1.5
			c0.4,0.4,1.1,0.4,1.5,0c2.6-2.6,6-4,9.6-3.9c3.6,0,7,1.4,9.6,4c5.3,5.3,5.3,13.9,0,19.2c-0.4,0.4-0.4,1.1,0,1.5
			C329.2,58,329.5,58.1,329.7,58.1z"/>
		<path class="st2" d="M305.8,32.9c3.7-3.6,8.5-5.6,13.7-5.6c5.2,0,10,2,13.7,5.7c7.5,7.6,7.5,19.8-0.1,27.4c-0.4,0.4-0.4,1.1,0,1.5
			c0.2,0.2,0.5,0.3,0.8,0.3c0.3,0,0.6-0.1,0.8-0.3c8.4-8.4,8.4-22,0.1-30.4c-4.1-4.1-9.5-6.3-15.2-6.3c-5.8,0-11.2,2.2-15.2,6.3
			c-0.4,0.4-0.4,1.1,0,1.5C304.7,33.3,305.3,33.3,305.8,32.9z"/>
	</g>
</g>
<g>
	<g>
		
			<ellipse transform="matrix(0.9259 -0.3777 0.3777 0.9259 -16.0047 24.6094)" class="st0" cx="54.7" cy="53.1" rx="49.6" ry="49.6"/>
	</g>
	<g>
		<g>
			<rect x="23.4" y="32" class="st2" width="62.6" height="42.2"/>
			<path class="st5" d="M86,75.8H23.5c-0.9,0-1.5-0.7-1.5-1.5V32c0-0.9,0.7-1.5,1.5-1.5H86c0.9,0,1.5,0.7,1.5,1.5v42.2
				C87.6,75.1,86.9,75.8,86,75.8z M25,72.7h59.5V33.5H25V72.7z"/>
		</g>
		<g>
			<path class="st5" d="M54.7,59.1c-2.1,0-4.1-0.7-5.8-2.2L22.4,33.1c-0.5-0.4-0.6-1.1-0.4-1.7c0.2-0.6,0.8-1,1.4-1H86
				c0.6,0,1.2,0.4,1.4,1c0.2,0.6,0.1,1.3-0.4,1.7L60.5,56.9l0,0C58.9,58.4,56.8,59.1,54.7,59.1z M27.5,33.5l23.5,21
				c2.1,1.9,5.3,1.9,7.4,0l23.5-21H27.5z M59.5,55.7L59.5,55.7L59.5,55.7z"/>
		</g>
		<g>
			<path class="st5" d="M86,75.5H23.5c-0.6,0-1.2-0.4-1.4-1c-0.2-0.6-0.1-1.3,0.4-1.7L45.7,52c0.6-0.6,1.6-0.5,2.2,0.1
				c0.6,0.6,0.5,1.6-0.1,2.2L27.5,72.4H82L61.7,54.3c-0.6-0.6-0.7-1.5-0.1-2.2c0.6-0.6,1.5-0.7,2.2-0.1l23.3,20.8
				c0.5,0.4,0.6,1.1,0.4,1.7C87.3,75.1,86.7,75.5,86,75.5z"/>
		</g>
	</g>
</g>
</svg>
