<?xml version="1.0" encoding="utf-8"?>
<!-- Generator: Adobe Illustrator 24.3.0, SVG Export Plug-In . SVG Version: 6.00 Build 0)  -->
<svg version="1.1" id="Capa_1" xmlns="http://www.w3.org/2000/svg" xmlns:xlink="http://www.w3.org/1999/xlink" x="0px" y="0px"
	 viewBox="0 0 109.5 106.2" style="enable-background:new 0 0 109.5 106.2;" xml:space="preserve">
<style type="text/css">
	.st0{fill:#573C8F;}
	.st1{fill:none;}
	.st2{fill:#FFFFFF;}
	.st3{fill:#45AA35;}
	.st4{fill:#55398D;}
</style>
<rect x="-1496" y="-1355.3" class="st0" width="1920" height="1080"/>
<g>
	<g>
		<path class="st1" d="M-365-978.6c8.5-8.5,18.2-15.8,28.7-21.5c-9.9,6.6-18.8,14.6-26.4,23.6c-7.6,9-14.1,18.9-19.5,29.3
			c-1.3,2.5-2.5,5-3.7,7.5c0.5,0.6,1,1.1,1.6,1.7c3.6,3.6,12.1,7.6,22.3,7.6c10.2,0,22.2-4.1,32.4-16.8
			c18.7-23.3,20.9-63.6,44.4-83.5c0,0-3.7-0.3-9.6-0.3c-17.3,0-54.1,2.5-78.5,21.7c-17.2,13.5-32.7,40.1-17.1,63.7
			c0.9-1.6,1.9-3.2,2.9-4.7C-381-960.6-373.5-970.2-365-978.6z"/>
		<g>
			<path class="st1" d="M-365-978.6c8.5-8.5,18.2-15.8,28.7-21.5c-9.9,6.6-18.8,14.6-26.4,23.6c-7.6,9-14.1,18.9-19.5,29.3
				c-1.3,2.5-2.5,5-3.7,7.5c0.5,0.6,1,1.1,1.6,1.7c3.6,3.6,12.1,7.6,22.3,7.6c10.2,0,22.2-4.1,32.4-16.8
				c18.7-23.3,20.9-63.6,44.4-83.5c0,0-3.7-0.3-9.6-0.3c-17.3,0-54.1,2.5-78.5,21.7c-17.2,13.5-32.7,40.1-17.1,63.7
				c0.9-1.6,1.9-3.2,2.9-4.7C-381-960.6-373.5-970.2-365-978.6z"/>
			<g>
				<path class="st1" d="M-328.6-957.6c1.2,1.2,2.4,2.5,3.5,3.8c14.7-23.7,18.4-58.9,39.9-77c0,0-3.7-0.3-9.6-0.3
					c-17.3,0-54.1,2.5-78.5,21.7c-6.3,5-12.3,11.6-16.7,19.3c8.4,1.5,16.6,3.8,24.4,7.1C-351.7-977-339-968.4-328.6-957.6z"/>
				<path class="st2" d="M-409.6-991.8c-15.1,0.1-30.2,3.1-44,8.9c-13.8,5.9-26.6,14.5-37,25.3c-10.5,10.8-18.6,23.6-24,37.5
					c-5.2,13.9-7.8,28.8-7.1,43.5c1.1-29.4,13.9-57.6,34.6-77.6c20.6-20,49-31.6,77.6-31.4c3.4,0,6.9,0.1,10.3,0.5
					c0.8-2,1.7-4,2.7-5.9C-400.9-991.5-405.3-991.8-409.6-991.8z"/>
				<path class="st2" d="M-297.5-876.6c0.7-14.7-1.9-29.6-7.1-43.5c-3.9-10.3-9.5-19.9-16.3-28.7c-0.9,1.3-1.8,2.6-2.7,3.8
					C-308-925.9-298.5-901.7-297.5-876.6z"/>
			</g>
		</g>
	</g>
	<path class="st3" d="M-284.7-1037c-0.2,0-4-0.3-10.1-0.3c-19.8,0-56.9,3-82.3,23.1c-7,5.5-14.3,13.6-19.4,23.2
		c-1,1.9-1.9,3.9-2.7,5.9c-2,5-3.4,10.3-3.7,15.9c-0.6,10.6,2.5,20.7,9.2,29.6c1.1-2,2.3-4,3.4-6c-8.5-12.9-7.7-26.6-2.5-38.7
		c0.8-2,1.8-3.9,2.9-5.7c4.4-7.7,10.4-14.3,16.7-19.3c24.4-19.2,61.2-21.7,78.5-21.7c6,0,9.6,0.3,9.6,0.3
		c-21.4,18.1-25.2,53.3-39.9,77c-0.9,1.4-1.8,2.7-2.7,4c-0.6,0.8-1.2,1.6-1.8,2.4c-10.2,12.7-22.1,16.8-32.4,16.8
		c-8.7,0-16.1-2.9-20.4-6c0.7-1.6,1.4-3.3,2.2-4.9c2.6-5.3,5.4-10.6,8.6-15.6c1.5-2.6,3.3-5,4.9-7.4c1.8-2.4,3.5-4.8,5.4-7.1
		c7.4-9.3,16.2-17.5,26-24.5c-10.1,6.4-19.5,14.2-27.5,23.2c-2.1,2.2-3.9,4.6-5.9,6.9c-1.8,2.4-3.7,4.8-5.4,7.3
		c-3.5,4.9-6.7,10.1-9.6,15.4c-0.7,1.2-1.3,2.5-1.9,3.7c-0.1-0.1-2.1,3.8-3,5.9c0,0,0,0,0,0c-3.7,7.7-6.9,15.6-9.6,23.7
		c-1.9,5.8-3.6,11.6-5.1,17.5c-1.5,5.9-2.7,11.8-3.6,18.1l-0.5,3.9l8,0.7l0.3-3.9c1-11.4,3.4-23.2,6.5-34.6
		c2.1-7.6,4.7-15.2,7.7-22.5c5.4,3.5,13.5,6.4,22.9,6.4c10,0,24.5-3.3,37.3-19.1c0.4-0.5,0.7-1,1.1-1.5c0.9-1.2,1.8-2.5,2.7-3.8
		c6.7-10.1,11.2-22.2,15.5-34c6.3-17.1,12.3-33.3,24.2-43.3l11.6-9.8L-284.7-1037z"/>
	<path class="st2" d="M-766.7-864.4c-18.6-2.9-37.8-2.2-57.2-3.1c0,43.2,0,84.7,0,126.4c16.8,0,33.2,1.1,49.5-0.3
		c21.5-1.9,35.3-14.1,40.4-35.6c4.3-18.2,4.3-36.2-0.3-54.3C-738.8-848.8-749.1-861.7-766.7-864.4z M-758.2-777.4
		c-3.6,12-12.3,17.9-24.8,18.2c-4.9,0.1-9.9-0.1-14.8,0.1c-3.5,0.2-4.6-1.1-4.5-4.6c0.1-13.4,0.1-26.8,0.1-40.2
		c0-9.8,0.1-19.6,0-29.3c0-3.3,0-6.5-0.1-9.8c-0.1-3.9,0.8-5.9,5.2-5.5c4.6,0.4,9.2,0,13.7,0.1c12.8,0.3,21.6,6.1,25.3,18.4
		C-753-812.6-753-794.8-758.2-777.4z"/>
	<path class="st2" d="M-545.3-791.3c-1.3-2.2-1.4-3.7,1.4-4.9c12.9-5.5,19.2-16,20.8-29.4c2-17-6.7-33.9-23.8-38.9
		c-6.3-1.9-13.1-2.5-19.7-2.7c-13.9-0.4-27.8-0.1-42.4-0.1c0,3,0,5.1,0,7.2c0,34.9,0,69.8,0,104.7c0,14.1,2.3,16,16.5,13.8
		c0.2,0,0.3-0.1,0.5-0.1c3.7-0.1,5-2,5-5.8c-0.2-13-0.1-26.1-0.1-39.1c0-1.8,0.2-3.7,0.3-5.8c4.3,0,8-0.2,11.7,0.1
		c1.5,0.1,3.4,1.2,4.1,2.5c7,11.6,13.7,23.3,20.6,34.9c2.4,4,4.4,9.4,8.1,11.3c7.6,3.9,16.2,3.2,25.4,0.4
		c-5.2-8.7-10-16.8-14.8-24.9C-536.2-775.9-540.7-783.6-545.3-791.3z M-562.4-811.1c-7.8,0.7-15.8,0.1-24.6,0.1
		c0-12.2-0.1-23.8,0.1-35.3c0-0.9,1.9-2.6,2.9-2.6c7.2-0.1,14.5-0.4,21.6,0.3c10.5,1.1,15.6,7.8,15.5,19
		C-546.8-819-552.4-811.9-562.4-811.1z"/>
	<path class="st2" d="M-435-850.9c-5.7-16.7-5.5-16.8-23.2-16.1c-1.4,0.1-2.8,0.3-4.2,0.5c-3.3,0.4-5.2,1.9-6.3,5.3
		c-4.7,14.1-9.8,28.1-14.6,42.2c-7.5,21.8-14.7,43.7-22.4,65.4c-4.5,12.6-4.1,12.4,9.1,12.5c0.7,0,1.4-0.1,2.1-0.1
		c4.4-0.2,7-2.1,8.2-6.6c1.8-6.4,4.6-12.6,6.5-19c0.9-3.1,2.7-3.5,5.4-3.5c6.5,0.1,13.1,0,19.6,0c6.3,0,12.7,0.2,19-0.1
		c3.9-0.2,5.7,1.2,6.8,4.9c1.4,5.1,3.3,9.9,5,14.9c2.7,8.2,4.1,9.3,12.8,9.4c2.8,0,5.6-0.3,8.4-0.5c4.1-0.3,4.8-2.3,3.5-6.1
		C-411.3-782.1-423.2-816.5-435-850.9z M-471.9-789.1c5.7-17.5,11.4-34.8,17.4-53.1c5.9,18.1,11.5,35.2,17.3,53.1
		C-448.9-789.1-460-789.1-471.9-789.1z"/>
	<path class="st2" d="M-638-759.5c-9,0.3-18,0.1-27,0.1c-4.7,0-9.4,0-14.1,0c-2.7,0-5-2.2-5-5V-791c0-2.7,2.2-5,5-5
		c9.4,0,18.6,0,27.7,0c9.1,0,10.2-1.2,10-10.3c0-0.5-0.3-1-0.3-1.6c0-4.9-2.3-6.6-7.3-6.5c-10.4,0.4-20.8,0-31.2,0
		c-4.1,0-4.1-1.5-4.1-2.3c-0.2-9-0.2-17.9-0.2-27.3c0-2.7,2.2-5,5-5h1.3c12.7,0,25.4-0.2,38.1,0.1c5,0.1,7.6-1.4,7.1-7
		c-0.1-1.5-0.1-3,0-4.6c0.6-5.7-2-7-7.2-6.9c-20.1,0.3-40.2,0.1-60.3,0.1c-0.2,0-0.4,0-0.6,0c-2.7,0.1-4.8,2.3-4.8,5v115.9
		c0,2.7,2.2,5,5,5h0.7c20.5,0,40.9-0.2,61.4,0.1c5.5,0.1,7.8-1.9,7.8-7.2c0-1.8-0.1-3.5-0.1-5.2C-631.5-757.8-633.5-759.7-638-759.5
		z"/>
	<path class="st2" d="M-906-760.7c-12.9,0.3-25.8-0.1-38.6,0.2c-4.7,0.1-6-1.4-5.9-6c0.2-28.9,0.1-57.9,0.1-86.8
		c0-14.1-1-15-15.3-13.6c-0.2,0-0.4,0-0.5,0.1c-4.5,0.1-6.3,2-6.3,6.9c0.3,18.9,0.1,37.7,0.1,56.6c0,19,0,38.1,0,57.1
		c0,2.7-0.4,5.2,3.8,5.2c21.7-0.1,43.4,0,65.1-0.2c1.5,0,3.8-2.2,4.3-3.8c0.8-2.8,0.6-5.9,0.7-8.8C-898.4-759-900.8-760.8-906-760.7
		z"/>
	<path class="st2" d="M-852.9-853.1c0-14.3-1.6-15.5-16-13.9c-4.6,0.5-6.1,2.4-6,7.1c0.3,18.7,0.1,37.4,0.1,56c0,16.4,0,32.8,0,49.2
		c0,13.8,1,14.7,15,13.4c0.2,0,0.4,0,0.5,0c4.6-0.2,6.6-2,6.6-7.1C-853-783.3-852.9-818.2-852.9-853.1z"/>
	<g>
		<path class="st3" d="M-951.4-675h-14.7l-2.1,4.7h-5.3l14.6-31.7h0.3l14.6,31.7h-5.3L-951.4-675z M-953.3-679.2l-5.5-12.1
			l-5.5,12.1H-953.3z"/>
		<path class="st3" d="M-943.3-675.8l3.9-2.8c1.4,2.4,4,3.8,7,3.8c3.5,0,6.1-1.7,6.1-4c0-2.9-4.1-4.6-7.7-6.2
			c-3.6-1.6-7.7-3.5-7.7-8.4c0-5.1,4.4-8.6,10-8.6c4.4,0,7.7,2.1,9,5.5l-3.6,2.5c-1-2.1-3.1-3.3-5.4-3.3c-2.9,0-5.1,1.8-5.1,4
			c0,2.4,2.9,3.3,6.6,4.9c4.9,2.2,8.7,4.5,8.7,9.4c0,5.5-4.8,9.1-11.1,9.1C-937.7-669.8-941.5-672.2-943.3-675.8z"/>
		<path class="st3" d="M-912.4-696.6v8h11.7v4.9h-11.7v8.6h13.6v4.9h-18.5v-31h18.5v4.8H-912.4z"/>
		<path class="st3" d="M-895.5-675.8l3.9-2.8c1.4,2.4,4,3.8,7,3.8c3.5,0,6.1-1.7,6.1-4c0-2.9-4.1-4.6-7.7-6.2
			c-3.6-1.6-7.7-3.5-7.7-8.4c0-5.1,4.4-8.6,10-8.6c4.4,0,7.7,2.1,9,5.5l-3.6,2.5c-1-2.1-3.1-3.3-5.4-3.3c-2.9,0-5.1,1.8-5.1,4
			c0,2.4,2.9,3.3,6.6,4.9c4.9,2.2,8.7,4.5,8.7,9.4c0,5.5-4.8,9.1-11.1,9.1C-889.9-669.8-893.8-672.2-895.5-675.8z"/>
		<path class="st3" d="M-871-685.8c0-8.9,7.2-16.1,16-16.1c8.8,0,16.1,7.2,16.1,16.1c0,8.8-7.2,16-16.1,16
			C-863.8-669.8-871-677-871-685.8z M-843.8-685.8c0-6.1-5-11.2-11.2-11.2c-6.1,0-11.1,5-11.1,11.2c0,6.1,5,11.1,11.1,11.1
			C-848.9-674.7-843.8-679.7-843.8-685.8z"/>
		<path class="st3" d="M-817.4-670.3l-8.4-12h-3.8v12h-4.9l0-31h9.6c5.8,0,10.5,4.4,10.5,10c0,4-2.6,7.5-6.1,8.6l9,12.4H-817.4z
			 M-824.7-686.4c2.9,0,5.4-2.3,5.4-5.1c0-2.9-2.5-5-5.4-5h-4.9v10.2H-824.7z"/>
		<path class="st3" d="M-808.6-703.9l3.8-6.3h4.3l-4.6,6.3H-808.6z M-808.1-701.4h4.9v31h-4.9V-701.4z"/>
		<path class="st3" d="M-777.7-675h-14.7l-2.1,4.7h-5.3l14.6-31.7h0.3l14.6,31.7h-5.3L-777.7-675z M-779.6-679.2l-5.5-12.1
			l-5.5,12.1H-779.6z"/>
		<path class="st3" d="M-767.5-664.1c1.3,0,3.6-1.1,3.6-3.9c0-0.7-0.1-1-0.3-1.5c-1.3,0-2.9-1-2.9-3c0-1.8,1.5-3.4,3.5-3.4
			c1.9,0,3.6,1.6,3.6,4.9c0,4.2-2.4,7.8-5.6,7.8C-766.8-663.2-767.5-663.8-767.5-664.1z"/>
		<path class="st3" d="M-744.8-685.8c0-8.7,7.3-16.1,16-16.1c4,0.1,7.7,1.8,10.8,4.7l-2.8,3.8c-2.2-2.2-5-3.6-8-3.6
			c-5.6,0-11,4.9-11,11.2c0,6.3,5.5,11.1,11,11.1c3.2,0,5.9-1.6,8.1-3.7l2.8,3.9c-2.7,2.6-6.1,4.7-10.7,4.7
			C-737.5-669.8-744.8-677.1-744.8-685.8z"/>
		<path class="st3" d="M-717-685.8c0-8.9,7.2-16.1,16-16.1c8.8,0,16.1,7.2,16.1,16.1c0,8.8-7.2,16-16.1,16
			C-709.7-669.8-717-677-717-685.8z M-689.8-685.8c0-6.1-5-11.2-11.2-11.2c-6.1,0-11.1,5-11.1,11.2c0,6.1,5,11.1,11.1,11.1
			C-694.8-674.7-689.8-679.7-689.8-685.8z"/>
		<path class="st3" d="M-655.4-701.4v31.7h-0.2l-19.9-20.7v20.2h-4.9v-31.6h0.2l19.8,20.7v-20.2H-655.4z"/>
		<path class="st3" d="M-651.2-675.8l3.9-2.8c1.4,2.4,4,3.8,7,3.8c3.5,0,6.1-1.7,6.1-4c0-2.9-4.1-4.6-7.7-6.2
			c-3.6-1.6-7.7-3.5-7.7-8.4c0-5.1,4.4-8.6,10-8.6c4.4,0,7.7,2.1,9,5.5l-3.6,2.5c-1-2.1-3.1-3.3-5.4-3.3c-2.9,0-5.1,1.8-5.1,4
			c0,2.4,2.9,3.3,6.6,4.9c4.9,2.2,8.7,4.5,8.7,9.4c0,5.5-4.8,9.1-11.1,9.1C-645.6-669.8-649.5-672.2-651.2-675.8z"/>
		<path class="st3" d="M-625.5-682.1v-19.3h4.9v19.3c0,4.3,3,7.4,6.8,7.4c3.8,0,6.9-3.1,6.9-7.4v-19.3h4.9v19.3
			c0,7.1-5.1,12.3-11.7,12.3S-625.5-675-625.5-682.1z"/>
		<path class="st3" d="M-577.6-675.2v4.9h-18.7v-31h4.9v26.2H-577.6z"/>
		<path class="st3" d="M-560.1-696.5h-8.3v26.2h-4.9v-26.2h-8.3v-4.8h21.5V-696.5z"/>
		<path class="st3" d="M-559.2-685.8c0-8.9,7.2-16.1,16-16.1c8.8,0,16.1,7.2,16.1,16.1c0,8.8-7.2,16-16.1,16
			C-552-669.8-559.2-677-559.2-685.8z M-532-685.8c0-6.1-5-11.2-11.2-11.2c-6.1,0-11.1,5-11.1,11.2c0,6.1,5,11.1,11.1,11.1
			C-537.1-674.7-532-679.7-532-685.8z"/>
		<path class="st3" d="M-505.6-670.3l-8.4-12h-3.8v12h-4.9l0-31h9.6c5.8,0,10.5,4.4,10.5,10c0,4-2.6,7.5-6.1,8.6l9,12.4H-505.6z
			 M-512.9-686.4c2.9,0,5.4-2.3,5.4-5.1c0-2.9-2.5-5-5.4-5h-4.9v10.2H-512.9z"/>
		<path class="st3" d="M-496.8-703.9l3.8-6.3h4.3l-4.6,6.3H-496.8z M-496.3-701.4h4.9v31h-4.9V-701.4z"/>
		<path class="st3" d="M-465.9-675h-14.7l-2.1,4.7h-5.3l14.6-31.7h0.3l14.6,31.7h-5.3L-465.9-675z M-467.8-679.2l-5.5-12.1
			l-5.5,12.1H-467.8z"/>
		<path class="st3" d="M-417.6-670c-2.1,0-5-1.3-7.9-3.3c-2.3,2.3-5.3,3.6-8.8,3.6c-7,0-10.6-5.1-10.6-9.7c0-3.8,2.5-7.3,5.2-9
			c-1.2-2.2-1.9-4.2-1.9-6c0-3.9,3.6-7.8,8.2-7.8c4.2,0,7.5,3.3,8.1,7l-4.7,0.9c-0.2-1.9-1.8-3.4-3.5-3.4c-1.8,0-3.2,1.5-3.2,3.5
			c0,3.6,4.8,9.8,9.9,14.3c0.8-1.7,1.2-3.7,1.3-6l4.6-0.1c-0.1,3.6-0.8,6.6-2,9c2.1,1.4,4,2.3,5.5,2.3L-417.6-670z M-429.5-676.3
			c-2.9-2.5-5.8-5.5-8-8.5c-1.8,1.3-2.9,3-2.9,5.1c0,2.9,2,5.2,5.7,5.2C-432.6-674.5-430.9-675.1-429.5-676.3z"/>
		<path class="st3" d="M-403.7-685.8c0-8.7,7.3-16.1,16-16.1c4,0.1,7.7,1.8,10.8,4.7l-2.8,3.8c-2.2-2.2-5-3.6-8.1-3.6
			c-5.6,0-11,4.9-11,11.2c0,6.3,5.5,11.1,11,11.1c3.2,0,5.9-1.6,8.1-3.7l2.8,3.9c-2.7,2.6-6.1,4.7-10.7,4.7
			C-396.4-669.8-403.7-677.1-403.7-685.8z"/>
		<path class="st3" d="M-353.4-675h-14.7l-2.1,4.7h-5.3l14.6-31.7h0.3l14.6,31.7h-5.3L-353.4-675z M-355.3-679.2l-5.5-12.1
			l-5.5,12.1H-355.3z"/>
		<path class="st3" d="M-342.6-701.4h10.4c6,0,10.9,4.6,10.9,10.2c0,5.5-4.9,10-10.9,10h-5.5v10.8h-4.9V-701.4z M-326.2-691.2
			c0-3-2.7-5.4-6-5.4h-5.5v10.6l5.5,0C-328.9-685.9-326.2-688.2-326.2-691.2z"/>
		<path class="st3" d="M-303.6-675h-14.7l-2.1,4.7h-5.3l14.6-31.7h0.3l14.6,31.7h-5.3L-303.6-675z M-305.5-679.2l-5.5-12.1
			l-5.5,12.1H-305.5z"/>
		<path class="st3" d="M-297.2-685.8c0-8.7,7.3-16.1,16-16.1c4,0.1,7.7,1.8,10.8,4.7l-2.8,3.8c-2.2-2.2-5-3.6-8.1-3.6
			c-5.6,0-11,4.9-11,11.2c0,6.3,5.5,11.1,11,11.1c3.2,0,5.9-1.6,8.1-3.7l2.8,3.9c-2.7,2.6-6.1,4.7-10.7,4.7
			C-289.9-669.8-297.2-677.1-297.2-685.8z"/>
		<path class="st3" d="M-266.5-701.4h4.9v31h-4.9V-701.4z"/>
		<path class="st3" d="M-236.2-696.5h-8.3v26.2h-4.9v-26.2h-8.3v-4.8h21.5V-696.5z"/>
		<path class="st3" d="M-216.6-675h-14.7l-2.1,4.7h-5.3l14.6-31.7h0.3l14.6,31.7h-5.3L-216.6-675z M-218.5-679.2l-5.5-12.1
			l-5.5,12.1H-218.5z"/>
		<path class="st3" d="M-210.1-685.8c0-8.7,7.3-16.1,16-16.1c4,0.1,7.7,1.8,10.8,4.7l-2.8,3.8c-2.2-2.2-5-3.6-8.1-3.6
			c-5.6,0-11,4.9-11,11.2c0,6.3,5.5,11.1,11,11.1c3.2,0,5.9-1.6,8.1-3.7l2.8,3.9c-2.7,2.6-6.1,4.7-10.7,4.7
			C-202.8-669.8-210.1-677.1-210.1-685.8z"/>
		<path class="st3" d="M-179.4-701.4h4.9v31h-4.9V-701.4z"/>
		<path class="st3" d="M-170.1-685.8c0-8.9,7.2-16.1,16-16.1c8.8,0,16.1,7.2,16.1,16.1c0,8.8-7.2,16-16.1,16
			C-162.9-669.8-170.1-677-170.1-685.8z M-142.9-685.8c0-6.1-5-11.2-11.2-11.2s-11.1,5-11.1,11.2c0,6.1,5,11.1,11.1,11.1
			S-142.9-679.7-142.9-685.8z M-157-703.9l3.8-6.3h4.3l-4.6,6.3H-157z"/>
		<path class="st3" d="M-108.5-701.4v31.7h-0.2l-19.9-20.7v20.2h-4.9v-31.6h0.3l19.8,20.7v-20.2H-108.5z"/>
	</g>
	<g>
		<path class="st2" d="M-121-805.5c18.6,11.3,20.9,24.9,16.2,43.7c-3.6,14.1-15.4,19.2-28.7,20c-13.9,0.8-27.8,0.1-41.8,0.3
			c-6,0.1-6.9-3.6-6.9-8.1c-0.1-11.6-0.1-23.3-0.1-34.9c0-23.8,0.2-47.7-0.1-71.5c-0.1-7.7,2.2-11.3,10.4-10.8
			c12.2,0.7,24.5-0.5,36.7,0.7c13.4,1.4,23.7,7.1,27,20.8c3.4,13.9,2.6,27.1-9.6,37.2C-118.6-807.4-119.5-806.8-121-805.5z
			 M-173.8-777.1c0,7.8,0.1,14.2,0,20.5c-0.2,5.1,1.5,7.8,7.1,7.7c10.9-0.2,21.7,0.2,32.6-0.4c14.4-0.8,22.6-9.4,23.2-23.3
			c0.7-16.4-6-25.1-21.4-27.4c-5.2-0.8-10.5-1.3-15.8-1.2c-8,0.2-18-3.4-23.5,1.6C-177.5-794.2-172.7-783.8-173.8-777.1z
			 M-152.7-807.6c6,0.2,13.8,0.2,21.4-1.8c10.9-2.9,17-12.1,16.6-24.9c-0.4-13.2-6.6-21.3-17.9-23.7c-11.9-2.5-23.9-1.2-35.8-1.4
			c-4.6-0.1-5.4,2.9-5.4,6.6c0,8.6,0,17.2,0,25.8C-173.8-807.6-173.8-807.6-152.7-807.6z"/>
		<path class="st2" d="M-250.1-778.4c-7,0-13.9,0.3-20.9-0.1c-5.9-0.3-9.3,1.7-11.2,7.4c-2.8,8.1-6.2,16-9.5,24
			c-1.3,3.2-3,6.9-7.1,5.1c-4.2-1.9-1.1-5.4-0.1-7.8c14.3-36.4,28.7-72.7,43.2-109c1.3-3.2,1.9-7.6,6.7-7.3c4.2,0.3,4.6,4.4,5.8,7.4
			c14.4,36,28.8,72.1,43,108.2c1,2.6,4.6,6.5-0.2,8.5c-4.7,2-6.1-2.4-7.5-5.7c-3.2-7.7-6.5-15.3-9.2-23.2c-2-5.7-5.4-7.7-11.2-7.4
			C-235.6-778.1-242.9-778.4-250.1-778.4z M-248.5-849.9c-0.7,0-1.5,0-2.2,0c-7.9,19.7-15.8,39.4-23.7,59.2c-1.6,3.9,0.5,4.8,4,4.8
			c13.6-0.1,27.3-0.1,40.9,0c4,0,5.9-1.2,4.2-5.5C-233.1-810.9-240.8-830.4-248.5-849.9z"/>
		<path class="st2" d="M-376.9-804.4c0-18-0.1-36,0.1-53.9c0-3-1.2-7.5,4.1-7.3c4.6,0.2,3.4,4.4,3.5,7.1c0.1,33.2,0.3,66.4-0.1,99.6
			c-0.1,7.6,2.3,10.2,9.9,9.9c13-0.5,26.1-0.2,39.2-0.1c3.1,0,7.7-0.8,7.3,4.3c-0.3,4.4-4.6,3.1-7.4,3.2
			c-16.1,0.1-32.2-0.1-48.4,0.2c-6.1,0.1-8.4-2.1-8.3-8.2C-376.7-767.9-376.9-786.2-376.9-804.4z"/>
	</g>
	<path class="st3" d="M-387.7-935.6"/>
</g>
<g>
	<path class="st1" d="M-332.5-2151.5c8.4-8.4,18.1-15.6,28.4-21.3c-9.8,6.5-18.6,14.4-26.2,23.4c-7.6,8.9-13.9,18.7-19.3,29
		c-1.3,2.4-2.5,4.9-3.6,7.4c0.5,0.6,1,1.1,1.5,1.6c3.5,3.5,12,7.5,22,7.5c10.1,0,21.9-4,32.1-16.6c18.5-23,20.7-63,43.9-82.6
		c0,0-3.6-0.3-9.5-0.3c-17.1,0-53.6,2.4-77.7,21.5c-17,13.4-32.4,39.7-16.9,63.1c0.9-1.6,1.9-3.1,2.8-4.7
		C-348.4-2133.6-341-2143.2-332.5-2151.5z"/>
	<g>
		<path class="st1" d="M-332.5-2151.5c8.4-8.4,18.1-15.6,28.4-21.3c-9.8,6.5-18.6,14.4-26.2,23.4c-7.6,8.9-13.9,18.7-19.3,29
			c-1.3,2.4-2.5,4.9-3.6,7.4c0.5,0.6,1,1.1,1.5,1.6c3.5,3.5,12,7.5,22,7.5c10.1,0,21.9-4,32.1-16.6c18.5-23,20.7-63,43.9-82.6
			c0,0-3.6-0.3-9.5-0.3c-17.1,0-53.6,2.4-77.7,21.5c-17,13.4-32.4,39.7-16.9,63.1c0.9-1.6,1.9-3.1,2.8-4.7
			C-348.4-2133.6-341-2143.2-332.5-2151.5z"/>
		<g>
			<path class="st1" d="M-296.5-2130.7c1.2,1.2,2.4,2.5,3.5,3.8c14.6-23.5,18.3-58.3,39.5-76.2c0,0-3.6-0.3-9.5-0.3
				c-17.1,0-53.6,2.4-77.7,21.5c-6.2,4.9-12.2,11.5-16.5,19.1c8.3,1.5,16.4,3.8,24.2,7.1C-319.4-2149.9-306.8-2141.4-296.5-2130.7z"
				/>
			<path class="st4" d="M-376.7-2164.6c-14.9,0.1-29.9,3-43.6,8.9c-13.7,5.9-26.3,14.4-36.6,25.1c-10.3,10.7-18.5,23.4-23.7,37.1
				c-5.2,13.8-7.7,28.5-7.1,43.1c1.1-29.1,13.7-57,34.2-76.8c20.4-19.8,48.5-31.3,76.8-31.1c3.4,0,6.8,0.1,10.2,0.5
				c0.8-2,1.7-3.9,2.7-5.8C-368.1-2164.3-372.4-2164.6-376.7-2164.6z"/>
			<path class="st4" d="M-265.7-2050.5c0.7-14.5-1.9-29.3-7.1-43.1c-3.9-10.2-9.4-19.8-16.1-28.4c-0.8,1.3-1.7,2.5-2.7,3.8
				C-276.1-2099.3-266.7-2075.4-265.7-2050.5z"/>
		</g>
	</g>
</g>
<path class="st3" d="M-253.1-2209.3c-0.2,0-3.9-0.3-10-0.3c-19.6,0-56.4,3-81.5,22.8c-6.9,5.4-14.2,13.5-19.2,23
	c-1,1.9-1.9,3.8-2.7,5.8c-2,5-3.3,10.2-3.7,15.7c-0.6,10.5,2.5,20.5,9.1,29.3c1.1-2,2.2-4,3.4-5.9c-8.4-12.8-7.7-26.4-2.5-38.3
	c0.8-1.9,1.8-3.8,2.9-5.7c4.4-7.6,10.3-14.2,16.5-19.1c24.1-19.1,60.6-21.5,77.7-21.5c5.9,0,9.5,0.3,9.5,0.3
	c-21.2,17.9-24.9,52.8-39.5,76.2c-0.9,1.4-1.7,2.7-2.7,4c-0.6,0.8-1.2,1.6-1.8,2.4c-10.1,12.6-21.9,16.6-32.1,16.6
	c-8.6,0-16-2.9-20.2-6c0.7-1.6,1.4-3.2,2.2-4.8c2.5-5.3,5.4-10.5,8.5-15.4c1.5-2.5,3.2-4.9,4.9-7.4c1.8-2.4,3.5-4.8,5.4-7
	c7.4-9.2,16.1-17.4,25.8-24.2c-10,6.3-19.3,14-27.2,23c-2.1,2.2-3.9,4.5-5.8,6.8c-1.8,2.4-3.7,4.7-5.3,7.2c-3.5,4.9-6.6,10-9.5,15.3
	c-0.7,1.2-1.3,2.4-1.9,3.7c-0.1-0.1-2.1,3.8-3,5.9c0,0,0,0,0,0c-3.7,7.6-6.8,15.5-9.5,23.5c-1.9,5.7-3.6,11.5-5.1,17.3
	c-1.5,5.9-2.7,11.7-3.5,17.9l-0.5,3.8l7.9,0.7l0.3-3.9c1-11.3,3.3-23,6.4-34.3c2.1-7.6,4.7-15,7.6-22.3c5.3,3.5,13.4,6.4,22.6,6.4
	c9.9,0,24.3-3.3,36.9-19c0.4-0.5,0.7-1,1.1-1.5c0.9-1.2,1.8-2.5,2.7-3.8c6.6-10,11.1-22,15.4-33.6c6.3-16.9,12.2-32.9,23.9-42.8
	l11.5-9.7L-253.1-2209.3z"/>
<path class="st0" d="M-730.2-2038.5c-18.4-2.9-37.4-2.2-56.6-3.1c0,42.8,0,83.9,0,125.1c16.6,0,32.9,1.1,49-0.3
	c21.3-1.8,34.9-14,40-35.2c4.3-18,4.3-35.8-0.3-53.8C-702.6-2023-712.8-2035.7-730.2-2038.5z M-721.9-1952.3
	c-3.6,11.9-12.2,17.7-24.6,18.1c-4.9,0.1-9.8-0.1-14.7,0.1c-3.4,0.2-4.5-1.1-4.5-4.5c0.1-13.3,0.1-26.5,0.1-39.8
	c0-9.7,0.1-19.4,0-29c0-3.2,0-6.5-0.1-9.7c-0.1-3.9,0.8-5.8,5.2-5.4c4.5,0.4,9.1,0,13.6,0.1c12.7,0.3,21.4,6.1,25,18.2
	C-716.7-1987.1-716.7-1969.6-721.9-1952.3z"/>
<path class="st0" d="M-511.1-1966.1c-1.3-2.2-1.4-3.6,1.4-4.8c12.8-5.4,19.1-15.8,20.6-29.1c1.9-16.8-6.7-33.6-23.5-38.5
	c-6.2-1.8-13-2.5-19.5-2.7c-13.7-0.4-27.5-0.1-42-0.1c0,3,0,5,0,7.1c0,34.5,0,69.1,0,103.6c0,14,2.3,15.9,16.4,13.6
	c0.2,0,0.3-0.1,0.5-0.1c3.7-0.1,5-1.9,4.9-5.7c-0.2-12.9-0.1-25.8-0.1-38.7c0-1.8,0.2-3.7,0.3-5.8c4.3,0,8-0.2,11.6,0.1
	c1.5,0.1,3.4,1.2,4.1,2.4c6.9,11.5,13.5,23.1,20.4,34.5c2.4,4,4.4,9.3,8,11.2c7.6,3.9,16.1,3.2,25.1,0.4
	c-5.1-8.6-9.9-16.6-14.7-24.7C-502-1950.9-506.5-1958.5-511.1-1966.1z M-528-1985.7c-7.8,0.7-15.6,0.1-24.3,0.1
	c0-12.1-0.1-23.5,0.1-35c0-0.9,1.9-2.6,2.9-2.6c7.1-0.1,14.3-0.4,21.4,0.3c10.4,1.1,15.5,7.7,15.4,18.8
	C-512.6-1993.5-518.1-1986.5-528-1985.7z"/>
<path class="st0" d="M-401.8-2025.1c-5.6-16.6-5.5-16.6-23-15.9c-1.4,0.1-2.8,0.3-4.2,0.5c-3.3,0.4-5.1,1.9-6.3,5.3
	c-4.7,14-9.7,27.9-14.5,41.8c-7.4,21.6-14.5,43.2-22.2,64.7c-4.5,12.5-4.1,12.2,9.1,12.4c0.7,0,1.4-0.1,2.1-0.1
	c4.3-0.2,6.9-2.1,8.1-6.6c1.8-6.4,4.5-12.4,6.4-18.8c0.9-3.1,2.7-3.5,5.4-3.5c6.5,0.1,12.9,0,19.4,0c6.3,0,12.6,0.2,18.9-0.1
	c3.8-0.2,5.7,1.2,6.7,4.9c1.4,5,3.3,9.8,4.9,14.8c2.6,8.1,4,9.2,12.7,9.3c2.8,0,5.6-0.3,8.3-0.5c4.1-0.3,4.7-2.3,3.4-6.1
	C-378.4-1957-390.2-1991-401.8-2025.1z M-438.4-1963.9c5.7-17.3,11.3-34.5,17.2-52.5c5.9,17.9,11.4,34.9,17.2,52.5
	C-415.6-1963.9-426.6-1963.9-438.4-1963.9z"/>
<path class="st0" d="M-602.9-1934.6c-8.9,0.3-17.8,0.1-26.7,0.1c-4.6,0-9.3,0-14,0c-2.7,0-4.9-2.2-4.9-4.9v-26.3
	c0-2.7,2.2-4.9,4.9-4.9c9.3,0,18.4,0,27.4,0c9,0,10.1-1.2,9.9-10.2c0-0.5-0.3-1-0.3-1.5c0-4.8-2.3-6.6-7.2-6.4
	c-10.3,0.3-20.6,0-30.9,0c-4.1,0-4.1-1.5-4.1-2.3c-0.2-8.9-0.2-17.7-0.2-27c0-2.7,2.2-4.9,4.9-4.9h1.3c12.6,0,25.1-0.2,37.7,0.1
	c5,0.1,7.5-1.3,7-6.9c-0.1-1.5-0.1-3,0-4.5c0.6-5.6-2-6.9-7.1-6.8c-19.9,0.3-39.8,0.1-59.7,0.1c-0.2,0-0.4,0-0.6,0
	c-2.7,0.1-4.8,2.3-4.8,4.9v114.8c0,2.7,2.2,4.9,4.9,4.9h0.7c20.3,0,40.5-0.2,60.8,0.1c5.5,0.1,7.8-1.9,7.7-7.1
	c0-1.7-0.1-3.5-0.1-5.2C-596.4-1932.9-598.3-1934.8-602.9-1934.6z"/>
<path class="st0" d="M-868.2-1935.8c-12.7,0.3-25.5-0.1-38.2,0.2c-4.7,0.1-5.9-1.4-5.9-5.9c0.2-28.6,0.1-57.3,0.1-85.9
	c0-14-1-14.8-15.1-13.5c-0.2,0-0.3,0-0.5,0c-4.5,0.1-6.3,1.9-6.2,6.8c0.3,18.7,0.1,37.4,0.1,56c0,18.9,0,37.7,0,56.6
	c0,2.7-0.4,5.2,3.8,5.1c21.5-0.1,43,0,64.4-0.2c1.5,0,3.8-2.2,4.3-3.7c0.8-2.7,0.6-5.8,0.6-8.8
	C-860.7-1934.1-863-1935.9-868.2-1935.8z"/>
<path class="st0" d="M-815.6-2027.2c0-14.1-1.6-15.4-15.9-13.8c-4.6,0.5-6,2.4-6,7.1c0.3,18.5,0.1,37,0.1,55.5c0,16.2,0,32.4,0,48.7
	c0,13.6,1,14.5,14.8,13.3c0.2,0,0.3,0,0.5,0c4.6-0.2,6.5-2,6.5-7.1C-815.7-1958.1-815.6-1992.7-815.6-2027.2z"/>
<g>
	<path class="st3" d="M-913.1-1851h-14.5l-2.1,4.7h-5.2l14.5-31.4h0.3l14.5,31.4h-5.2L-913.1-1851z M-915-1855.1l-5.4-12l-5.4,12
		H-915z"/>
	<path class="st3" d="M-905.1-1851.7l3.8-2.7c1.4,2.4,3.9,3.8,6.9,3.8c3.5,0,6.1-1.7,6.1-4c0-2.8-4-4.6-7.6-6.1
		c-3.6-1.6-7.6-3.5-7.6-8.3c0-5,4.4-8.5,9.9-8.5c4.4,0,7.7,2.1,8.9,5.5l-3.6,2.5c-1-2.1-3.1-3.2-5.3-3.2c-2.8,0-5.1,1.8-5.1,3.9
		c0,2.4,2.8,3.3,6.6,4.9c4.9,2.1,8.6,4.5,8.6,9.3c0,5.5-4.7,9-11,9C-899.5-1845.8-903.3-1848.1-905.1-1851.7z"/>
	<path class="st3" d="M-874.5-1872.3v7.9h11.6v4.8h-11.6v8.5h13.5v4.8h-18.3v-30.7h18.3v4.7H-874.5z"/>
	<path class="st3" d="M-857.8-1851.7l3.8-2.7c1.4,2.4,3.9,3.8,6.9,3.8c3.4,0,6.1-1.7,6.1-4c0-2.8-4-4.6-7.6-6.1
		c-3.6-1.6-7.6-3.5-7.6-8.3c0-5,4.4-8.5,9.9-8.5c4.4,0,7.7,2.1,8.9,5.5l-3.6,2.5c-1-2.1-3.1-3.2-5.3-3.2c-2.8,0-5.1,1.8-5.1,3.9
		c0,2.4,2.8,3.3,6.6,4.9c4.9,2.1,8.6,4.5,8.6,9.3c0,5.5-4.7,9-11,9C-852.2-1845.8-856-1848.1-857.8-1851.7z"/>
	<path class="st3" d="M-833.5-1861.6c0-8.8,7.1-15.9,15.9-15.9c8.7,0,15.9,7.2,15.9,15.9c0,8.7-7.2,15.8-15.9,15.8
		C-826.4-1845.8-833.5-1852.9-833.5-1861.6z M-806.6-1861.7c0-6.1-5-11-11-11c-6.1,0-11,5-11,11c0,6,4.9,11,11,11
		C-811.6-1850.7-806.6-1855.6-806.6-1861.7z"/>
	<path class="st3" d="M-780.4-1846.3l-8.3-11.9h-3.8v11.9h-4.8l0-30.7h9.6c5.7,0,10.4,4.4,10.4,9.9c0,4-2.6,7.4-6.1,8.6l8.9,12.3
		H-780.4z M-787.6-1862.2c2.9,0,5.3-2.3,5.3-5.1c0-2.9-2.5-5-5.3-5h-4.8v10.1H-787.6z"/>
	<path class="st3" d="M-771.8-1879.6l3.8-6.2h4.3l-4.5,6.2H-771.8z M-771.2-1877h4.8v30.7h-4.8V-1877z"/>
	<path class="st3" d="M-741.1-1851h-14.6l-2.1,4.7h-5.2l14.5-31.4h0.3l14.5,31.4h-5.2L-741.1-1851z M-743-1855.1l-5.4-12l-5.4,12
		H-743z"/>
	<path class="st3" d="M-731-1840.1c1.3,0,3.5-1.1,3.5-3.9c0-0.7-0.1-1-0.3-1.5c-1.3,0-2.9-1-2.9-3c0-1.8,1.4-3.4,3.4-3.4
		c1.9,0,3.6,1.6,3.6,4.9c0,4.2-2.3,7.7-5.5,7.7C-730.4-1839.3-731-1839.9-731-1840.1z"/>
	<path class="st3" d="M-708.6-1861.6c0-8.7,7.2-15.9,15.9-15.9c4,0.1,7.7,1.8,10.7,4.7l-2.8,3.8c-2.2-2.2-5-3.6-8-3.6
		c-5.6,0-10.9,4.9-10.9,11c0,6.2,5.4,11,10.9,11c3.1,0,5.9-1.6,8-3.7l2.8,3.9c-2.7,2.6-6,4.6-10.6,4.6
		C-701.4-1845.8-708.6-1853-708.6-1861.6z"/>
	<path class="st3" d="M-681-1861.6c0-8.8,7.1-15.9,15.9-15.9c8.7,0,15.9,7.2,15.9,15.9c0,8.7-7.2,15.8-15.9,15.8
		C-673.9-1845.8-681-1852.9-681-1861.6z M-654.1-1861.7c0-6.1-5-11-11-11c-6.1,0-11,5-11,11c0,6,4.9,11,11,11
		C-659.1-1850.7-654.1-1855.6-654.1-1861.7z"/>
	<path class="st3" d="M-620.1-1877.1v31.3h-0.2l-19.7-20.5v20h-4.8v-31.3h0.2l19.6,20.5v-20H-620.1z"/>
	<path class="st3" d="M-615.9-1851.7l3.8-2.7c1.4,2.4,3.9,3.8,6.9,3.8c3.5,0,6.1-1.7,6.1-4c0-2.8-4-4.6-7.6-6.1
		c-3.6-1.6-7.6-3.5-7.6-8.3c0-5,4.4-8.5,9.9-8.5c4.4,0,7.7,2.1,8.9,5.5l-3.6,2.5c-1-2.1-3.1-3.2-5.3-3.2c-2.8,0-5.1,1.8-5.1,3.9
		c0,2.4,2.8,3.3,6.6,4.9c4.9,2.1,8.6,4.5,8.6,9.3c0,5.5-4.7,9-11,9C-610.3-1845.8-614.2-1848.1-615.9-1851.7z"/>
	<path class="st3" d="M-590.5-1857.9v-19.1h4.8v19.1c0,4.3,3,7.4,6.8,7.4s6.8-3.1,6.8-7.4v-19.1h4.9v19.1c0,7.1-5.1,12.2-11.6,12.2
		C-585.4-1845.7-590.5-1850.9-590.5-1857.9z"/>
	<path class="st3" d="M-543.1-1851.1v4.8h-18.5v-30.7h4.8v25.9H-543.1z"/>
	<path class="st3" d="M-525.7-1872.2h-8.2v26h-4.8v-26h-8.2v-4.8h21.3V-1872.2z"/>
	<path class="st3" d="M-524.8-1861.6c0-8.8,7.1-15.9,15.9-15.9c8.7,0,15.9,7.2,15.9,15.9c0,8.7-7.2,15.8-15.9,15.8
		C-517.7-1845.8-524.8-1852.9-524.8-1861.6z M-497.9-1861.7c0-6.1-5-11-11-11c-6.1,0-11,5-11,11c0,6,4.9,11,11,11
		C-502.9-1850.7-497.9-1855.6-497.9-1861.7z"/>
	<path class="st3" d="M-471.7-1846.3l-8.3-11.9h-3.8v11.9h-4.8l0-30.7h9.6c5.7,0,10.4,4.4,10.4,9.9c0,4-2.6,7.4-6.1,8.6l8.9,12.3
		H-471.7z M-479-1862.2c2.9,0,5.3-2.3,5.3-5.1c0-2.9-2.5-5-5.3-5h-4.8v10.1H-479z"/>
	<path class="st3" d="M-463.1-1879.6l3.8-6.2h4.3l-4.5,6.2H-463.1z M-462.6-1877h4.8v30.7h-4.8V-1877z"/>
	<path class="st3" d="M-432.5-1851H-447l-2.1,4.7h-5.2l14.5-31.4h0.3l14.5,31.4h-5.2L-432.5-1851z M-434.3-1855.1l-5.4-12l-5.4,12
		H-434.3z"/>
	<path class="st3" d="M-384.7-1846c-2.1,0-4.9-1.3-7.9-3.2c-2.3,2.3-5.3,3.5-8.7,3.5c-7,0-10.5-5.1-10.5-9.6c0-3.7,2.5-7.3,5.2-8.9
		c-1.2-2.2-1.9-4.2-1.9-5.9c0-3.8,3.5-7.7,8.1-7.7c4.2,0,7.4,3.2,8,6.9l-4.7,0.9c-0.2-1.9-1.8-3.3-3.5-3.3c-1.8,0-3.2,1.5-3.2,3.5
		c0,3.6,4.8,9.7,9.8,14.1c0.7-1.7,1.2-3.7,1.3-5.9l4.5-0.1c-0.1,3.5-0.8,6.5-2,8.9c2.1,1.4,4,2.3,5.4,2.3L-384.7-1846z
		 M-396.4-1852.2c-2.9-2.5-5.7-5.4-7.9-8.4c-1.8,1.3-2.9,3-2.9,5c0,2.9,2,5.2,5.7,5.2C-399.5-1850.4-397.8-1851.1-396.4-1852.2z"/>
	<path class="st3" d="M-370.8-1861.6c0-8.7,7.2-15.9,15.9-15.9c4,0.1,7.7,1.8,10.7,4.7l-2.8,3.8c-2.2-2.2-5-3.6-8-3.6
		c-5.6,0-10.9,4.9-10.9,11c0,6.2,5.4,11,10.9,11c3.1,0,5.9-1.6,8-3.7l2.8,3.9c-2.7,2.6-6,4.6-10.6,4.6
		C-363.6-1845.8-370.8-1853-370.8-1861.6z"/>
	<path class="st3" d="M-321.1-1851h-14.6l-2.1,4.7h-5.2l14.5-31.4h0.3l14.5,31.4h-5.2L-321.1-1851z M-323-1855.1l-5.4-12l-5.4,12
		H-323z"/>
	<path class="st3" d="M-310.4-1877h10.3c5.9,0,10.8,4.6,10.8,10.1c0,5.5-4.9,9.9-10.8,9.9h-5.5v10.7h-4.8V-1877z M-294.1-1866.9
		c0-2.9-2.7-5.3-6-5.3h-5.5v10.5l5.5,0C-296.8-1861.7-294.1-1864-294.1-1866.9z"/>
	<path class="st3" d="M-271.8-1851h-14.5l-2.1,4.7h-5.2l14.5-31.4h0.3l14.5,31.4h-5.2L-271.8-1851z M-273.7-1855.1l-5.4-12l-5.4,12
		H-273.7z"/>
	<path class="st3" d="M-265.4-1861.6c0-8.7,7.2-15.9,15.9-15.9c4,0.1,7.7,1.8,10.7,4.7l-2.8,3.8c-2.2-2.2-5-3.6-8-3.6
		c-5.6,0-10.9,4.9-10.9,11c0,6.2,5.4,11,10.9,11c3.1,0,5.9-1.6,8-3.7l2.8,3.9c-2.7,2.6-6,4.6-10.6,4.6
		C-258.2-1845.8-265.4-1853-265.4-1861.6z"/>
	<path class="st3" d="M-235-1877h4.8v30.7h-4.8V-1877z"/>
	<path class="st3" d="M-205-1872.2h-8.2v26h-4.8v-26h-8.2v-4.8h21.3V-1872.2z"/>
	<path class="st3" d="M-185.6-1851h-14.6l-2.1,4.7h-5.2l14.5-31.4h0.3l14.5,31.4h-5.2L-185.6-1851z M-187.5-1855.1l-5.4-12l-5.4,12
		H-187.5z"/>
	<path class="st3" d="M-179.2-1861.6c0-8.7,7.2-15.9,15.9-15.9c4,0.1,7.7,1.8,10.7,4.7l-2.8,3.8c-2.2-2.2-5-3.6-8-3.6
		c-5.6,0-10.9,4.9-10.9,11c0,6.2,5.4,11,10.9,11c3.1,0,5.9-1.6,8-3.7l2.8,3.9c-2.7,2.6-6,4.6-10.6,4.6
		C-172-1845.8-179.2-1853-179.2-1861.6z"/>
	<path class="st3" d="M-148.8-1877h4.8v30.7h-4.8V-1877z"/>
	<path class="st3" d="M-139.6-1861.6c0-8.8,7.1-15.9,15.9-15.9c8.7,0,15.9,7.2,15.9,15.9c0,8.7-7.2,15.8-15.9,15.8
		C-132.4-1845.8-139.6-1852.9-139.6-1861.6z M-112.7-1861.7c0-6.1-5-11-11-11c-6.1,0-11,5-11,11c0,6,4.9,11,11,11
		C-117.7-1850.7-112.7-1855.6-112.7-1861.7z M-126.7-1879.6l3.8-6.2h4.3l-4.5,6.2H-126.7z"/>
	<path class="st3" d="M-78.6-1877.1v31.3h-0.2l-19.7-20.5v20h-4.8v-31.3h0.2l19.6,20.5v-20H-78.6z"/>
</g>
<g>
	<path class="st0" d="M-100.9-1980.1c18.5,11.2,20.7,24.7,16,43.3c-3.5,14-15.2,19-28.4,19.8c-13.8,0.7-27.6,0.1-41.4,0.3
		c-5.9,0.1-6.8-3.5-6.8-8c-0.1-11.5-0.1-23.1-0.1-34.6c0-23.6,0.2-47.2-0.1-70.8c-0.1-7.6,2.1-11.2,10.3-10.7
		c12.1,0.7,24.3-0.5,36.4,0.7c13.3,1.4,23.4,7,26.8,20.6c3.4,13.7,2.5,26.8-9.5,36.8C-98.6-1982-99.4-1981.4-100.9-1980.1z
		 M-153.1-1952c0,7.7,0.1,14,0,20.3c-0.2,5,1.5,7.8,7,7.6c10.7-0.2,21.5,0.2,32.2-0.4c14.3-0.8,22.4-9.3,22.9-23.1
		c0.7-16.2-5.9-24.8-21.1-27.2c-5.1-0.8-10.4-1.3-15.6-1.2c-7.9,0.2-17.8-3.4-23.2,1.6C-156.8-1968.9-152-1958.7-153.1-1952z
		 M-132.2-1982.2c5.9,0.2,13.7,0.2,21.2-1.8c10.8-2.9,16.9-12,16.5-24.6c-0.4-13-6.5-21.1-17.7-23.5c-11.7-2.5-23.6-1.2-35.5-1.4
		c-4.6-0.1-5.4,2.8-5.4,6.5c0,8.5,0,17,0,25.5C-153.1-1982.2-153.1-1982.2-132.2-1982.2z"/>
	<path class="st0" d="M-228.7-1953.3c-6.9,0-13.8,0.3-20.7-0.1c-5.8-0.3-9.2,1.7-11.1,7.3c-2.8,8-6.2,15.8-9.4,23.7
		c-1.3,3.1-3,6.8-7.1,5c-4.2-1.9-1.1-5.3-0.1-7.8c14.2-36,28.4-72,42.7-107.9c1.3-3.2,1.9-7.5,6.6-7.2c4.2,0.3,4.6,4.4,5.7,7.3
		c14.3,35.7,28.5,71.3,42.6,107.1c1,2.6,4.5,6.4-0.2,8.4c-4.6,2-6-2.4-7.4-5.7c-3.2-7.6-6.5-15.2-9.1-22.9
		c-1.9-5.6-5.3-7.6-11.1-7.3C-214.4-1953-221.5-1953.3-228.7-1953.3z M-227.1-2024.1c-0.7,0-1.5,0-2.2,0
		c-7.8,19.5-15.6,39-23.4,58.6c-1.5,3.9,0.5,4.8,4,4.8c13.5-0.1,27-0.1,40.5,0c4,0,5.8-1.2,4.1-5.4
		C-211.9-1985.5-219.5-2004.8-227.1-2024.1z"/>
	<path class="st0" d="M-354.2-1979.1c0-17.8-0.1-35.6,0.1-53.4c0-3-1.2-7.5,4.1-7.2c4.5,0.2,3.4,4.3,3.4,7.1
		c0.1,32.9,0.3,65.7-0.1,98.6c-0.1,7.6,2.2,10.1,9.8,9.8c12.9-0.5,25.9-0.2,38.8-0.1c3.1,0,7.6-0.8,7.2,4.2
		c-0.3,4.3-4.6,3.1-7.3,3.1c-16,0.1-31.9-0.1-47.9,0.2c-6,0.1-8.3-2.1-8.2-8.1C-354-1942.9-354.2-1961-354.2-1979.1z"/>
</g>
<path class="st3" d="M-355-2109"/>
<g>
	<path class="st1" d="M-787.6-16.3c8.4-8.4,18.1-15.6,28.4-21.3c-9.8,6.5-18.6,14.4-26.2,23.4c-7.6,8.9-13.9,18.7-19.3,29
		c-1.3,2.4-2.5,4.9-3.6,7.4c0.5,0.6,1,1.1,1.5,1.6c3.5,3.5,12,7.5,22,7.5c10.1,0,21.9-4,32.1-16.6c18.5-23,20.7-63,43.9-82.6
		c0,0-3.6-0.3-9.5-0.3c-17.1,0-53.6,2.4-77.7,21.5c-17,13.4-32.4,39.7-16.9,63.1c0.9-1.6,1.9-3.1,2.8-4.7
		C-803.5,1.6-796.1-7.9-787.6-16.3z"/>
	<g>
		<path class="st1" d="M-787.6-16.3c8.4-8.4,18.1-15.6,28.4-21.3c-9.8,6.5-18.6,14.4-26.2,23.4c-7.6,8.9-13.9,18.7-19.3,29
			c-1.3,2.4-2.5,4.9-3.6,7.4c0.5,0.6,1,1.1,1.5,1.6c3.5,3.5,12,7.5,22,7.5c10.1,0,21.9-4,32.1-16.6c18.5-23,20.7-63,43.9-82.6
			c0,0-3.6-0.3-9.5-0.3c-17.1,0-53.6,2.4-77.7,21.5c-17,13.4-32.4,39.7-16.9,63.1c0.9-1.6,1.9-3.1,2.8-4.7
			C-803.5,1.6-796.1-7.9-787.6-16.3z"/>
		<g>
			<path class="st1" d="M-751.6,4.5c1.2,1.2,2.4,2.5,3.5,3.8c14.6-23.5,18.3-58.3,39.5-76.2c0,0-3.6-0.3-9.5-0.3
				c-17.1,0-53.6,2.4-77.7,21.5c-6.2,4.9-12.2,11.5-16.5,19.1c8.3,1.5,16.4,3.8,24.2,7.1C-774.5-14.7-761.9-6.2-751.6,4.5z"/>
			<path class="st4" d="M-831.8-29.3c-14.9,0.1-29.9,3-43.6,8.9c-13.7,5.9-26.3,14.4-36.6,25.1c-10.3,10.7-18.5,23.4-23.7,37.1
				c-5.2,13.8-7.7,28.5-7.1,43.1c1.1-29.1,13.7-57,34.2-76.8c20.4-19.8,48.5-31.3,76.8-31.1c3.4,0,6.8,0.1,10.2,0.5
				c0.8-2,1.7-3.9,2.7-5.8C-823.2-29-827.5-29.3-831.8-29.3z"/>
			<path class="st4" d="M-720.8,84.8c0.7-14.5-1.9-29.3-7.1-43.1c-3.9-10.2-9.4-19.7-16.1-28.4c-0.8,1.3-1.7,2.5-2.7,3.8
				C-731.2,35.9-721.8,59.9-720.8,84.8z"/>
		</g>
	</g>
</g>
<path class="st3" d="M-708.2-74.1c-0.2,0-3.9-0.3-10-0.3c-19.6,0-56.4,3-81.5,22.8c-6.9,5.4-14.2,13.5-19.2,23
	c-1,1.9-1.9,3.8-2.7,5.8c-2,5-3.3,10.2-3.7,15.7c-0.6,10.5,2.5,20.5,9.1,29.3c1.1-2,2.2-4,3.4-5.9c-8.4-12.8-7.7-26.4-2.5-38.3
	c0.8-1.9,1.8-3.8,2.9-5.7c4.4-7.6,10.3-14.2,16.5-19.1c24.1-19.1,60.6-21.5,77.7-21.5c5.9,0,9.5,0.3,9.5,0.3
	c-21.2,17.9-24.9,52.8-39.5,76.2c-0.9,1.4-1.7,2.7-2.7,4c-0.6,0.8-1.2,1.6-1.8,2.4c-10.1,12.6-21.9,16.6-32.1,16.6
	c-8.6,0-16-2.9-20.2-6c0.7-1.6,1.4-3.2,2.2-4.8c2.5-5.3,5.4-10.5,8.5-15.4c1.5-2.5,3.2-4.9,4.9-7.4c1.8-2.4,3.5-4.8,5.4-7
	c7.4-9.2,16.1-17.4,25.8-24.2c-10,6.3-19.3,14-27.2,23c-2.1,2.2-3.9,4.5-5.8,6.8c-1.8,2.4-3.7,4.7-5.3,7.2c-3.5,4.9-6.6,10-9.5,15.3
	c-0.7,1.2-1.3,2.4-1.9,3.7c-0.1-0.1-2.1,3.8-3,5.9c0,0,0,0,0,0c-3.7,7.6-6.8,15.5-9.5,23.5c-1.9,5.7-3.6,11.5-5.1,17.3
	c-1.5,5.9-2.7,11.7-3.5,17.9l-0.5,3.8l7.9,0.7l0.3-3.9c1-11.3,3.3-23,6.4-34.3c2.1-7.6,4.7-15,7.6-22.3c5.3,3.5,13.4,6.4,22.6,6.4
	c9.9,0,24.3-3.3,36.9-19c0.4-0.5,0.7-1,1.1-1.5c0.9-1.2,1.8-2.5,2.7-3.8c6.6-10,11.1-22,15.4-33.6c6.3-16.9,12.2-32.9,23.9-42.8
	l11.5-9.7L-708.2-74.1z"/>
<path class="st0" d="M-1185.3,96.7c-18.4-2.9-37.4-2.2-56.6-3.1c0,42.8,0,83.9,0,125.1c16.6,0,32.9,1.1,49-0.3
	c21.3-1.8,34.9-14,40-35.2c4.3-18,4.3-35.8-0.3-53.8C-1157.7,112.2-1167.9,99.5-1185.3,96.7z M-1177,182.9
	c-3.6,11.9-12.2,17.7-24.6,18.1c-4.9,0.1-9.8-0.1-14.7,0.1c-3.4,0.2-4.5-1.1-4.5-4.5c0.1-13.3,0.1-26.5,0.1-39.8
	c0-9.7,0.1-19.4,0-29c0-3.2,0-6.5-0.1-9.7c-0.1-3.9,0.8-5.8,5.2-5.4c4.5,0.4,9.1,0,13.6,0.1c12.7,0.3,21.4,6.1,25,18.2
	C-1171.8,148.1-1171.8,165.7-1177,182.9z"/>
<path class="st0" d="M-966.2,169.1c-1.3-2.2-1.4-3.6,1.4-4.8c12.8-5.4,19.1-15.8,20.6-29.1c1.9-16.8-6.7-33.6-23.5-38.5
	c-6.2-1.8-13-2.5-19.5-2.7c-13.7-0.4-27.5-0.1-42-0.1c0,3,0,5,0,7.1c0,34.5,0,69.1,0,103.6c0,14,2.3,15.9,16.4,13.6
	c0.2,0,0.3-0.1,0.5-0.1c3.7-0.1,5-1.9,4.9-5.7c-0.2-12.9-0.1-25.8-0.1-38.7c0-1.8,0.2-3.7,0.3-5.8c4.3,0,8-0.2,11.6,0.1
	c1.5,0.1,3.4,1.2,4.1,2.4c6.9,11.5,13.5,23.1,20.4,34.5c2.4,4,4.4,9.3,8,11.2c7.6,3.9,16.1,3.2,25.1,0.4
	c-5.1-8.6-9.9-16.6-14.7-24.7C-957.1,184.4-961.6,176.7-966.2,169.1z M-983.1,149.6c-7.8,0.7-15.6,0.1-24.3,0.1
	c0-12.1-0.1-23.5,0.1-35c0-0.9,1.9-2.6,2.9-2.6c7.1-0.1,14.3-0.4,21.4,0.3c10.4,1.1,15.5,7.7,15.4,18.8
	C-967.7,141.7-973.2,148.7-983.1,149.6z"/>
<path class="st0" d="M-856.9,110.1c-5.6-16.6-5.5-16.6-23-15.9c-1.4,0.1-2.8,0.3-4.2,0.5c-3.3,0.4-5.1,1.9-6.3,5.3
	c-4.7,14-9.7,27.9-14.5,41.8c-7.4,21.6-14.5,43.2-22.2,64.7c-4.5,12.5-4.1,12.2,9.1,12.4c0.7,0,1.4-0.1,2.1-0.1
	c4.3-0.2,6.9-2.1,8.1-6.6c1.8-6.4,4.5-12.4,6.4-18.8c0.9-3.1,2.7-3.5,5.4-3.5c6.5,0.1,12.9,0,19.4,0c6.3,0,12.6,0.2,18.9-0.1
	c3.8-0.2,5.7,1.2,6.7,4.9c1.4,5,3.3,9.8,4.9,14.8c2.6,8.1,4,9.2,12.7,9.3c2.8,0,5.6-0.3,8.3-0.5c4.1-0.3,4.7-2.3,3.4-6.1
	C-833.5,178.2-845.3,144.2-856.9,110.1z M-893.5,171.3c5.7-17.3,11.3-34.5,17.2-52.5c5.9,17.9,11.4,34.9,17.2,52.5
	C-870.7,171.3-881.7,171.3-893.5,171.3z"/>
<path class="st0" d="M-1058,200.6c-8.9,0.3-17.8,0.1-26.7,0.1c-4.6,0-9.3,0-14,0c-2.7,0-4.9-2.2-4.9-4.9v-26.3
	c0-2.7,2.2-4.9,4.9-4.9c9.3,0,18.4,0,27.4,0c9,0,10.1-1.2,9.9-10.2c0-0.5-0.3-1-0.3-1.5c0-4.8-2.3-6.6-7.2-6.4
	c-10.3,0.3-20.6,0-30.9,0c-4.1,0-4.1-1.5-4.1-2.3c-0.2-8.9-0.2-17.7-0.2-27c0-2.7,2.2-4.9,4.9-4.9h1.3c12.6,0,25.1-0.2,37.7,0.1
	c5,0.1,7.5-1.3,7-6.9c-0.1-1.5-0.1-3,0-4.5c0.6-5.6-2-6.9-7.1-6.8c-19.9,0.3-39.8,0.1-59.7,0.1c-0.2,0-0.4,0-0.6,0
	c-2.7,0.1-4.8,2.3-4.8,4.9v114.8c0,2.7,2.2,4.9,4.9,4.9h0.7c20.3,0,40.5-0.2,60.8,0.1c5.5,0.1,7.8-1.9,7.7-7.1
	c0-1.7-0.1-3.5-0.1-5.2C-1051.5,202.3-1053.4,200.4-1058,200.6z"/>
<path class="st0" d="M-1323.3,199.5c-12.7,0.3-25.5-0.1-38.2,0.2c-4.7,0.1-5.9-1.4-5.9-5.9c0.2-28.6,0.1-57.3,0.1-85.9
	c0-14-1-14.8-15.1-13.5c-0.2,0-0.3,0-0.5,0c-4.5,0.1-6.3,1.9-6.2,6.8c0.3,18.7,0.1,37.4,0.1,56c0,18.9,0,37.7,0,56.6
	c0,2.7-0.4,5.2,3.8,5.1c21.5-0.1,43,0,64.4-0.2c1.5,0,3.8-2.2,4.3-3.7c0.8-2.7,0.6-5.8,0.6-8.8
	C-1315.8,201.1-1318.1,199.3-1323.3,199.5z"/>
<path class="st0" d="M-1270.7,108c0-14.1-1.6-15.4-15.9-13.8c-4.6,0.5-6,2.4-6,7.1c0.3,18.5,0.1,37,0.1,55.5c0,16.2,0,32.4,0,48.7
	c0,13.6,1,14.5,14.8,13.3c0.2,0,0.3,0,0.5,0c4.6-0.2,6.5-2,6.5-7.1C-1270.8,177.1-1270.7,142.5-1270.7,108z"/>
<g>
	<path class="st3" d="M-1368.2,284.3h-14.6l-2.1,4.7h-5.2l14.5-31.4h0.3l14.5,31.4h-5.2L-1368.2,284.3z M-1370.1,280.1l-5.4-12
		l-5.4,12H-1370.1z"/>
	<path class="st3" d="M-1360.2,283.5l3.8-2.7c1.4,2.4,3.9,3.8,6.9,3.8c3.5,0,6.1-1.7,6.1-4c0-2.8-4-4.6-7.6-6.1
		c-3.6-1.6-7.6-3.5-7.6-8.3c0-5,4.4-8.5,9.9-8.5c4.4,0,7.7,2.1,8.9,5.5l-3.6,2.5c-1-2.1-3.1-3.2-5.3-3.2c-2.8,0-5.1,1.8-5.1,3.9
		c0,2.4,2.8,3.3,6.6,4.9c4.9,2.1,8.6,4.5,8.6,9.3c0,5.5-4.7,9-11,9C-1354.6,289.4-1358.4,287.1-1360.2,283.5z"/>
	<path class="st3" d="M-1329.6,262.9v7.9h11.6v4.8h-11.6v8.5h13.5v4.8h-18.3v-30.7h18.3v4.7H-1329.6z"/>
	<path class="st3" d="M-1312.9,283.5l3.8-2.7c1.4,2.4,3.9,3.8,6.9,3.8c3.4,0,6.1-1.7,6.1-4c0-2.8-4-4.6-7.6-6.1
		c-3.6-1.6-7.6-3.5-7.6-8.3c0-5,4.4-8.5,9.9-8.5c4.4,0,7.7,2.1,8.9,5.5l-3.6,2.5c-1-2.1-3.1-3.2-5.3-3.2c-2.8,0-5.1,1.8-5.1,3.9
		c0,2.4,2.8,3.3,6.6,4.9c4.9,2.1,8.6,4.5,8.6,9.3c0,5.5-4.7,9-11,9C-1307.3,289.4-1311.1,287.1-1312.9,283.5z"/>
	<path class="st3" d="M-1288.6,273.6c0-8.8,7.1-15.9,15.9-15.9c8.7,0,15.9,7.2,15.9,15.9c0,8.7-7.2,15.8-15.9,15.8
		C-1281.5,289.4-1288.6,282.3-1288.6,273.6z M-1261.7,273.6c0-6.1-5-11-11-11c-6.1,0-11,5-11,11c0,6,4.9,11,11,11
		C-1266.7,284.5-1261.7,279.6-1261.7,273.6z"/>
	<path class="st3" d="M-1235.5,288.9l-8.3-11.9h-3.8v11.9h-4.8l0-30.7h9.6c5.7,0,10.4,4.4,10.4,9.9c0,4-2.6,7.4-6.1,8.6l8.9,12.3
		H-1235.5z M-1242.7,273c2.9,0,5.3-2.3,5.3-5.1c0-2.9-2.5-5-5.3-5h-4.8V273H-1242.7z"/>
	<path class="st3" d="M-1226.9,255.7l3.8-6.2h4.3l-4.5,6.2H-1226.9z M-1226.3,258.2h4.8v30.7h-4.8V258.2z"/>
	<path class="st3" d="M-1196.2,284.3h-14.5l-2.1,4.7h-5.2l14.5-31.4h0.3l14.5,31.4h-5.2L-1196.2,284.3z M-1198.1,280.1l-5.4-12
		l-5.4,12H-1198.1z"/>
	<path class="st3" d="M-1186.1,295.1c1.3,0,3.5-1.1,3.5-3.9c0-0.7-0.1-1-0.3-1.5c-1.3,0-2.9-1-2.9-3c0-1.8,1.4-3.4,3.4-3.4
		c1.9,0,3.6,1.6,3.6,4.9c0,4.2-2.3,7.7-5.5,7.7C-1185.5,296-1186.1,295.4-1186.1,295.1z"/>
	<path class="st3" d="M-1163.7,273.6c0-8.7,7.2-15.9,15.9-15.9c4,0.1,7.7,1.8,10.7,4.7l-2.8,3.8c-2.2-2.2-5-3.6-8-3.6
		c-5.6,0-10.9,4.9-10.9,11c0,6.2,5.4,11,10.9,11c3.1,0,5.9-1.6,8-3.7l2.8,3.9c-2.7,2.6-6,4.6-10.6,4.6
		C-1156.5,289.4-1163.7,282.3-1163.7,273.6z"/>
	<path class="st3" d="M-1136.1,273.6c0-8.8,7.1-15.9,15.9-15.9c8.7,0,15.9,7.2,15.9,15.9c0,8.7-7.2,15.8-15.9,15.8
		C-1129,289.4-1136.1,282.3-1136.1,273.6z M-1109.2,273.6c0-6.1-5-11-11-11c-6.1,0-11,5-11,11c0,6,4.9,11,11,11
		C-1114.2,284.5-1109.2,279.6-1109.2,273.6z"/>
	<path class="st3" d="M-1075.2,258.1v31.3h-0.2l-19.7-20.5v20h-4.8v-31.3h0.2l19.6,20.5v-20H-1075.2z"/>
	<path class="st3" d="M-1071,283.5l3.8-2.7c1.4,2.4,3.9,3.8,6.9,3.8c3.5,0,6.1-1.7,6.1-4c0-2.8-4-4.6-7.6-6.1
		c-3.6-1.6-7.6-3.5-7.6-8.3c0-5,4.4-8.5,9.9-8.5c4.4,0,7.7,2.1,8.9,5.5l-3.6,2.5c-1-2.1-3.1-3.2-5.3-3.2c-2.8,0-5.1,1.8-5.1,3.9
		c0,2.4,2.8,3.3,6.6,4.9c4.9,2.1,8.6,4.5,8.6,9.3c0,5.5-4.7,9-11,9C-1065.4,289.4-1069.3,287.1-1071,283.5z"/>
	<path class="st3" d="M-1045.6,277.3v-19.1h4.8v19.1c0,4.3,3,7.4,6.8,7.4c3.8,0,6.8-3.1,6.8-7.4v-19.1h4.9v19.1
		c0,7.1-5.1,12.2-11.6,12.2C-1040.5,289.5-1045.6,284.3-1045.6,277.3z"/>
	<path class="st3" d="M-998.2,284.1v4.8h-18.5v-30.7h4.8v25.9H-998.2z"/>
	<path class="st3" d="M-980.8,263h-8.2v26h-4.8v-26h-8.2v-4.8h21.3V263z"/>
	<path class="st3" d="M-979.9,273.6c0-8.8,7.1-15.9,15.9-15.9c8.7,0,15.9,7.2,15.9,15.9c0,8.7-7.2,15.8-15.9,15.8
		C-972.8,289.4-979.9,282.3-979.9,273.6z M-953,273.6c0-6.1-5-11-11-11c-6.1,0-11,5-11,11c0,6,4.9,11,11,11
		C-958,284.5-953,279.6-953,273.6z"/>
	<path class="st3" d="M-926.8,288.9l-8.3-11.9h-3.8v11.9h-4.8l0-30.7h9.6c5.7,0,10.4,4.4,10.4,9.9c0,4-2.6,7.4-6.1,8.6l8.9,12.3
		H-926.8z M-934.1,273c2.9,0,5.3-2.3,5.3-5.1c0-2.9-2.5-5-5.3-5h-4.8V273H-934.1z"/>
	<path class="st3" d="M-918.2,255.7l3.8-6.2h4.3l-4.5,6.2H-918.2z M-917.7,258.2h4.8v30.7h-4.8V258.2z"/>
	<path class="st3" d="M-887.6,284.3h-14.6l-2.1,4.7h-5.2l14.5-31.4h0.3l14.5,31.4h-5.2L-887.6,284.3z M-889.4,280.1l-5.4-12l-5.4,12
		H-889.4z"/>
	<path class="st3" d="M-839.8,289.2c-2.1,0-4.9-1.3-7.9-3.2c-2.3,2.3-5.3,3.5-8.7,3.5c-7,0-10.5-5.1-10.5-9.6c0-3.7,2.5-7.3,5.2-8.9
		c-1.2-2.2-1.9-4.2-1.9-5.9c0-3.8,3.5-7.7,8.1-7.7c4.2,0,7.4,3.2,8,6.9l-4.7,0.9c-0.2-1.9-1.8-3.3-3.5-3.3c-1.8,0-3.2,1.5-3.2,3.5
		c0,3.6,4.8,9.7,9.8,14.1c0.7-1.7,1.2-3.7,1.3-5.9l4.5-0.1c-0.1,3.5-0.8,6.5-2,8.9c2.1,1.4,4,2.3,5.4,2.3L-839.8,289.2z M-851.5,283
		c-2.9-2.5-5.7-5.4-7.9-8.4c-1.8,1.3-2.9,3-2.9,5c0,2.9,2,5.2,5.7,5.2C-854.6,284.8-852.9,284.2-851.5,283z"/>
	<path class="st3" d="M-825.9,273.6c0-8.7,7.2-15.9,15.9-15.9c4,0.1,7.7,1.8,10.7,4.7l-2.8,3.8c-2.2-2.2-5-3.6-8-3.6
		c-5.6,0-10.9,4.9-10.9,11c0,6.2,5.4,11,10.9,11c3.1,0,5.9-1.6,8-3.7l2.8,3.9c-2.7,2.6-6,4.6-10.6,4.6
		C-818.7,289.4-825.9,282.3-825.9,273.6z"/>
	<path class="st3" d="M-776.2,284.3h-14.5l-2.1,4.7h-5.2l14.5-31.4h0.3l14.5,31.4h-5.2L-776.2,284.3z M-778.1,280.1l-5.4-12l-5.4,12
		H-778.1z"/>
	<path class="st3" d="M-765.5,258.2h10.3c5.9,0,10.8,4.6,10.8,10.1c0,5.5-4.9,9.9-10.8,9.9h-5.5v10.7h-4.8V258.2z M-749.2,268.3
		c0-2.9-2.7-5.3-6-5.3h-5.5v10.5l5.5,0C-751.9,273.5-749.2,271.2-749.2,268.3z"/>
	<path class="st3" d="M-726.9,284.3h-14.5l-2.1,4.7h-5.2l14.5-31.4h0.3l14.5,31.4h-5.2L-726.9,284.3z M-728.8,280.1l-5.4-12l-5.4,12
		H-728.8z"/>
	<path class="st3" d="M-720.5,273.6c0-8.7,7.2-15.9,15.9-15.9c4,0.1,7.7,1.8,10.7,4.7l-2.8,3.8c-2.2-2.2-5-3.6-8-3.6
		c-5.6,0-10.9,4.9-10.9,11c0,6.2,5.4,11,10.9,11c3.1,0,5.9-1.6,8-3.7l2.8,3.9c-2.7,2.6-6,4.6-10.6,4.6
		C-713.3,289.4-720.5,282.3-720.5,273.6z"/>
	<path class="st3" d="M-690.1,258.2h4.8v30.7h-4.8V258.2z"/>
	<path class="st3" d="M-660.1,263h-8.2v26h-4.8v-26h-8.2v-4.8h21.3V263z"/>
	<path class="st3" d="M-640.7,284.3h-14.5l-2.1,4.7h-5.2l14.5-31.4h0.3l14.5,31.4h-5.2L-640.7,284.3z M-642.6,280.1l-5.4-12l-5.4,12
		H-642.6z"/>
	<path class="st3" d="M-634.3,273.6c0-8.7,7.2-15.9,15.9-15.9c4,0.1,7.7,1.8,10.7,4.7l-2.8,3.8c-2.2-2.2-5-3.6-8-3.6
		c-5.6,0-10.9,4.9-10.9,11c0,6.2,5.4,11,10.9,11c3.1,0,5.9-1.6,8-3.7l2.8,3.9c-2.7,2.6-6,4.6-10.6,4.6
		C-627.1,289.4-634.3,282.3-634.3,273.6z"/>
	<path class="st3" d="M-604,258.2h4.8v30.7h-4.8V258.2z"/>
	<path class="st3" d="M-594.7,273.6c0-8.8,7.1-15.9,15.9-15.9c8.7,0,15.9,7.2,15.9,15.9c0,8.7-7.2,15.8-15.9,15.8
		C-587.5,289.4-594.7,282.3-594.7,273.6z M-567.8,273.6c0-6.1-5-11-11-11c-6.1,0-11,5-11,11c0,6,4.9,11,11,11
		C-572.8,284.5-567.8,279.6-567.8,273.6z M-581.8,255.7l3.8-6.2h4.3l-4.5,6.2H-581.8z"/>
	<path class="st3" d="M-533.7,258.1v31.3h-0.2l-19.7-20.5v20h-4.8v-31.3h0.2l19.6,20.5v-20H-533.7z"/>
</g>
<g>
	<path class="st0" d="M-556,155.1c18.5,11.2,20.7,24.7,16,43.3c-3.5,14-15.2,19-28.4,19.8c-13.8,0.7-27.6,0.1-41.4,0.3
		c-5.9,0.1-6.8-3.5-6.8-8c-0.1-11.5-0.1-23.1-0.1-34.6c0-23.6,0.2-47.2-0.1-70.8c-0.1-7.6,2.1-11.2,10.3-10.7
		c12.1,0.7,24.3-0.5,36.4,0.7c13.3,1.4,23.4,7,26.8,20.6c3.4,13.7,2.5,26.8-9.5,36.8C-553.7,153.2-554.5,153.9-556,155.1z
		 M-608.2,183.2c0,7.7,0.1,14,0,20.3c-0.2,5,1.5,7.8,7,7.6c10.7-0.2,21.5,0.2,32.2-0.4c14.3-0.8,22.4-9.3,22.9-23.1
		c0.7-16.2-5.9-24.8-21.1-27.2c-5.1-0.8-10.4-1.3-15.6-1.2c-7.9,0.2-17.8-3.4-23.2,1.6C-611.9,166.3-607.1,176.5-608.2,183.2z
		 M-587.3,153c5.9,0.2,13.7,0.2,21.2-1.8c10.8-2.9,16.9-12,16.5-24.6c-0.4-13-6.5-21.1-17.7-23.5c-11.7-2.5-23.6-1.2-35.5-1.4
		c-4.6-0.1-5.4,2.8-5.4,6.5c0,8.5,0,17,0,25.5C-608.2,153-608.2,153-587.3,153z"/>
	<path class="st0" d="M-683.8,181.9c-6.9,0-13.8,0.3-20.7-0.1c-5.8-0.3-9.2,1.7-11.1,7.3c-2.8,8-6.2,15.8-9.4,23.7
		c-1.3,3.1-3,6.8-7.1,5c-4.2-1.9-1.1-5.3-0.1-7.8c14.2-36,28.4-72,42.7-107.9c1.3-3.2,1.9-7.5,6.6-7.2c4.2,0.3,4.6,4.4,5.7,7.3
		c14.3,35.7,28.5,71.3,42.6,107.1c1,2.6,4.5,6.4-0.2,8.4c-4.6,2-6-2.4-7.4-5.7c-3.2-7.6-6.5-15.2-9.1-22.9
		c-1.9-5.6-5.3-7.6-11.1-7.3C-669.5,182.2-676.6,181.9-683.8,181.9z M-682.2,111.1c-0.7,0-1.5,0-2.2,0c-7.8,19.5-15.6,39-23.4,58.6
		c-1.5,3.9,0.5,4.8,4,4.8c13.5-0.1,27-0.1,40.5,0c4,0,5.8-1.2,4.1-5.4C-667,149.8-674.6,130.4-682.2,111.1z"/>
	<path class="st0" d="M-809.3,156.2c0-17.8-0.1-35.6,0.1-53.4c0-3-1.2-7.5,4.1-7.2c4.5,0.2,3.4,4.3,3.4,7.1
		c0.1,32.9,0.3,65.7-0.1,98.6c-0.1,7.6,2.2,10.1,9.8,9.8c12.9-0.5,25.9-0.2,38.8-0.1c3.1,0,7.6-0.8,7.2,4.2
		c-0.3,4.3-4.6,3.1-7.3,3.1c-16,0.1-31.9-0.1-47.9,0.2c-6,0.1-8.3-2.1-8.2-8.1C-809.1,192.3-809.3,174.2-809.3,156.2z"/>
</g>
<path class="st3" d="M-810.1,26.3"/>
<g>
	<g>
		<path class="st1" d="M-810.4,559.7c8.5-8.5,18.2-15.8,28.7-21.5c-9.9,6.6-18.8,14.6-26.4,23.6c-7.6,9-14.1,18.9-19.5,29.3
			c-1.3,2.5-2.5,5-3.7,7.5c0.5,0.6,1,1.1,1.6,1.7c3.6,3.6,12.1,7.6,22.3,7.6c10.2,0,22.2-4.1,32.4-16.8
			c18.7-23.3,20.9-63.6,44.4-83.5c0,0-3.7-0.3-9.6-0.3c-17.3,0-54.1,2.5-78.5,21.7c-17.2,13.5-32.7,40.1-17.1,63.7
			c0.9-1.6,1.9-3.2,2.9-4.7C-826.5,577.8-819,568.2-810.4,559.7z"/>
		<g>
			<path class="st1" d="M-810.4,559.7c8.5-8.5,18.2-15.8,28.7-21.5c-9.9,6.6-18.8,14.6-26.4,23.6c-7.6,9-14.1,18.9-19.5,29.3
				c-1.3,2.5-2.5,5-3.7,7.5c0.5,0.6,1,1.1,1.6,1.7c3.6,3.6,12.1,7.6,22.3,7.6c10.2,0,22.2-4.1,32.4-16.8
				c18.7-23.3,20.9-63.6,44.4-83.5c0,0-3.7-0.3-9.6-0.3c-17.3,0-54.1,2.5-78.5,21.7c-17.2,13.5-32.7,40.1-17.1,63.7
				c0.9-1.6,1.9-3.2,2.9-4.7C-826.5,577.8-819,568.2-810.4,559.7z"/>
			<g>
				<path class="st1" d="M-774.1,580.8c1.2,1.2,2.4,2.5,3.5,3.8c14.7-23.7,18.4-58.9,39.9-77c0,0-3.7-0.3-9.6-0.3
					c-17.3,0-54.1,2.5-78.5,21.7c-6.3,5-12.3,11.6-16.7,19.3c8.4,1.5,16.6,3.8,24.4,7.1C-797.2,561.4-784.5,570-774.1,580.8z"/>
				<path class="st2" d="M-855.1,546.5c-15.1,0.1-30.2,3.1-44,8.9c-13.8,5.9-26.6,14.5-37,25.3c-10.5,10.8-18.6,23.6-24,37.5
					c-5.2,13.9-7.8,28.8-7.1,43.5c1.1-29.4,13.9-57.6,34.6-77.6c20.6-20,49-31.6,77.6-31.4c3.4,0,6.9,0.1,10.3,0.5
					c0.8-2,1.7-4,2.7-5.9C-846.4,546.9-850.7,546.6-855.1,546.5z"/>
				<path class="st2" d="M-742.9,661.8c0.7-14.7-1.9-29.6-7.1-43.5c-3.9-10.3-9.5-19.9-16.3-28.7c-0.9,1.3-1.8,2.6-2.7,3.8
					C-753.4,612.4-743.9,636.7-742.9,661.8z"/>
			</g>
		</g>
	</g>
	<path class="st3" d="M-730.1,501.4c-0.2,0-4-0.3-10.1-0.3c-19.8,0-56.9,3-82.3,23.1c-7,5.5-14.3,13.6-19.4,23.2
		c-1,1.9-1.9,3.9-2.7,5.9c-2,5-3.4,10.3-3.7,15.9c-0.6,10.6,2.5,20.7,9.2,29.6c1.1-2,2.3-4,3.4-6c-8.5-12.9-7.7-26.6-2.5-38.7
		c0.8-2,1.8-3.9,2.9-5.7c4.4-7.7,10.4-14.3,16.7-19.3c24.4-19.2,61.2-21.7,78.5-21.7c6,0,9.6,0.3,9.6,0.3
		c-21.4,18.1-25.2,53.3-39.9,77c-0.9,1.4-1.8,2.7-2.7,4c-0.6,0.8-1.2,1.6-1.8,2.4c-10.2,12.7-22.1,16.8-32.4,16.8
		c-8.7,0-16.1-2.9-20.4-6c0.7-1.6,1.4-3.3,2.2-4.9c2.6-5.3,5.4-10.6,8.6-15.6c1.5-2.6,3.3-5,4.9-7.4c1.8-2.4,3.5-4.8,5.4-7.1
		c7.4-9.3,16.2-17.5,26-24.5c-10.1,6.4-19.5,14.2-27.5,23.2c-2.1,2.2-3.9,4.6-5.9,6.9c-1.8,2.4-3.7,4.8-5.4,7.3
		c-3.5,4.9-6.7,10.1-9.6,15.4c-0.7,1.2-1.3,2.5-1.9,3.7c-0.1-0.1-2.1,3.8-3,5.9c0,0,0,0,0,0c-3.7,7.7-6.9,15.6-9.6,23.7
		c-1.9,5.8-3.6,11.6-5.1,17.5c-1.5,5.9-2.7,11.8-3.6,18.1l-0.5,3.9l8,0.7l0.3-3.9c1-11.4,3.4-23.2,6.5-34.6
		c2.1-7.6,4.7-15.2,7.7-22.5c5.4,3.5,13.5,6.4,22.9,6.4c10,0,24.5-3.3,37.3-19.1c0.4-0.5,0.7-1,1.1-1.5c0.9-1.2,1.8-2.5,2.7-3.8
		c6.7-10.1,11.2-22.2,15.5-34c6.3-17.1,12.3-33.3,24.2-43.3l11.6-9.8L-730.1,501.4z"/>
	<path class="st2" d="M-1212.1,673.9c-18.6-2.9-37.8-2.2-57.2-3.1c0,43.2,0,84.7,0,126.4c16.8,0,33.2,1.1,49.5-0.3
		c21.5-1.9,35.3-14.1,40.4-35.6c4.3-18.2,4.3-36.2-0.3-54.3C-1184.3,689.5-1194.5,676.7-1212.1,673.9z M-1203.7,760.9
		c-3.6,12-12.3,17.9-24.8,18.2c-4.9,0.1-9.9-0.1-14.8,0.1c-3.5,0.2-4.6-1.1-4.5-4.6c0.1-13.4,0.1-26.8,0.1-40.2
		c0-9.8,0.1-19.6,0-29.3c0-3.3,0-6.5-0.1-9.8c-0.1-3.9,0.8-5.9,5.2-5.5c4.6,0.4,9.2,0,13.7,0.1c12.8,0.3,21.6,6.1,25.3,18.4
		C-1198.4,725.8-1198.4,743.5-1203.7,760.9z"/>
	<path class="st2" d="M-990.8,747c-1.3-2.2-1.4-3.7,1.4-4.9c12.9-5.5,19.2-16,20.8-29.4c2-17-6.7-33.9-23.8-38.9
		c-6.3-1.9-13.1-2.5-19.7-2.7c-13.9-0.4-27.8-0.1-42.4-0.1c0,3,0,5.1,0,7.2c0,34.9,0,69.8,0,104.7c0,14.1,2.3,16,16.5,13.8
		c0.2,0,0.3-0.1,0.5-0.1c3.7-0.1,5-2,5-5.8c-0.2-13-0.1-26.1-0.1-39.1c0-1.8,0.2-3.7,0.3-5.8c4.3,0,8-0.2,11.7,0.1
		c1.5,0.1,3.4,1.2,4.1,2.5c7,11.6,13.7,23.3,20.6,34.9c2.4,4,4.4,9.4,8.1,11.3c7.6,3.9,16.2,3.2,25.4,0.4
		c-5.2-8.7-10-16.8-14.8-24.9C-981.6,762.4-986.2,754.7-990.8,747z M-1007.8,727.3c-7.8,0.7-15.8,0.1-24.6,0.1
		c0-12.2-0.1-23.8,0.1-35.3c0-0.9,1.9-2.6,2.9-2.6c7.2-0.1,14.5-0.4,21.6,0.3c10.5,1.1,15.6,7.8,15.5,19
		C-992.3,719.3-997.8,726.4-1007.8,727.3z"/>
	<path class="st2" d="M-880.4,687.4c-5.7-16.7-5.5-16.8-23.2-16.1c-1.4,0.1-2.8,0.3-4.2,0.5c-3.3,0.4-5.2,1.9-6.3,5.3
		c-4.7,14.1-9.8,28.1-14.6,42.2c-7.5,21.8-14.7,43.7-22.4,65.4c-4.5,12.6-4.1,12.4,9.1,12.5c0.7,0,1.4-0.1,2.1-0.1
		c4.4-0.2,7-2.1,8.2-6.6c1.8-6.4,4.6-12.6,6.5-19c0.9-3.1,2.7-3.5,5.4-3.5c6.5,0.1,13.1,0,19.6,0c6.3,0,12.7,0.2,19-0.1
		c3.9-0.2,5.7,1.2,6.8,4.9c1.4,5.1,3.3,9.9,5,14.9c2.7,8.2,4.1,9.3,12.8,9.4c2.8,0,5.6-0.3,8.4-0.5c4.1-0.3,4.8-2.3,3.5-6.1
		C-856.8,756.2-868.7,721.8-880.4,687.4z M-917.3,749.2c5.7-17.5,11.4-34.8,17.4-53.1c5.9,18.1,11.5,35.2,17.3,53.1
		C-894.3,749.2-905.4,749.2-917.3,749.2z"/>
	<path class="st2" d="M-1083.5,778.8c-9,0.3-18,0.1-27,0.1c-4.7,0-9.4,0-14.1,0c-2.7,0-5-2.2-5-5v-26.6c0-2.7,2.2-5,5-5
		c9.4,0,18.6,0,27.7,0c9.1,0,10.2-1.2,10-10.3c0-0.5-0.3-1-0.3-1.6c0-4.9-2.3-6.6-7.3-6.5c-10.4,0.4-20.8,0-31.2,0
		c-4.1,0-4.1-1.5-4.1-2.3c-0.2-9-0.2-17.9-0.2-27.3c0-2.7,2.2-5,5-5h1.3c12.7,0,25.4-0.2,38.1,0.1c5,0.1,7.6-1.4,7.1-7
		c-0.1-1.5-0.1-3,0-4.6c0.6-5.7-2-7-7.2-6.9c-20.1,0.3-40.2,0.1-60.3,0.1c-0.2,0-0.4,0-0.6,0c-2.7,0.1-4.8,2.3-4.8,5v115.9
		c0,2.7,2.2,5,5,5h0.7c20.5,0,40.9-0.2,61.4,0.1c5.5,0.1,7.8-1.9,7.8-7.2c0-1.8-0.1-3.5-0.1-5.2
		C-1077,780.5-1078.9,778.7-1083.5,778.8z"/>
	<path class="st2" d="M-1351.5,777.7c-12.9,0.3-25.8-0.1-38.6,0.2c-4.7,0.1-6-1.4-5.9-6c0.2-28.9,0.1-57.9,0.1-86.8
		c0-14.1-1-15-15.3-13.6c-0.2,0-0.4,0-0.5,0.1c-4.5,0.1-6.3,2-6.3,6.9c0.3,18.9,0.1,37.7,0.1,56.6c0,19,0,38.1,0,57.1
		c0,2.7-0.4,5.2,3.8,5.2c21.7-0.1,43.4,0,65.1-0.2c1.5,0,3.8-2.2,4.3-3.8c0.8-2.8,0.6-5.9,0.7-8.8
		C-1343.9,779.3-1346.3,777.5-1351.5,777.7z"/>
	<path class="st2" d="M-1298.3,685.3c0-14.3-1.6-15.5-16-13.9c-4.6,0.5-6.1,2.4-6,7.1c0.3,18.7,0.1,37.4,0.1,56
		c0,16.4,0,32.8,0,49.2c0,13.8,1,14.7,15,13.4c0.2,0,0.4,0,0.5,0c4.6-0.2,6.6-2,6.6-7.1C-1298.5,755.1-1298.3,720.2-1298.3,685.3z"
		/>
	<g>
		<path class="st3" d="M-1396.8,863.3h-14.7l-2.1,4.7h-5.3l14.6-31.7h0.3l14.6,31.7h-5.3L-1396.8,863.3z M-1398.7,859.1l-5.5-12.1
			l-5.5,12.1H-1398.7z"/>
		<path class="st3" d="M-1388.7,862.6l3.9-2.8c1.4,2.4,4,3.8,7,3.8c3.5,0,6.1-1.7,6.1-4c0-2.9-4.1-4.6-7.7-6.2
			c-3.6-1.6-7.7-3.5-7.7-8.4c0-5.1,4.4-8.6,10-8.6c4.4,0,7.7,2.1,9,5.5l-3.6,2.5c-1-2.1-3.1-3.3-5.4-3.3c-2.9,0-5.1,1.8-5.1,4
			c0,2.4,2.9,3.3,6.6,4.9c4.9,2.2,8.7,4.5,8.7,9.4c0,5.5-4.8,9.1-11.1,9.1C-1383.1,868.6-1387,866.2-1388.7,862.6z"/>
		<path class="st3" d="M-1357.9,841.8v8h11.7v4.9h-11.7v8.6h13.6v4.9h-18.5v-31h18.5v4.8H-1357.9z"/>
		<path class="st3" d="M-1341,862.6l3.9-2.8c1.4,2.4,4,3.8,7,3.8c3.5,0,6.1-1.7,6.1-4c0-2.9-4.1-4.6-7.7-6.2
			c-3.6-1.6-7.7-3.5-7.7-8.4c0-5.1,4.4-8.6,10-8.6c4.4,0,7.7,2.1,9,5.5l-3.6,2.5c-1-2.1-3.1-3.3-5.4-3.3c-2.9,0-5.1,1.8-5.1,4
			c0,2.4,2.9,3.3,6.6,4.9c4.9,2.2,8.7,4.5,8.7,9.4c0,5.5-4.8,9.1-11.1,9.1C-1335.3,868.6-1339.2,866.2-1341,862.6z"/>
		<path class="st3" d="M-1316.4,852.5c0-8.9,7.2-16.1,16-16.1c8.8,0,16.1,7.2,16.1,16.1c0,8.8-7.2,16-16.1,16
			C-1309.2,868.5-1316.4,861.3-1316.4,852.5z M-1289.3,852.5c0-6.1-5-11.2-11.2-11.2c-6.1,0-11.1,5-11.1,11.2
			c0,6.1,5,11.1,11.1,11.1C-1294.3,863.6-1289.3,858.6-1289.3,852.5z"/>
		<path class="st3" d="M-1262.8,868l-8.4-12h-3.8v12h-4.9l0-31h9.6c5.8,0,10.5,4.4,10.5,10c0,4-2.6,7.5-6.1,8.6l9,12.4H-1262.8z
			 M-1270.1,852c2.9,0,5.4-2.3,5.4-5.1c0-2.9-2.5-5-5.4-5h-4.9V852H-1270.1z"/>
		<path class="st3" d="M-1254.1,834.4l3.8-6.3h4.3l-4.6,6.3H-1254.1z M-1253.5,837h4.9v31h-4.9V837z"/>
		<path class="st3" d="M-1223.1,863.3h-14.7l-2.1,4.7h-5.3l14.6-31.7h0.3l14.6,31.7h-5.3L-1223.1,863.3z M-1225,859.1l-5.5-12.1
			l-5.5,12.1H-1225z"/>
		<path class="st3" d="M-1212.9,874.2c1.3,0,3.6-1.1,3.6-3.9c0-0.7-0.1-1-0.3-1.5c-1.3,0-2.9-1-2.9-3c0-1.8,1.5-3.4,3.5-3.4
			c1.9,0,3.6,1.6,3.6,4.9c0,4.2-2.4,7.8-5.6,7.8C-1212.3,875.1-1212.9,874.5-1212.9,874.2z"/>
		<path class="st3" d="M-1190.3,852.5c0-8.7,7.3-16.1,16-16.1c4,0.1,7.7,1.8,10.8,4.7l-2.8,3.8c-2.2-2.2-5-3.6-8-3.6
			c-5.6,0-11,4.9-11,11.2c0,6.3,5.5,11.1,11,11.1c3.2,0,5.9-1.6,8.1-3.7l2.8,3.9c-2.7,2.6-6.1,4.7-10.7,4.7
			C-1183,868.5-1190.3,861.3-1190.3,852.5z"/>
		<path class="st3" d="M-1162.4,852.5c0-8.9,7.2-16.1,16-16.1c8.8,0,16.1,7.2,16.1,16.1c0,8.8-7.2,16-16.1,16
			C-1155.2,868.5-1162.4,861.3-1162.4,852.5z M-1135.2,852.5c0-6.1-5-11.2-11.2-11.2c-6.1,0-11.1,5-11.1,11.2
			c0,6.1,5,11.1,11.1,11.1C-1140.2,863.6-1135.2,858.6-1135.2,852.5z"/>
		<path class="st3" d="M-1100.9,836.9v31.7h-0.2l-19.9-20.7v20.2h-4.9v-31.6h0.2l19.8,20.7v-20.2H-1100.9z"/>
		<path class="st3" d="M-1096.7,862.6l3.9-2.8c1.4,2.4,4,3.8,7,3.8c3.5,0,6.1-1.7,6.1-4c0-2.9-4.1-4.6-7.7-6.2
			c-3.6-1.6-7.7-3.5-7.7-8.4c0-5.1,4.4-8.6,10-8.6c4.4,0,7.7,2.1,9,5.5l-3.6,2.5c-1-2.1-3.1-3.3-5.4-3.3c-2.9,0-5.1,1.8-5.1,4
			c0,2.4,2.9,3.3,6.6,4.9c4.9,2.2,8.7,4.5,8.7,9.4c0,5.5-4.8,9.1-11.1,9.1C-1091,868.6-1094.9,866.2-1096.7,862.6z"/>
		<path class="st3" d="M-1071,856.3V837h4.9v19.3c0,4.3,3,7.4,6.8,7.4c3.8,0,6.9-3.1,6.9-7.4V837h4.9v19.3c0,7.1-5.1,12.3-11.7,12.3
			C-1065.8,868.6-1071,863.4-1071,856.3z"/>
		<path class="st3" d="M-1023.1,863.2v4.9h-18.7v-31h4.9v26.2H-1023.1z"/>
		<path class="st3" d="M-1005.5,841.8h-8.3V868h-4.9v-26.2h-8.3V837h21.5V841.8z"/>
		<path class="st3" d="M-1004.7,852.5c0-8.9,7.2-16.1,16-16.1c8.8,0,16.1,7.2,16.1,16.1c0,8.8-7.2,16-16.1,16
			C-997.5,868.5-1004.7,861.3-1004.7,852.5z M-977.5,852.5c0-6.1-5-11.2-11.2-11.2c-6.1,0-11.1,5-11.1,11.2c0,6.1,5,11.1,11.1,11.1
			C-982.5,863.6-977.5,858.6-977.5,852.5z"/>
		<path class="st3" d="M-951,868l-8.4-12h-3.8v12h-4.9l0-31h9.6c5.8,0,10.5,4.4,10.5,10c0,4-2.6,7.5-6.1,8.6l9,12.4H-951z
			 M-958.3,852c2.9,0,5.4-2.3,5.4-5.1c0-2.9-2.5-5-5.4-5h-4.9V852H-958.3z"/>
		<path class="st3" d="M-942.3,834.4l3.8-6.3h4.3l-4.6,6.3H-942.3z M-941.8,837h4.9v31h-4.9V837z"/>
		<path class="st3" d="M-911.4,863.3H-926l-2.1,4.7h-5.3l14.6-31.7h0.3L-904,868h-5.3L-911.4,863.3z M-913.2,859.1l-5.5-12.1
			l-5.5,12.1H-913.2z"/>
		<path class="st3" d="M-863.1,868.3c-2.1,0-5-1.3-7.9-3.3c-2.3,2.3-5.3,3.6-8.8,3.6c-7,0-10.6-5.1-10.6-9.7c0-3.8,2.5-7.3,5.2-9
			c-1.2-2.2-1.9-4.2-1.9-6c0-3.9,3.6-7.8,8.2-7.8c4.2,0,7.5,3.3,8.1,7l-4.7,0.9c-0.2-1.9-1.8-3.4-3.5-3.4c-1.8,0-3.2,1.5-3.2,3.5
			c0,3.6,4.8,9.8,9.9,14.3c0.8-1.7,1.2-3.7,1.3-6l4.6-0.1c-0.1,3.6-0.8,6.6-2,9c2.1,1.4,4,2.3,5.5,2.3L-863.1,868.3z M-874.9,862
			c-2.9-2.5-5.8-5.5-8-8.5c-1.8,1.3-2.9,3-2.9,5.1c0,2.9,2,5.2,5.7,5.2C-878,863.9-876.3,863.2-874.9,862z"/>
		<path class="st3" d="M-849.1,852.5c0-8.7,7.3-16.1,16-16.1c4,0.1,7.7,1.8,10.8,4.7l-2.8,3.8c-2.2-2.2-5-3.6-8.1-3.6
			c-5.6,0-11,4.9-11,11.2c0,6.3,5.5,11.1,11,11.1c3.2,0,5.9-1.6,8.1-3.7l2.8,3.9c-2.7,2.6-6.1,4.7-10.7,4.7
			C-841.8,868.5-849.1,861.3-849.1,852.5z"/>
		<path class="st3" d="M-798.9,863.3h-14.7l-2.1,4.7h-5.3l14.6-31.7h0.3l14.6,31.7h-5.3L-798.9,863.3z M-800.8,859.1l-5.5-12.1
			l-5.5,12.1H-800.8z"/>
		<path class="st3" d="M-788,837h10.4c6,0,10.9,4.6,10.9,10.2c0,5.5-4.9,10-10.9,10h-5.5V868h-4.9V837z M-771.6,847.2
			c0-3-2.7-5.4-6-5.4h-5.5v10.6l5.5,0C-774.3,852.5-771.6,850.1-771.6,847.2z"/>
		<path class="st3" d="M-749.1,863.3h-14.7l-2.1,4.7h-5.3l14.6-31.7h0.3l14.6,31.7h-5.3L-749.1,863.3z M-751,859.1l-5.5-12.1
			l-5.5,12.1H-751z"/>
		<path class="st3" d="M-742.6,852.5c0-8.7,7.3-16.1,16-16.1c4,0.1,7.7,1.8,10.8,4.7l-2.8,3.8c-2.2-2.2-5-3.6-8.1-3.6
			c-5.6,0-11,4.9-11,11.2c0,6.3,5.5,11.1,11,11.1c3.2,0,5.9-1.6,8.1-3.7l2.8,3.9c-2.7,2.6-6.1,4.7-10.7,4.7
			C-735.3,868.5-742.6,861.3-742.6,852.5z"/>
		<path class="st3" d="M-711.9,837h4.9v31h-4.9V837z"/>
		<path class="st3" d="M-681.6,841.8h-8.3V868h-4.9v-26.2h-8.3V837h21.5V841.8z"/>
		<path class="st3" d="M-662,863.3h-14.7l-2.1,4.7h-5.3l14.6-31.7h0.3l14.6,31.7h-5.3L-662,863.3z M-663.9,859.1l-5.5-12.1
			l-5.5,12.1H-663.9z"/>
		<path class="st3" d="M-655.6,852.5c0-8.7,7.3-16.1,16-16.1c4,0.1,7.7,1.8,10.8,4.7l-2.8,3.8c-2.2-2.2-5-3.6-8.1-3.6
			c-5.6,0-11,4.9-11,11.2c0,6.3,5.5,11.1,11,11.1c3.2,0,5.9-1.6,8.1-3.7l2.8,3.9c-2.7,2.6-6.1,4.7-10.7,4.7
			C-648.3,868.5-655.6,861.3-655.6,852.5z"/>
		<path class="st3" d="M-624.9,837h4.9v31h-4.9V837z"/>
		<path class="st3" d="M-615.5,852.5c0-8.9,7.2-16.1,16-16.1c8.8,0,16.1,7.2,16.1,16.1c0,8.8-7.2,16-16.1,16
			C-608.3,868.5-615.5,861.3-615.5,852.5z M-588.3,852.5c0-6.1-5-11.2-11.2-11.2c-6.1,0-11.1,5-11.1,11.2c0,6.1,5,11.1,11.1,11.1
			C-593.4,863.6-588.3,858.6-588.3,852.5z M-602.5,834.4l3.8-6.3h4.3l-4.6,6.3H-602.5z"/>
		<path class="st3" d="M-554,836.9v31.7h-0.2l-19.9-20.7v20.2h-4.9v-31.6h0.3l19.8,20.7v-20.2H-554z"/>
	</g>
	<g>
		<path class="st2" d="M-566.5,732.8c18.6,11.3,20.9,24.9,16.2,43.7c-3.6,14.1-15.4,19.2-28.7,20c-13.9,0.8-27.8,0.1-41.8,0.3
			c-6,0.1-6.9-3.6-6.9-8.1c-0.1-11.6-0.1-23.3-0.1-34.9c0-23.8,0.2-47.7-0.1-71.5c-0.1-7.7,2.2-11.3,10.4-10.8
			c12.2,0.7,24.5-0.5,36.7,0.7c13.4,1.4,23.7,7.1,27,20.8c3.4,13.9,2.6,27.1-9.6,37.2C-564.1,730.9-565,731.6-566.5,732.8z
			 M-619.2,761.2c0,7.8,0.1,14.2,0,20.5c-0.2,5.1,1.5,7.8,7.1,7.7c10.9-0.2,21.7,0.2,32.6-0.4c14.4-0.8,22.6-9.4,23.2-23.3
			c0.7-16.4-6-25.1-21.4-27.4c-5.2-0.8-10.5-1.3-15.8-1.2c-8,0.2-18-3.4-23.5,1.6C-623,744.2-618.1,754.5-619.2,761.2z
			 M-598.1,730.7c6,0.2,13.8,0.2,21.4-1.8c10.9-2.9,17-12.1,16.6-24.9c-0.4-13.2-6.6-21.3-17.9-23.7c-11.9-2.5-23.9-1.2-35.8-1.4
			c-4.6-0.1-5.4,2.9-5.4,6.6c0,8.6,0,17.2,0,25.8C-619.2,730.7-619.2,730.7-598.1,730.7z"/>
		<path class="st2" d="M-695.5,759.9c-7,0-13.9,0.3-20.9-0.1c-5.9-0.3-9.3,1.7-11.2,7.4c-2.8,8.1-6.2,16-9.5,24
			c-1.3,3.2-3,6.9-7.1,5.1c-4.2-1.9-1.1-5.4-0.1-7.8c14.3-36.4,28.7-72.7,43.2-109c1.3-3.2,1.9-7.6,6.7-7.3c4.2,0.3,4.6,4.4,5.8,7.4
			c14.4,36,28.8,72.1,43,108.2c1,2.6,4.6,6.5-0.2,8.5c-4.7,2-6.1-2.4-7.5-5.7c-3.2-7.7-6.5-15.3-9.2-23.2c-2-5.7-5.4-7.7-11.2-7.4
			C-681,760.2-688.3,759.9-695.5,759.9z M-694,688.4c-0.7,0-1.5,0-2.2,0c-7.9,19.7-15.8,39.4-23.7,59.2c-1.6,3.9,0.5,4.8,4,4.8
			c13.6-0.1,27.3-0.1,40.9,0c4,0,5.9-1.2,4.2-5.5C-678.5,727.5-686.2,707.9-694,688.4z"/>
		<path class="st2" d="M-822.3,733.9c0-18-0.1-36,0.1-53.9c0-3-1.2-7.5,4.1-7.3c4.6,0.2,3.4,4.4,3.5,7.1c0.1,33.2,0.3,66.4-0.1,99.6
			c-0.1,7.6,2.3,10.2,9.9,9.9c13-0.5,26.1-0.2,39.2-0.1c3.1,0,7.7-0.8,7.3,4.3c-0.3,4.4-4.6,3.1-7.4,3.2
			c-16.1,0.1-32.2-0.1-48.4,0.2c-6.1,0.1-8.4-2.1-8.3-8.2C-822.1,770.4-822.3,752.2-822.3,733.9z"/>
	</g>
	<path class="st3" d="M-833.1,602.7"/>
</g>
<rect x="-1372.8" y="-2696.6" class="st0" width="48" height="48"/>
<rect x="-1302.8" y="-2696.6" class="st3" width="48" height="48"/>
<rect x="-1303.6" y="-2709.9" class="st1" width="48.9" height="9.2"/>
<text transform="matrix(1 0 0 1 -1300.2432 -2701.4263)" class="st3" style="font-family:'MyriadPro-Regular'; font-size:12px;">#45aa35</text>
<rect x="-1373.6" y="-2709.9" class="st1" width="48.9" height="9.2"/>
<text transform="matrix(1 0 0 1 -1370.1191 -2701.4263)" class="st0" style="font-family:'MyriadPro-Regular'; font-size:12px;">#573c8f</text>
<g>
	<ellipse transform="matrix(0.1591 -0.9873 0.9873 0.1591 -8.043 98.5555)" class="st0" cx="53.8" cy="54" rx="49.3" ry="49.3"/>
	<g>
		<path class="st2" d="M74.4,66.2c-2.3-2.3-6-2.6-8.6-0.7l-5.9,3.8c0,0-3.8,1.5-14-8.7c-10-10.1-8.6-13.9-8.6-13.9v0l3.8-5.9
			c2-2.6,1.7-6.4-0.6-8.7l-5.6-5.6c-1.4-1.4-3.2-2.1-5.2-1.9c-1.9,0.1-3.7,1.1-4.8,2.6c0,0,0,0.1-0.1,0.1L22,31.9
			c-0.5,0.6-11.2,16,12.5,39.9c0,0,0.2,0.2,0.2,0.2c12.4,12.4,22.5,15.4,29.5,15.4c6.4,0,10.1-2.5,10.3-2.7l4.8-2.9
			c1.5-1.2,2.5-2.9,2.7-4.8c0.1-1.9-0.6-3.8-1.9-5.2L74.4,66.2z"/>
		<path class="st2" d="M66,53.7c0.2,0.2,0.5,0.3,0.8,0.3c0.3,0,0.6-0.1,0.8-0.3c3.9-3.9,3.9-10.3,0-14.2c-3.8-3.8-10.4-3.8-14.2,0
			c-0.4,0.4-0.4,1.1,0,1.5c0.4,0.4,1.1,0.4,1.5,0c3-3,8.2-3,11.1,0c3.1,3.1,3,8.1,0,11.1C65.6,52.6,65.6,53.3,66,53.7z"/>
		<path class="st2" d="M70.8,58.1c0.3,0,0.6-0.1,0.8-0.3c6.1-6.1,6.2-16.1,0-22.3c-6.1-6.1-16.1-6.2-22.2,0c-0.4,0.4-0.4,1.1,0,1.5
			c0.4,0.4,1.1,0.4,1.5,0c2.6-2.6,6-4,9.6-3.9c3.6,0,7,1.4,9.6,4c5.3,5.3,5.3,13.9,0,19.2c-0.4,0.4-0.4,1.1,0,1.5
			C70.3,58,70.5,58.1,70.8,58.1z"/>
		<path class="st2" d="M46.8,32.9c3.7-3.6,8.5-5.6,13.7-5.6c5.2,0,10,2,13.7,5.7c7.5,7.6,7.5,19.8-0.1,27.4c-0.4,0.4-0.4,1.1,0,1.5
			c0.2,0.2,0.5,0.3,0.8,0.3c0.3,0,0.6-0.1,0.8-0.3c8.4-8.4,8.4-22,0.1-30.4c-4.1-4.1-9.5-6.3-15.2-6.3c-5.8,0-11.2,2.2-15.2,6.3
			c-0.4,0.4-0.4,1.1,0,1.5C45.7,33.3,46.4,33.3,46.8,32.9z"/>
	</g>
</g>
</svg>
